<svg width="27" height="27" viewBox="0 0 27 27" fill="none" xmlns="http://www.w3.org/2000/svg">
<path d="M19.5914 2.32202C15.1409 2.32202 13.5058 6.86999 13.5058 6.86999C13.5058 6.86999 11.893 2.32202 7.41204 2.32202C4.04423 2.32202 0.205166 4.99108 1.62298 11.0584C3.04079 17.1258 13.518 24.6841 13.518 24.6841C13.518 24.6841 23.9566 17.1258 25.3764 11.0584C26.7942 4.99108 23.2314 2.32202 19.5914 2.32202Z" fill="#F44336"/>
<path d="M6.72641 2.77499C10.2202 2.77499 11.9548 6.53077 12.5155 8.05218C12.5947 8.26952 12.8973 8.27562 12.9887 8.06437L13.5006 6.86796C12.7795 4.56452 10.797 2.32202 7.41297 2.32202C6.01141 2.32202 4.53062 2.78515 3.37891 3.76218C4.39656 3.0939 5.58891 2.77499 6.72641 2.77499ZM19.5923 2.32202C18.5178 2.32202 17.5388 2.55562 16.775 3.02687C17.3113 2.81968 17.9755 2.77499 18.6336 2.77499C21.9263 2.77499 24.8736 5.2714 23.5431 11.0422C22.4016 15.9964 15.7309 22.0069 13.6936 24.3001C13.5636 24.4464 13.5189 24.682 13.5189 24.682C13.5189 24.682 23.9575 17.1237 25.3773 11.0564C26.7952 4.99108 23.2384 2.32202 19.5923 2.32202Z" fill="#CC3333"/>
<path d="M3.96061 5.54166C4.72233 4.59103 6.08326 3.80494 7.23701 4.71088C7.86061 5.20041 7.58842 6.20385 7.02983 6.62635C6.21733 7.24385 5.51045 7.61556 5.01483 8.58244C4.71826 9.16338 4.53951 9.79916 4.44811 10.4471C4.41154 10.7031 4.07639 10.766 3.95045 10.5406C3.09326 9.02119 2.84951 6.929 3.96061 5.54166ZM16.1725 7.54041C15.815 7.54041 15.5631 7.1951 15.6931 6.86197C15.9348 6.24853 16.2476 5.65541 16.6234 5.12728C17.18 4.34728 18.2383 3.89228 18.9086 4.36556C19.5951 4.849 19.5058 5.81588 19.0244 6.28306C17.9905 7.28447 16.6864 7.54041 16.1725 7.54041Z" fill="#FF8A80"/>
</svg>
