<svg width="26" height="27" viewBox="0 0 26 27" fill="none" xmlns="http://www.w3.org/2000/svg">
<path d="M12.918 24.6313C7.25078 24.6313 1.13672 21.0766 1.13672 13.2766C1.13672 5.47656 7.25078 1.92188 12.918 1.92188C16.0664 1.92188 18.9711 2.95781 21.1242 4.84687C23.4602 6.91875 24.6992 9.84375 24.6992 13.2766C24.6992 16.7094 23.4602 19.6141 21.1242 21.6859C18.9711 23.575 16.0461 24.6313 12.918 24.6313Z" fill="url(#paint0_radial_291_3093)"/>
<path d="M22.647 6.52661C23.7297 8.27349 24.2944 10.3535 24.2944 12.6671C24.2944 16.0999 23.0553 19.0046 20.7194 21.0765C18.5662 22.9655 15.6412 24.0218 12.5131 24.0218C8.84469 24.0218 4.9975 22.5288 2.72656 19.3621C4.91219 22.9493 9.02344 24.6311 12.9194 24.6311C16.0475 24.6311 18.9725 23.5749 21.1256 21.6858C23.4616 19.614 24.7006 16.7093 24.7006 13.2765C24.7006 10.6886 23.9958 8.38927 22.647 6.52661Z" fill="#EB8F00"/>
<path d="M13.0003 19.5552C10.6623 19.5552 8.99266 18.3365 8.49094 17.5768C8.39832 17.4563 8.33999 17.3131 8.32212 17.1622C8.30424 17.0113 8.32748 16.8584 8.38938 16.7196C8.48484 16.5388 8.67375 16.4271 8.87891 16.4332C8.95406 16.4332 9.02922 16.4454 9.10031 16.4677C10.3647 16.85 11.6794 17.0404 13.0003 17.0324C14.3206 17.0406 15.6369 16.8496 16.9003 16.4677C16.9714 16.4454 17.0466 16.4332 17.1217 16.4332C17.3269 16.4271 17.5158 16.5388 17.6112 16.7196C17.6731 16.8584 17.6964 17.0113 17.6785 17.1622C17.6606 17.3131 17.6023 17.4563 17.5097 17.5768C17.008 18.3406 15.3383 19.5552 13.0003 19.5552ZM25.1878 9.72602C25.1878 9.72602 24.3225 9.7443 24.3225 10.437C24.3225 12.1473 24.3428 15.8177 19.8538 15.8177C16.2666 15.8177 14.5542 13.9652 14.2658 11.9198C14.148 11.0687 13.8595 10.1424 12.9922 10.1424C12.1248 10.1424 11.8445 11.0626 11.7267 11.9198C11.4383 13.9652 9.72594 15.8177 6.13875 15.8177C1.65781 15.8177 1.67 12.1473 1.67 10.437C1.67 9.7443 0.804688 9.72602 0.804688 9.72602V8.03196C2.19525 7.84957 3.5968 7.76405 4.99922 7.77602C7.53422 7.77602 8.54375 7.77602 10.5608 7.97915C11.7531 8.09696 12.9983 8.11118 12.9983 8.11118C12.9983 8.11118 14.2373 8.09696 15.4358 7.97915C17.4528 7.77602 18.4623 7.77602 20.9973 7.77602C22.3989 7.76384 23.7984 7.85118 25.1878 8.03196V9.72602Z" fill="#422B0D"/>
<path d="M4.29037 11.0625C4.27006 11.3875 4.14006 11.6881 3.82115 11.7491C3.78459 11.7552 3.75006 11.7592 3.7135 11.7592C3.57446 11.7586 3.44016 11.7086 3.33452 11.6182C3.22888 11.5278 3.15875 11.4029 3.13662 11.2656C3.01271 10.705 3.14881 10.118 3.50631 9.66906C3.66902 9.47249 3.87327 9.31443 4.10438 9.20625C4.33549 9.09808 4.5877 9.04247 4.84287 9.04344C5.14959 9.015 5.42178 9.24047 5.45021 9.54719C5.45021 9.55328 5.45225 9.55937 5.45225 9.5675C5.45225 9.94937 5.14756 10.1119 4.84287 10.2175C4.50975 10.3678 4.29443 10.6969 4.29037 11.0625ZM17.2051 11.0625C17.1868 11.3875 17.0547 11.6881 16.7379 11.7491C16.6607 11.7636 16.5814 11.7626 16.5046 11.7461C16.4278 11.7296 16.3551 11.6979 16.2907 11.6528C16.2264 11.6078 16.1717 11.5503 16.1299 11.4838C16.0881 11.4173 16.06 11.3431 16.0472 11.2656C15.9233 10.705 16.0594 10.118 16.4169 9.66906C16.58 9.47244 16.7847 9.31438 17.0161 9.20621C17.2475 9.09804 17.5001 9.04245 17.7555 9.04344C18.0622 9.015 18.3344 9.24047 18.3629 9.54719C18.3629 9.55328 18.3649 9.55937 18.3649 9.5675C18.3649 9.94937 18.0602 10.1119 17.7555 10.2175C17.5929 10.2913 17.4546 10.4101 17.3571 10.5598C17.2596 10.7095 17.2069 10.8839 17.2051 11.0625Z" fill="#896024"/>
<defs>
<radialGradient id="paint0_radial_291_3093" cx="0" cy="0" r="1" gradientUnits="userSpaceOnUse" gradientTransform="translate(12.918 13.2766) scale(11.57)">
<stop offset="0.5" stop-color="#FDE030"/>
<stop offset="0.92" stop-color="#F7C02B"/>
<stop offset="1" stop-color="#F4A223"/>
</radialGradient>
</defs>
</svg>
