<svg width="26" height="26" viewBox="0 0 26 26" fill="none" xmlns="http://www.w3.org/2000/svg">
<path d="M24.698 12.356L21.8684 11.4439C20.0586 10.8468 18.9983 9.38223 18.5006 7.54191L17.2555 1.4766C17.223 1.35676 17.1437 1.19629 16.9 1.19629C16.6948 1.19629 16.577 1.35676 16.5445 1.4766L15.2994 7.54395C14.7997 9.38426 13.7414 10.8488 11.9316 11.446L9.10203 12.358C8.70187 12.488 8.69578 13.0527 9.0939 13.1888L11.9437 14.1699C13.7475 14.7691 14.7997 16.2316 15.2994 18.0638L16.5466 24.0621C16.5791 24.1819 16.6461 24.3972 16.902 24.3972C17.1722 24.3972 17.225 24.1819 17.2575 24.0621L18.5047 18.0638C19.0044 16.2296 20.0566 14.7671 21.8603 14.1699L24.7102 13.1888C25.1042 13.0507 25.0981 12.486 24.698 12.356Z" fill="#FDD835"/>
<path d="M24.9667 12.61C24.922 12.4982 24.8347 12.4007 24.6986 12.3561L21.8691 11.444C20.0592 10.8468 18.9989 9.3823 18.5013 7.54199L17.2561 1.47668C17.2378 1.40762 17.1728 1.28168 17.0977 1.24512L17.4998 7.33277C17.7984 10.1115 18.0544 11.4196 20.2725 11.8015C22.1778 12.1306 24.3817 12.5084 24.9667 12.61Z" fill="#FFEE58"/>
<path d="M24.9725 12.9268L20.065 14.0521C18.3364 14.4908 17.3838 15.4922 17.3838 18.1125L16.9023 24.3972C17.0669 24.381 17.2009 24.2916 17.2578 24.0621L18.505 18.0638C19.0047 16.2296 20.0569 14.7671 21.8606 14.1699L24.7105 13.1888C24.8445 13.14 24.9298 13.0405 24.9725 12.9268Z" fill="#F4B400"/>
<path d="M8.49266 17.6333C6.80063 17.0748 6.64626 16.4451 6.36188 15.3827L5.65298 12.8965C5.61032 12.736 5.19188 12.736 5.1472 12.8965L4.66579 15.1938C4.37938 16.2521 3.77001 17.093 2.73001 17.4363L1.07251 18.1554C0.842977 18.2305 0.838915 18.5555 1.06845 18.6327L2.73813 19.2238C3.77407 19.5671 4.37938 20.408 4.66782 21.4623L5.14923 23.6601C5.19391 23.8205 5.61032 23.8205 5.65298 23.6601L6.21766 21.4724C6.50407 20.4121 6.94282 19.5691 8.35048 19.2238L9.9186 18.6327C10.1481 18.5535 10.1461 18.2285 9.91454 18.1533L8.49266 17.6333Z" fill="#FDD835"/>
<path d="M5.78704 15.346C5.9597 16.9426 6.04704 17.3854 7.34095 17.7165L10.0364 18.2426C10.008 18.204 9.96735 18.1715 9.91251 18.1553L8.49063 17.6332C7.00579 17.1254 6.59548 16.4795 6.3172 15.1876C6.03892 13.8957 5.74235 13.0528 5.74235 13.0528C5.63876 12.7745 5.49048 12.7887 5.49048 12.7887L5.78704 15.346Z" fill="#FFEE58"/>
<path d="M5.83656 20.9198C5.83656 19.4147 6.65922 18.6692 7.96734 18.6692L10.0027 18.5859C10.0027 18.5859 9.88484 18.7423 9.67969 18.7911L8.35125 19.2237C7.22391 19.6767 6.71 19.9042 6.36063 21.4459C6.36063 21.4459 5.90969 23.2395 5.82438 23.4284C5.70656 23.6925 5.56641 23.7473 5.56641 23.7473L5.83656 20.9198Z" fill="#F4B400"/>
<path d="M12.1341 5.71586C12.2479 5.67727 12.2438 5.51477 12.128 5.48227L10.5599 5.05977C10.3986 5.01603 10.2514 4.93132 10.1325 4.81387C10.0136 4.69641 9.92712 4.55021 9.88145 4.38945L9.26395 1.84024C9.23348 1.71633 9.05676 1.71633 9.02629 1.84227L8.44535 4.38133C8.40153 4.54655 8.31443 4.69709 8.19303 4.81742C8.07163 4.93775 7.92033 5.02351 7.75473 5.06586L6.19676 5.47008C6.08098 5.50055 6.07285 5.66305 6.1866 5.70367L7.82988 6.27242C8.12441 6.37399 8.35191 6.61367 8.44129 6.91227L9.02832 9.26649C9.05879 9.38836 9.23348 9.39039 9.26395 9.26649L9.87129 6.90414C9.91622 6.75669 9.99568 6.62208 10.1031 6.51151C10.2105 6.40093 10.3427 6.31757 10.4888 6.26836L12.1341 5.71586Z" fill="#F4B400" stroke="#F4B400" stroke-width="0.125" stroke-miterlimit="10"/>
</svg>
