<svg width="27" height="26" viewBox="0 0 27 26" fill="none" xmlns="http://www.w3.org/2000/svg">
<path d="M13.418 24.1313C7.75078 24.1313 1.63672 20.5766 1.63672 12.7766C1.63672 4.97656 7.75078 1.42188 13.418 1.42188C16.5664 1.42188 19.4711 2.45781 21.6242 4.34687C23.9602 6.41875 25.1992 9.34375 25.1992 12.7766C25.1992 16.2094 23.9602 19.1141 21.6242 21.1859C19.4711 23.075 16.5461 24.1313 13.418 24.1313Z" fill="url(#paint0_radial_291_3077)"/>
<path d="M23.147 6.02661C24.2297 7.77349 24.7944 9.85349 24.7944 12.1671C24.7944 15.5999 23.5553 18.5046 21.2194 20.5765C19.0662 22.4655 16.1412 23.5218 13.0131 23.5218C9.34469 23.5218 5.4975 22.0288 3.22656 18.8621C5.41219 22.4493 9.52344 24.1311 13.4194 24.1311C16.5475 24.1311 19.4725 23.0749 21.6256 21.1858C23.9616 19.114 25.2006 16.2093 25.2006 12.7765C25.2006 10.1886 24.4958 7.88927 23.147 6.02661Z" fill="#EB8F00"/>
<path d="M19.9845 3.47953L18.3473 5.65297C18.266 5.75859 18.1401 5.81953 18.006 5.81344L15.2882 5.69765C15.0648 5.6875 14.8738 5.86219 14.8637 6.08562C14.8596 6.175 14.886 6.26234 14.9368 6.33547L16.4988 8.56984C16.574 8.6775 16.5923 8.81359 16.5476 8.9375L15.597 11.4887C15.5198 11.7 15.6274 11.9336 15.8367 12.0108C15.9199 12.0412 16.0093 12.0433 16.0946 12.0189L18.6967 11.2227C18.8246 11.1841 18.9628 11.2105 19.0684 11.2937L21.1992 12.9858C21.3759 13.1239 21.6298 13.0955 21.7699 12.9187C21.8248 12.8477 21.8553 12.7623 21.8573 12.673L21.904 9.95312C21.906 9.81906 21.9751 9.69515 22.0868 9.62203L24.3537 8.125C24.417 8.08321 24.4673 8.02453 24.499 7.9556C24.5307 7.88668 24.5425 7.81026 24.5329 7.735C24.5234 7.65974 24.493 7.58865 24.4452 7.52977C24.3974 7.4709 24.334 7.42659 24.2623 7.40187L21.6887 6.51625C21.5587 6.47359 21.4592 6.36797 21.4226 6.23594L20.6995 3.61359C20.6699 3.51002 20.6005 3.42238 20.5065 3.36984C20.4125 3.31731 20.3015 3.30416 20.1978 3.33328C20.1124 3.35765 20.0373 3.40844 19.9845 3.47953Z" fill="url(#paint1_radial_291_3077)"/>
<path d="M20.7744 3.43073L21.3838 6.25823C21.4064 6.36492 21.4574 6.46351 21.5314 6.5436C21.6054 6.62369 21.6997 6.6823 21.8043 6.71323L24.5221 7.52573C24.7252 7.59886 24.8308 7.8223 24.7577 8.02542C24.7293 8.10667 24.6744 8.1737 24.6013 8.22042L22.1638 9.5448C22.0631 9.59578 21.9785 9.67361 21.9194 9.76969C21.8602 9.86577 21.8288 9.97634 21.8286 10.0892L21.853 13.0528C21.8514 13.1037 21.8398 13.1539 21.8189 13.2003C21.7979 13.2468 21.768 13.2887 21.7308 13.3236C21.6936 13.3585 21.65 13.3857 21.6023 13.4037C21.5546 13.4217 21.5038 13.4302 21.4529 13.4285C21.3675 13.4265 21.2843 13.396 21.2193 13.3412L19.0905 11.4298C19.0095 11.3561 18.9101 11.3058 18.8029 11.2839C18.6956 11.2621 18.5844 11.2697 18.4811 11.3059L15.7796 12.226C15.5724 12.285 15.3571 12.1651 15.2961 11.9579C15.2718 11.8767 15.2758 11.7893 15.3083 11.7101L16.4986 8.99433C16.588 8.78714 16.5575 8.54949 16.4174 8.37277L14.6888 6.19323C14.5689 6.01245 14.6177 5.77073 14.7964 5.64886C14.8655 5.60214 14.9488 5.5798 15.0341 5.58386L17.8555 5.9048C18.0769 5.92917 18.2922 5.83167 18.4202 5.65089L20.0899 3.29058C20.2219 3.11995 20.4677 3.08948 20.6363 3.22355C20.7053 3.27636 20.7521 3.34745 20.7744 3.43073Z" fill="#F44336"/>
<path d="M20.1275 6.16293L20.3306 4.21293C20.3448 4.10527 20.3611 3.91839 20.5337 3.95292C20.6698 3.98136 20.684 4.27589 20.684 4.27589L20.9481 5.92933C21.0456 6.55699 20.9156 6.74183 20.68 6.81496C20.4057 6.90636 20.0706 6.72152 20.1275 6.16293Z" fill="#FF847A"/>
<path d="M21.9601 9.34378L23.8837 8.39112C23.9792 8.33831 24.1498 8.25909 24.0584 8.11081C23.9833 7.99503 23.7009 8.08237 23.7009 8.08237L22.1348 8.35253C21.6717 8.41347 21.3386 8.57597 21.2553 8.85018C21.1476 9.20362 21.4218 9.55909 21.9601 9.34378Z" fill="#C62828"/>
<path d="M7.10217 2.94532L8.72717 5.33001C8.8531 5.51282 9.06638 5.61235 9.28779 5.59204L12.1153 5.31376C12.1872 5.31153 12.2583 5.32923 12.3208 5.36489C12.3833 5.40055 12.4348 5.45278 12.4694 5.51583C12.5041 5.57888 12.5207 5.65028 12.5173 5.72216C12.514 5.79403 12.4908 5.86358 12.4504 5.92313L10.6975 8.08235C10.5553 8.25704 10.5208 8.49469 10.6081 8.70188L11.7558 11.4339C11.7813 11.5021 11.7873 11.5761 11.773 11.6475C11.7587 11.719 11.7246 11.7849 11.6747 11.838C11.6248 11.8911 11.5611 11.9291 11.4907 11.9478C11.4203 11.9665 11.346 11.9651 11.2764 11.9438L8.58092 10.983C8.47846 10.9457 8.36787 10.9366 8.26068 10.9566C8.1535 10.9766 8.05365 11.025 7.97154 11.0967L5.82248 12.9756C5.65592 13.1097 5.41217 13.0833 5.27607 12.9167C5.22123 12.8497 5.19076 12.7644 5.19076 12.6791L5.25779 9.71547C5.26388 9.49001 5.14404 9.28282 4.94904 9.1711L2.53185 7.81016C2.34904 7.70047 2.2881 7.46079 2.39982 7.27798C2.44654 7.19876 2.5217 7.13782 2.60904 7.10938L5.34107 6.33344C5.44495 6.30388 5.53914 6.24734 5.61406 6.16956C5.68899 6.09178 5.74198 5.99554 5.76763 5.89063L6.4156 3.07329C6.43566 3.00364 6.47469 2.94095 6.52834 2.89223C6.58199 2.8435 6.64814 2.81066 6.71939 2.79738C6.79063 2.78411 6.86417 2.79091 6.93177 2.81703C6.99937 2.84316 7.05837 2.88758 7.10217 2.94532Z" fill="#F44336"/>
<path d="M7.5403 5.71795L6.98374 3.83702C6.95733 3.73139 6.90046 3.55264 7.07108 3.52014C7.20717 3.49373 7.33514 3.76186 7.33514 3.76186L8.20452 5.18373C8.53561 5.72811 8.4828 5.94545 8.29389 6.10389C8.10499 6.26233 7.69874 6.25623 7.5403 5.71795Z" fill="#FF847A"/>
<path d="M10.4406 7.95437L11.8625 6.34156C11.9315 6.25828 12.0656 6.12015 11.9153 6.01859C11.8036 5.93734 11.5761 6.12625 11.5761 6.12625L10.2293 6.97125C9.82309 7.20281 9.57731 7.47906 9.60574 7.76546C9.64027 8.14328 10.0262 8.36671 10.4406 7.95437Z" fill="#C62828"/>
<path d="M21.2335 14.5479C21.0961 14.2997 20.8739 14.1093 20.6075 14.0115C20.3412 13.9138 20.0485 13.9153 19.7832 14.0157C17.6988 14.623 15.5376 14.9261 13.3665 14.9156C11.1954 14.9261 9.03419 14.623 6.94977 14.0157C6.68518 13.9151 6.39321 13.913 6.12726 14.01C5.86131 14.107 5.63917 14.2965 5.50149 14.5438C5.22524 15.0537 5.4243 15.6448 5.65789 16.1546C6.96195 19.0187 9.83617 20.7331 13.3502 20.7432H13.3827C16.8968 20.7432 19.771 19.0187 21.0771 16.1546C21.3087 15.6407 21.5098 15.0577 21.2335 14.5479Z" fill="black"/>
<path d="M16.6177 19.9348C16.5425 19.8657 16.4653 19.8028 16.3881 19.7317C15.5587 19.0023 14.4861 18.6102 13.3819 18.6328C12.2444 18.6145 11.1373 18.9923 10.2497 19.7032C10.1725 19.7662 10.0912 19.8271 10.0161 19.9063C9.94094 19.9856 9.90031 20.0424 9.85156 20.1095C10.9688 20.5462 12.1591 20.7696 13.3595 20.7635H13.392C14.5417 20.7635 15.6813 20.5584 16.7578 20.1542C16.7172 20.077 16.6705 20.0038 16.6177 19.9348Z" fill="#ED7770"/>
<path d="M19.7834 14.0156C17.6989 14.6229 15.5377 14.926 13.3666 14.9155C11.1956 14.926 9.03435 14.6229 6.94992 14.0156C6.68534 13.915 6.39336 13.9129 6.12741 14.0099C5.86146 14.1069 5.63932 14.2964 5.50164 14.5437C5.46102 14.6209 5.42852 14.7022 5.4082 14.7855C5.47523 14.82 5.55242 14.8545 5.64383 14.8911C8.08928 16.1159 10.7923 16.7378 13.5271 16.705C16.1495 16.7355 18.7413 16.1647 21.1098 15.0394C21.2052 14.9987 21.2845 14.9601 21.3555 14.9236C21.3393 14.7916 21.2966 14.6616 21.2337 14.5437C21.0959 14.2959 20.8734 14.1061 20.607 14.0091C20.3406 13.9121 20.0482 13.9144 19.7834 14.0156Z" fill="white"/>
<path d="M21.2416 14.5499C21.1021 14.3012 20.8781 14.1105 20.6103 14.0126C20.3424 13.9146 20.0483 13.9157 19.7812 14.0157C17.6971 14.6231 15.5359 14.9257 13.3665 14.9156C11.1954 14.9261 9.03419 14.623 6.94977 14.0157C6.68518 13.9151 6.39321 13.913 6.12726 14.01C5.86131 14.107 5.63917 14.2965 5.50149 14.5438C5.22524 15.0537 5.4243 15.6448 5.65789 16.1546C5.76149 16.3841 5.87727 16.6096 6.00524 16.827C6.00524 16.827 5.57867 15.2466 5.94836 14.7876C6.01032 14.6916 6.09419 14.6117 6.19308 14.5545C6.29196 14.4973 6.40302 14.4644 6.51711 14.4585C6.61258 14.4585 6.70602 14.4748 6.79742 14.5032C8.91805 15.1268 11.1179 15.4416 13.3299 15.4376H13.401C15.613 15.4416 17.8129 15.1268 19.9335 14.5032C20.0249 14.4748 20.1184 14.4585 20.2138 14.4585C20.4454 14.4707 20.6587 14.5926 20.7846 14.7876C21.1604 15.2466 20.7277 16.8331 20.7277 16.8331C20.8537 16.6157 20.9796 16.3923 21.0852 16.1607C21.3168 15.6509 21.5179 15.0618 21.2416 14.5499Z" fill="#EB8F00"/>
<defs>
<radialGradient id="paint0_radial_291_3077" cx="0" cy="0" r="1" gradientUnits="userSpaceOnUse" gradientTransform="translate(13.418 12.7766) scale(11.57)">
<stop offset="0.5" stop-color="#FDE030"/>
<stop offset="0.92" stop-color="#F7C02B"/>
<stop offset="1" stop-color="#F4A223"/>
</radialGradient>
<radialGradient id="paint1_radial_291_3077" cx="0" cy="0" r="1" gradientUnits="userSpaceOnUse" gradientTransform="translate(19.7001 8.19569) scale(4.85692)">
<stop offset="0.2" stop-color="#FF4081"/>
<stop offset="0.88" stop-color="#CC1775"/>
</radialGradient>
</defs>
</svg>
