<svg width="26" height="26" viewBox="0 0 26 26" fill="none" xmlns="http://www.w3.org/2000/svg">
<g clip-path="url(#clip0_291_3172)">
<path d="M5.50879 18.3402C7.7066 17.7084 13.4185 15.8925 20.9321 16.313C21.1697 16.3272 21.1961 16.6684 20.9646 16.7152C17.4769 17.4322 8.68363 19.2888 6.22379 20.2556C5.83176 20.41 5.38895 20.2414 5.20004 19.8636C5.1391 19.7397 5.0741 19.6097 5.0091 19.4817C4.95525 19.3755 4.92557 19.2586 4.9222 19.1396C4.91883 19.0205 4.94185 18.9022 4.98961 18.7931C5.03738 18.6839 5.1087 18.5867 5.19846 18.5084C5.28822 18.4301 5.3942 18.3727 5.50879 18.3402Z" fill="#F44336"/>
<path d="M1.41282 23.0141C4.86798 22.1528 19.3691 18.5189 24.9835 18.5778C25.2272 18.5798 25.2638 18.9272 25.0261 18.98C20.6589 19.9245 5.60329 23.4183 2.1522 25.1083C1.71142 25.3236 1.18329 25.0941 1.02892 24.6289L0.866418 24.1434C0.689699 23.6092 0.953762 23.1278 1.41282 23.0141ZM1.31939 5.55141C0.608449 5.85204 0.712043 4.44438 1.20361 4.06251C2.62751 2.95547 6.10907 1.65344 8.12407 0.849068C8.53845 0.684536 8.9447 1.10907 8.76392 1.51735C7.66704 3.9975 4.44345 11.2227 2.43657 17.615C2.33298 17.9441 1.65861 17.9624 1.62407 17.617C1.44126 15.7483 2.74126 10.595 5.50579 4.57032C5.60532 4.35501 5.38798 4.12344 5.15642 4.17625C4.34595 4.36719 3.10282 4.79985 1.31939 5.55141ZM22.7085 1.76719C22.6699 1.75704 22.4261 1.69204 22.3347 1.68797C16.245 1.47672 13.4033 3.41047 13.3017 3.49172C12.9524 3.77407 12.8975 4.28594 13.1799 4.63329C13.4053 4.91157 13.6349 4.9461 13.7567 4.94407C13.8075 4.94204 13.8522 4.97454 13.8664 5.02532C14.1163 6.02266 14.1589 7.45063 13.7141 9.12438C12.9442 12.0128 11.2644 13.6094 10.397 13.6094C10.3483 13.6094 10.3016 13.6033 10.2589 13.5911C9.90548 13.4977 9.54392 12.9391 9.33876 12.1692C9.03204 11.0094 9.08282 9.49 9.47892 7.99907C10.0172 5.97188 11.0064 4.58251 11.8474 3.93454C12.2333 3.63797 12.542 3.25204 12.7675 2.81938C12.7695 2.81735 12.7695 2.81329 12.7716 2.81126C12.8731 2.61626 13.3464 1.69813 12.7939 1.68594C10.7972 1.68594 8.61767 4.12547 7.71376 7.52782C6.71642 11.2816 7.64673 14.7855 9.79173 15.3563C9.99079 15.4091 10.1939 15.4355 10.4011 15.4355C12.3978 15.4355 14.5774 12.9959 15.4813 9.5936C15.985 7.70047 15.9952 5.87235 15.6072 4.45251C15.5605 4.28391 15.6539 4.10922 15.8205 4.05235C16.4278 3.84313 17.5999 3.62985 18.6236 3.4836C18.7841 3.46126 18.8938 3.64407 18.7942 3.77204C18.0427 4.76329 17.413 6.05516 17.021 7.52985C16.0236 11.2836 16.9539 14.7875 19.0989 15.3583C19.298 15.4111 19.5011 15.4375 19.7083 15.4375C21.705 15.4375 23.8845 12.998 24.7885 9.59563C25.7838 5.84188 24.8535 2.33594 22.7085 1.76719ZM23.0192 9.12438C22.2514 12.0128 20.5736 13.6094 19.7063 13.6094C19.6575 13.6094 19.6108 13.6033 19.5681 13.5911C19.2147 13.4977 18.8531 12.9391 18.648 12.1692C18.3413 11.0094 18.392 9.49 18.7881 7.99907C19.556 5.11266 21.2338 3.51407 22.1031 3.51407C22.1519 3.51407 22.1966 3.52016 22.2413 3.53235C22.9847 3.73141 23.848 6.00641 23.0192 9.12438Z" fill="#F44336" stroke="#F44336" stroke-width="0.125" stroke-miterlimit="10"/>
</g>
<defs>
<clipPath id="clip0_291_3172">
<rect width="26" height="26" fill="white"/>
</clipPath>
</defs>
</svg>
