<svg width="27" height="27" viewBox="0 0 27 27" fill="none" xmlns="http://www.w3.org/2000/svg">
<path d="M13.418 24.6313C7.75078 24.6313 1.63672 21.0766 1.63672 13.2766C1.63672 5.47656 7.75078 1.92188 13.418 1.92188C16.5664 1.92188 19.4711 2.95781 21.6242 4.84687C23.9602 6.91875 25.1992 9.84375 25.1992 13.2766C25.1992 16.7094 23.9602 19.6141 21.6242 21.6859C19.4711 23.575 16.5461 24.6313 13.418 24.6313Z" fill="url(#paint0_radial_291_3155)"/>
<path d="M9.4375 8.81592C8.58641 8.81592 7.8125 9.53498 7.8125 10.7294C7.8125 11.9237 8.58641 12.6408 9.4375 12.6408C10.2906 12.6408 11.0625 11.9217 11.0625 10.7294C11.0625 9.53701 10.2987 8.81592 9.4375 8.81592Z" fill="#422B0D"/>
<path d="M9.36575 9.61423C9.22667 9.54806 9.06707 9.53954 8.92173 9.59053C8.77639 9.64151 8.65709 9.74786 8.58981 9.88642C8.48216 10.1119 8.53091 10.382 8.71169 10.5567C9.00013 10.6949 9.34747 10.573 9.48763 10.2845C9.59528 10.0591 9.54653 9.78892 9.36575 9.61423Z" fill="#896024"/>
<path d="M17.2383 8.81592C16.3872 8.81592 15.6133 9.53498 15.6133 10.7294C15.6133 11.9237 16.3872 12.6408 17.2383 12.6408C18.0894 12.6408 18.8633 11.9217 18.8633 10.7294C18.8633 9.53701 18.0894 8.81592 17.2383 8.81592Z" fill="#422B0D"/>
<path d="M17.1568 9.61423C17.0177 9.54806 16.8581 9.53954 16.7127 9.59053C16.5674 9.64151 16.4481 9.74786 16.3808 9.88642C16.2732 10.1119 16.3219 10.382 16.5027 10.5567C16.7911 10.6949 17.1385 10.573 17.2786 10.2845C17.3863 10.0591 17.3375 9.78892 17.1568 9.61423Z" fill="#896024"/>
<path d="M13.2969 19.1082C11.4545 19.1225 9.69548 18.3486 8.46251 16.9795C8.36908 16.8718 8.34673 16.7195 8.40564 16.5895C8.46455 16.4575 8.59455 16.3721 8.73876 16.3701C8.80376 16.3701 8.86876 16.3884 8.92564 16.4209C9.9047 16.9836 11.5419 17.6823 13.2969 17.6823H13.3253C15.0783 17.6823 16.7175 16.9836 17.6945 16.4209C17.7514 16.3884 17.8164 16.3701 17.8814 16.3701C18.0256 16.3721 18.1556 16.4575 18.2145 16.5895C18.2755 16.7195 18.2531 16.8718 18.1577 16.9795C17.5477 17.6565 16.801 18.1963 15.967 18.5633C15.1329 18.9302 14.2304 19.116 13.3192 19.1082" fill="#422B0D"/>
<path d="M23.147 6.52661C24.2297 8.27349 24.7944 10.3535 24.7944 12.6671C24.7944 16.0999 23.5553 19.0046 21.2194 21.0765C19.0662 22.9655 16.1412 24.0218 13.0131 24.0218C9.34469 24.0218 5.4975 22.5288 3.22656 19.3621C5.41219 22.9493 9.52344 24.6311 13.4194 24.6311C16.5475 24.6311 19.4725 23.5749 21.6256 21.6858C23.9616 19.614 25.2006 16.7093 25.2006 13.2765C25.2006 10.6886 24.4958 8.38927 23.147 6.52661Z" fill="#EB8F00"/>
<defs>
<radialGradient id="paint0_radial_291_3155" cx="0" cy="0" r="1" gradientUnits="userSpaceOnUse" gradientTransform="translate(13.418 13.2766) scale(11.57)">
<stop offset="0.5" stop-color="#FDE030"/>
<stop offset="0.92" stop-color="#F7C02B"/>
<stop offset="1" stop-color="#F4A223"/>
</radialGradient>
</defs>
</svg>
