<svg width="27" height="27" viewBox="0 0 27 27" fill="none" xmlns="http://www.w3.org/2000/svg">
<path d="M12.7484 10.0672C12.3016 8.64529 11.55 7.87341 11.3672 7.2031C11.1438 6.43122 12.0375 5.9031 12.525 6.53279C12.2813 5.92341 11.5094 5.39529 11.4281 4.33904C11.4078 4.01404 11.5297 3.44529 12.2813 3.34372C12.1391 2.51091 12.4234 2.12497 12.6875 1.96247C13.0328 1.75935 13.3984 1.86091 13.6219 2.02341C15.6531 3.56716 18.5578 7.06091 19.9797 11.9968C20.1219 12.4843 20.2234 12.9109 20.2438 13.3375C20.2641 13.7031 20.3047 14.1297 20.3047 15.0234C20.3047 16.6078 20.1422 18.5375 19.9391 21.6453C19.9391 21.7875 19.9594 21.9906 20 22.1125C20.0609 22.2344 20.0813 22.3562 19.9594 22.5187C19.025 23.5547 15.9578 25.2 14.0078 25.4844C13.8047 25.5047 13.7234 25.4234 13.6422 25.3422C12.6875 24.489 11.3063 24.4687 10.0063 23.4937C8.30001 22.1937 6.83751 20.5281 6.20782 17.2578C6.10626 16.689 6.63438 15.8359 7.60938 16.1203C9.80313 16.7906 8.72657 19.1062 11.4281 19.8781C13.4797 20.4672 15.4703 18.7203 15.45 17.0344C15.4297 15.6531 14.9625 14.15 13.1344 13.7234C10.7578 13.1547 9.31563 16.0187 7.93438 15.9172C7.04063 15.8359 6.67501 15.4297 6.59376 14.9625C6.49219 14.3734 7.18282 13.5 9.07188 11.875C9.84376 11.225 11.1844 10.3718 12.7484 10.0672Z" fill="#FFCA28"/>
<mask id="mask0_291_3106" style="mask-type:luminance" maskUnits="userSpaceOnUse" x="6" y="1" width="15" height="25">
<path d="M12.7484 10.0672C12.3016 8.64529 11.55 7.87341 11.3672 7.2031C11.1438 6.43122 12.0375 5.9031 12.525 6.53279C12.2813 5.92341 11.5094 5.39529 11.4281 4.33904C11.4078 4.01404 11.5297 3.44529 12.2813 3.34372C12.1391 2.51091 12.4234 2.12497 12.6875 1.96247C13.0328 1.75935 13.3984 1.86091 13.6219 2.02341C15.6531 3.56716 18.5578 7.06091 19.9797 11.9968C20.1219 12.4843 20.2234 12.9109 20.2438 13.3375C20.2641 13.7031 20.3047 14.1297 20.3047 15.0234C20.3047 16.6078 20.1422 18.5375 19.9391 21.6453C19.9391 21.7875 19.9594 21.9906 20 22.1125C20.0609 22.2344 20.0813 22.3562 19.9594 22.5187C19.025 23.5547 15.9578 25.2 14.0078 25.4844C13.8047 25.5047 13.7234 25.4234 13.6422 25.3422C12.6875 24.489 11.3063 24.4687 10.0063 23.4937C8.30001 22.1937 6.83751 20.5281 6.20782 17.2578C6.10626 16.689 6.63438 15.8359 7.60938 16.1203C9.80313 16.7906 8.72657 19.1062 11.4281 19.8781C13.4797 20.4672 15.4703 18.7203 15.45 17.0344C15.4297 15.6531 14.9625 14.15 13.1344 13.7234C10.7578 13.1547 9.31563 16.0187 7.93438 15.9172C7.04063 15.8359 6.67501 15.4297 6.59376 14.9625C6.49219 14.3734 7.18282 13.5 9.07188 11.875C9.84376 11.225 11.1844 10.3718 12.7484 10.0672Z" fill="white"/>
</mask>
<g mask="url(#mask0_291_3106)">
<path d="M18.7208 7.46728C18.538 7.56884 17.9489 7.95478 17.7052 7.44697C17.4614 6.93916 17.1568 6.55322 16.5474 5.76103C15.938 4.96884 14.6583 3.46572 13.5005 2.40947C13.3177 2.24697 13.013 2.22666 12.8505 2.34853C12.6677 2.47041 12.3833 2.87665 12.6677 3.42509C12.9521 3.97353 13.338 4.80634 13.5818 5.29384C14.1911 6.43134 15.1255 7.48759 15.9583 10.7579C16.0802 11.2251 15.4302 10.6563 15.4302 10.6563C15.4302 10.6563 14.3333 9.74228 12.8302 10.2501C12.1802 10.4735 12.0583 9.74228 12.0583 9.74228C12.0583 9.74228 10.2099 4.50166 10.2099 4.46103C10.2099 4.42041 12.363 1.08916 12.3833 1.10947C12.424 1.12978 14.0286 1.19072 14.0286 1.19072L18.7208 7.46728ZM13.8661 20.0204C13.4802 20.2438 10.1083 21.2595 8.9302 18.2329C8.72708 17.7454 8.48333 17.3188 8.2802 17.0345C8.05676 16.7704 7.4677 16.4454 7.12239 16.5267C7.12239 16.5267 6.61457 16.5876 6.67551 17.2173C6.69582 17.461 6.71614 17.8063 7.06145 18.7813C7.38645 19.6751 6.63489 19.6142 6.4927 19.2079C6.35051 18.8017 5.72083 16.6485 5.72083 16.6485C5.72083 16.6485 6.43176 15.8157 6.59426 15.6329L6.02551 14.6376L10.0677 10.7579C10.1896 10.961 10.3927 11.3267 10.1896 11.5095C9.7427 11.8954 8.70676 12.6673 7.28489 14.3329C7.06145 14.597 6.91926 15.186 7.60989 15.4501C8.30051 15.7142 7.97551 16.0392 7.81301 16.0188C7.75207 16.0188 7.60989 15.9782 7.42707 15.9376C7.99582 16.222 8.62551 16.547 8.62551 16.547L14.0083 19.2079C14.1302 19.3704 14.1911 19.8376 13.8661 20.0204Z" fill="#FAA700"/>
</g>
<mask id="mask1_291_3106" style="mask-type:luminance" maskUnits="userSpaceOnUse" x="6" y="1" width="15" height="25">
<path d="M12.7484 10.0672C12.3016 8.64529 11.55 7.87341 11.3672 7.2031C11.1438 6.43122 12.0375 5.9031 12.525 6.53279C12.2813 5.92341 11.5094 5.39529 11.4281 4.33904C11.4078 4.01404 11.5297 3.44529 12.2813 3.34372C12.1391 2.51091 12.4234 2.12497 12.6875 1.96247C13.0328 1.75935 13.3984 1.86091 13.6219 2.02341C15.6531 3.56716 18.5578 7.06091 19.9797 11.9968C20.1219 12.4843 20.2234 12.9109 20.2438 13.3375C20.2641 13.7031 20.3047 14.1297 20.3047 15.0234C20.3047 16.6078 20.1422 18.5375 19.9391 21.6453C19.9391 21.7875 19.9594 21.9906 20 22.1125C20.0609 22.2344 20.0813 22.3562 19.9594 22.5187C19.025 23.5547 15.9578 25.2 14.0078 25.4844C13.8047 25.5047 13.7234 25.4234 13.6422 25.3422C12.6875 24.489 11.3063 24.4687 10.0063 23.4937C8.30001 22.1937 6.83751 20.5281 6.20782 17.2578C6.10626 16.689 6.63438 15.8359 7.60938 16.1203C9.80313 16.7906 8.72657 19.1062 11.4281 19.8781C13.4797 20.4672 15.4703 18.7203 15.45 17.0344C15.4297 15.6531 14.9625 14.15 13.1344 13.7234C10.7578 13.1547 9.31563 16.0187 7.93438 15.9172C7.04063 15.8359 6.67501 15.4297 6.59376 14.9625C6.49219 14.3734 7.18282 13.5 9.07188 11.875C9.84376 11.225 11.1844 10.3718 12.7484 10.0672Z" fill="white"/>
</mask>
<g mask="url(#mask1_291_3106)">
<path d="M6.71631 15.7344C6.71631 16.6891 7.63037 17.4406 8.99131 17.1359C9.53975 17.0141 11.1851 17.4812 11.2663 19.2281C11.2866 19.8172 11.2663 20.1219 11.7538 20.2234C13.0944 20.4672 14.4554 20.0203 15.2476 19.025C16.0397 18.0094 16.4866 16.2422 15.6132 14.7188C15.146 13.9266 13.6226 12.6062 11.5101 13.2359C10.7585 13.4594 10.1085 14.0281 9.80381 14.2719C9.15381 14.8406 8.36162 15.8969 7.24444 15.3484C7.021 15.2469 6.71631 15.3281 6.71631 15.7344ZM5.94444 16.75C6.12725 16.75 6.5335 16.75 6.61475 17.2375C6.65537 17.4813 7.04131 19.3094 8.09756 20.7109C10.9616 24.4484 13.2569 23.7984 14.2522 24.9969C14.4554 25.2406 14.7804 25.7688 14.7804 25.7688L13.6632 26.1953C13.6632 26.1953 8.21944 24.6516 6.91944 21.5234C5.61944 18.3953 5.94444 16.75 5.94444 16.75ZM8.19912 12.3016C8.40225 12.4031 8.74756 12.6062 9.31631 12.2203C10.0882 11.6922 11.4085 10.5953 13.7444 10.4125C14.171 10.3719 15.0038 10.4734 17.2382 12.2406C17.5226 12.4641 17.9288 12.0172 17.5632 11.7531C17.421 11.6516 16.8116 11.2656 16.4663 11.0219C16.3851 10.9609 16.3241 10.8797 16.3038 10.7781C15.2272 6.26875 12.6272 3.99375 12.2616 3.34375C11.9569 4.17656 14.9022 6.69531 15.6335 10.575C15.2272 10.2703 14.8616 10.0672 14.4351 9.94531C14.3538 9.925 14.2929 9.86406 14.2522 9.78281C13.7647 8.40156 13.0741 7.325 12.9522 7.18281C12.8304 7.04063 12.7694 7.1625 12.7897 7.22344C12.8507 7.42656 13.4804 8.58437 13.7241 9.90469C13.3788 9.90469 13.0741 9.96563 12.7288 10.0875C11.896 9.7625 11.6319 9.64062 11.6319 9.64062L8.19912 12.3016Z" fill="#B55E19"/>
<path d="M15.9585 3.95312C15.7554 4.29844 15.796 4.84687 16.06 5.17187C17.7866 7.18281 19.0663 10.6359 19.4116 11.875C19.5132 12.2406 19.696 12.9719 19.7366 13.6422C19.8382 15.6328 19.635 19.025 19.4116 21.9703C19.3913 22.3359 19.6147 22.8844 19.7569 23.1281L20.9147 22.3156L21.1991 12.2609L17.8679 5.11094L15.9585 3.95312Z" fill="#B55E19"/>
</g>
</svg>
