<svg width="27" height="27" viewBox="0 0 27 27" fill="none" xmlns="http://www.w3.org/2000/svg">
<g clip-path="url(#clip0_291_3165)">
<path d="M13.418 24.6313C7.75078 24.6313 1.63672 21.0766 1.63672 13.2766C1.63672 5.47656 7.75078 1.92188 13.418 1.92188C16.5664 1.92188 19.4711 2.95781 21.6242 4.84687C23.9602 6.91875 25.1992 9.84375 25.1992 13.2766C25.1992 16.7094 23.9602 19.6141 21.6242 21.6859C19.4711 23.575 16.5461 24.6313 13.418 24.6313Z" fill="url(#paint0_radial_291_3165)"/>
<path d="M23.147 6.52661C24.2297 8.27349 24.7944 10.3535 24.7944 12.6671C24.7944 16.0999 23.5553 19.0046 21.2194 21.0765C19.0662 22.9655 16.1412 24.0218 13.0131 24.0218C9.34469 24.0218 5.4975 22.5288 3.22656 19.3621C5.41219 22.9493 9.52344 24.6311 13.4194 24.6311C16.5475 24.6311 19.4725 23.5749 21.6256 21.6858C23.9616 19.614 25.2006 16.7093 25.2006 13.2765C25.2006 10.6886 24.4958 8.38927 23.147 6.52661Z" fill="#EB8F00"/>
<path d="M13.5004 0.5C6.79727 0.5 1.35352 1.87516 1.35352 3.57125C1.35352 5.26734 4.43695 7.05078 13.5004 7.05078C22.0641 7.05078 25.6371 5.26937 25.6371 3.57125C25.6371 1.87313 20.2035 0.5 13.5004 0.5ZM13.5004 4.855C8.31664 4.855 4.11195 4.44875 4.11195 3.44938C4.11195 2.45 8.31664 1.41812 13.5004 1.41812C18.6841 1.41812 22.8888 2.45812 22.8888 3.45953C22.8888 4.46094 18.676 4.855 13.5004 4.855Z" fill="#4FC3F7"/>
<path d="M13.2973 19.1084C11.4549 19.1226 9.69588 18.3487 8.46291 16.9796C8.36947 16.872 8.34713 16.7196 8.40603 16.5896C8.46494 16.4576 8.59494 16.3723 8.73916 16.3702C8.80416 16.3702 8.86916 16.3885 8.92603 16.421C9.9051 16.9837 11.5423 17.6824 13.2973 17.6824H13.3257C15.0787 17.6824 16.7179 16.9837 17.6949 16.421C17.7518 16.3885 17.8168 16.3702 17.8818 16.3702C18.026 16.3723 18.156 16.4576 18.2149 16.5896C18.2759 16.7196 18.2535 16.872 18.1581 16.9796C17.5481 17.6566 16.8014 18.1964 15.9674 18.5634C15.1333 18.9303 14.2308 19.1161 13.3196 19.1084M10.4535 12.0559L10.4231 12.0152L10.3357 11.9035L10.2281 11.7877C10.1834 11.737 10.1306 11.6882 10.0798 11.6354C10.029 11.5826 9.96603 11.5318 9.90916 11.4892C9.85635 11.4485 9.79947 11.4099 9.73853 11.3795C9.69791 11.3571 9.65322 11.3388 9.6065 11.3287C9.59236 11.3265 9.57798 11.3265 9.56385 11.3287H9.52931H9.58416H9.47244C9.44197 11.3287 9.46228 11.3287 9.47244 11.3287H9.48869H9.46635C9.41963 11.3388 9.37494 11.3551 9.33228 11.3795C9.27338 11.412 9.21447 11.4485 9.16166 11.4892C9.10275 11.5338 9.04588 11.5826 8.99307 11.6354C8.88541 11.739 8.78994 11.8385 8.729 11.9177L8.62338 12.0396L8.57666 12.0945C8.43517 12.2523 8.24034 12.3522 8.02961 12.3751C7.81889 12.398 7.60715 12.3422 7.4351 12.2184C7.32366 12.1408 7.23647 12.0332 7.18363 11.9081C7.13078 11.783 7.11444 11.6455 7.1365 11.5115C7.1365 11.5115 7.15072 11.4302 7.18931 11.286C7.25025 11.0809 7.33556 10.8818 7.44322 10.6949C7.61588 10.3902 7.84947 10.1242 8.12978 9.9129C8.31463 9.77071 8.51978 9.65696 8.73916 9.57774C8.8001 9.55337 8.86306 9.53509 8.92603 9.51884C8.99306 9.49853 9.0601 9.48431 9.12916 9.47212L9.25306 9.45384L9.35666 9.44165H9.73244C9.8015 9.44165 9.86853 9.45993 9.93556 9.47009C10.0656 9.49243 10.1956 9.52696 10.3195 9.57368C10.5388 9.6529 10.744 9.76665 10.9288 9.90884C11.2092 10.1201 11.4428 10.3862 11.6154 10.6909C11.6784 10.7965 11.7332 10.9082 11.7779 11.022C11.8165 11.1134 11.849 11.2048 11.8754 11.3002C11.8896 11.349 11.9018 11.3977 11.9079 11.4465V11.4973C11.9688 11.9117 11.6804 12.2976 11.266 12.3585C11.2559 12.3606 11.2457 12.3606 11.2356 12.3626C10.939 12.4052 10.6424 12.2874 10.4535 12.0559ZM18.4688 12.0559L18.4363 12.0152L18.349 11.9035L18.2413 11.7877C18.1967 11.737 18.1438 11.6882 18.0931 11.6354C18.0423 11.5826 17.9793 11.5318 17.9224 11.4892C17.8696 11.4485 17.8128 11.4099 17.7518 11.3795C17.7112 11.3571 17.6665 11.3388 17.6198 11.3287C17.6056 11.3265 17.5913 11.3265 17.5771 11.3287H17.5426H17.5974H17.4857C17.4553 11.3287 17.4756 11.3287 17.4857 11.3287H17.502H17.4796C17.4329 11.3388 17.3882 11.3551 17.3456 11.3795C17.2867 11.4099 17.2298 11.4485 17.177 11.4892C17.116 11.5338 17.0592 11.5826 17.0063 11.6354C16.8987 11.739 16.8032 11.8385 16.7423 11.9177L16.6367 12.0396L16.592 12.0945C16.45 12.2523 16.2549 12.3522 16.0439 12.375C15.8328 12.3979 15.6208 12.3421 15.4484 12.2184C15.3369 12.1408 15.2497 12.0332 15.1969 11.9081C15.1441 11.783 15.1277 11.6455 15.1498 11.5115C15.1498 11.5115 15.164 11.4302 15.2046 11.286C15.2656 11.0788 15.3488 10.8798 15.4585 10.6949C15.6312 10.3902 15.8628 10.1242 16.1431 9.9129C16.3279 9.77071 16.5331 9.65696 16.7524 9.57774C16.8134 9.55337 16.8763 9.53509 16.9393 9.51884C17.0063 9.49853 17.0734 9.48431 17.1424 9.47212L17.2684 9.45384L17.3699 9.44165H17.7457C17.8148 9.44165 17.8818 9.45993 17.9488 9.47009C18.0809 9.49243 18.2088 9.52696 18.3328 9.57368C18.5521 9.6529 18.7573 9.76665 18.9421 9.90884C19.2224 10.1201 19.456 10.3862 19.6287 10.6909C19.6917 10.7965 19.7465 10.9082 19.7912 11.022C19.8298 11.1113 19.8623 11.2027 19.8887 11.2962C19.9029 11.3449 19.9151 11.3937 19.9212 11.4424V11.4932C19.9521 11.6923 19.9028 11.8955 19.7839 12.0581C19.6651 12.2208 19.4865 12.3296 19.2874 12.3606C19.2813 12.3606 19.2753 12.3626 19.2692 12.3626C18.9665 12.4134 18.6598 12.2956 18.4688 12.0559Z" fill="#422B0D"/>
</g>
<defs>
<radialGradient id="paint0_radial_291_3165" cx="0" cy="0" r="1" gradientUnits="userSpaceOnUse" gradientTransform="translate(13.418 13.2766) scale(11.57)">
<stop offset="0.5" stop-color="#FDE030"/>
<stop offset="0.92" stop-color="#F7C02B"/>
<stop offset="1" stop-color="#F4A223"/>
</radialGradient>
<clipPath id="clip0_291_3165">
<rect width="26" height="26" fill="white" transform="translate(0.5 0.5)"/>
</clipPath>
</defs>
</svg>
