<svg width="27" height="27" viewBox="0 0 27 27" fill="none" xmlns="http://www.w3.org/2000/svg">
<path d="M13.418 25.0594C7.75078 25.0594 1.63672 21.368 1.63672 13.268C1.63672 5.16797 7.75078 1.47656 13.418 1.47656C16.5664 1.47656 19.4711 2.55234 21.6242 4.51406C23.9602 6.66563 25.1992 9.70312 25.1992 13.268C25.1992 16.8328 23.9602 19.8492 21.6242 22.0008C19.4711 23.9625 16.5461 25.0594 13.418 25.0594Z" fill="url(#paint0_radial_291_3048)"/>
<path d="M23.147 6.25854C24.2297 8.07261 24.7944 10.2326 24.7944 12.6352C24.7944 16.2 23.5553 19.2164 21.2194 21.368C19.0662 23.3297 16.1412 24.4266 13.0131 24.4266C9.34469 24.4266 5.4975 22.8762 3.22656 19.5877C5.41219 23.3128 9.52344 25.0594 13.4194 25.0594C16.5475 25.0594 19.4725 23.9625 21.6256 22.0008C23.9616 19.8492 25.2006 16.8328 25.2006 13.268C25.2006 10.5807 24.4958 8.19284 23.147 6.25854Z" fill="#EB8F00"/>
<path d="M13.5815 17.5711C12.8543 17.5711 12.1332 17.4445 11.4487 17.1914C10.6057 16.8898 9.68963 17.3559 9.39916 18.2292C9.23463 18.7228 9.30166 19.267 9.57994 19.7016C10.4534 21.0937 11.8346 21.8531 13.5815 21.8531C15.3284 21.8531 16.7096 21.0937 17.5831 19.7016C18.0767 18.9316 17.8735 17.8917 17.1321 17.3791C16.9257 17.2365 16.6903 17.1453 16.4444 17.1128C16.1985 17.0802 15.9486 17.1071 15.7143 17.1914C15.0298 17.4445 14.3087 17.5711 13.5815 17.5711Z" fill="#422B0D"/>
<path opacity="0.8" d="M7.44727 18.8157C9.41047 18.8157 11.002 17.2574 11.002 15.3352C11.002 13.413 9.41047 11.8547 7.44727 11.8547C5.48407 11.8547 3.89258 13.413 3.89258 15.3352C3.89258 17.2574 5.48407 18.8157 7.44727 18.8157Z" fill="url(#paint1_radial_291_3048)"/>
<path opacity="0.8" d="M19.7148 18.8157C21.678 18.8157 23.2695 17.2574 23.2695 15.3352C23.2695 13.413 21.678 11.8547 19.7148 11.8547C17.7516 11.8547 16.1602 13.413 16.1602 15.3352C16.1602 17.2574 17.7516 18.8157 19.7148 18.8157Z" fill="url(#paint2_radial_291_3048)"/>
<path d="M22.3549 7.24999C20.6873 6.76273 19.4624 8.17812 19.4624 8.17812C19.4624 8.17812 19.3202 6.57289 17.8943 6.06875C16.184 5.45914 14.3782 6.42945 14.2706 8.94593C14.1487 11.8126 17.8009 15.5757 17.8009 15.5757C17.8009 15.5757 22.3346 14.3101 23.8195 11.6269C25.0281 9.44374 23.6163 7.61703 22.3549 7.24999Z" fill="#F44336"/>
<path d="M22.3535 7.24997C22.1489 7.19348 21.9376 7.1672 21.7259 7.17192C22.3228 7.58663 22.7957 8.16689 23.0909 8.84677C23.3773 9.56185 23.4524 10.4858 22.908 11.589C21.7279 13.9873 18.094 15.4723 17.8299 15.5757C18.161 15.4786 22.3982 14.213 23.8262 11.6333C25.0266 9.44372 23.6149 7.617 22.3535 7.24997ZM19.459 8.43755C19.4468 8.21817 19.4143 7.9988 19.3655 7.78364C19.3071 7.47668 19.1863 7.18619 19.0112 6.93156C18.836 6.67694 18.6106 6.46404 18.3499 6.30708C17.9884 6.0877 17.5882 5.94849 17.1738 5.89575C17.1738 5.89575 17.7832 6.0877 18.2179 6.9631C18.4393 7.42294 18.5713 7.92497 18.6038 8.43755C18.6018 8.62528 18.6343 8.8088 18.6993 8.98388C18.7724 9.15895 18.9512 9.26231 19.134 9.23278C19.4123 9.15895 19.4732 8.79825 19.459 8.43755Z" fill="#C62828"/>
<path d="M15.5114 7.43135C15.8912 6.94198 16.5148 6.47581 17.112 6.90612C17.4289 7.13604 17.433 7.78784 17.045 8.08104C16.3909 8.57885 16.3605 8.90581 16.2873 9.18003C16.198 9.50698 16.1411 9.89721 15.8547 10.0617C15.5683 10.2263 15.3164 10.0617 15.1661 9.59135C14.9101 8.85729 15.0401 8.03885 15.5114 7.43135Z" fill="#FF847A"/>
<path d="M8.77123 6.02658C7.12388 6.58135 6.85982 8.46502 6.85982 8.46502C6.85982 8.46502 5.88482 7.19939 4.42232 7.60861C2.67748 8.08533 1.69232 9.93314 2.93748 12.0868C4.37966 14.5548 9.42529 15.5778 9.42529 15.5778C9.42529 15.5778 12.5229 11.916 12.3279 8.82783C12.1675 6.31345 10.0164 5.60681 8.77123 6.02658Z" fill="#F44336"/>
<path d="M8.77125 6.02659C8.57016 6.09409 8.37719 6.19112 8.20047 6.31347C8.91953 6.31558 9.62234 6.52651 10.2317 6.92308C10.8533 7.34495 11.4078 8.07901 11.5459 9.313C11.8445 11.9898 9.61016 15.3163 9.4375 15.5589C9.66297 15.2889 12.5128 11.7957 12.3259 8.82573C12.1675 6.31347 10.0164 5.60683 8.77125 6.02659ZM7 8.68651C6.87406 8.50722 6.73188 8.34269 6.57344 8.19503C6.14688 7.74362 5.55578 7.50315 4.94844 7.5369C4.53203 7.56222 4.12375 7.67401 3.75 7.87019C3.75 7.87019 4.35938 7.67823 5.18813 8.15917C5.62078 8.41862 5.99656 8.76667 6.29719 9.18011C6.39469 9.33831 6.52063 9.47331 6.66891 9.58089C6.82328 9.68425 7.02641 9.66526 7.1625 9.53659C7.34328 9.30878 7.20313 8.9755 7 8.68651Z" fill="#C62828"/>
<path d="M3.18059 10.125C3.18872 9.94786 3.21919 9.77278 3.26997 9.60403C3.35325 9.24966 3.59497 8.95646 3.91794 8.81513C4.22872 8.71388 4.65934 8.7856 4.8259 9.10833C4.97419 9.3952 4.86653 9.74114 4.78528 10.0575C4.71216 10.4204 4.67153 10.7916 4.66341 11.1629C4.66449 11.3085 4.60995 11.4487 4.51172 11.5527C4.4135 11.6566 4.2796 11.716 4.13934 11.7176C3.86309 11.7176 3.64778 11.4687 3.49341 11.2304C3.27811 10.9061 3.16849 10.5187 3.18059 10.125Z" fill="#FF847A"/>
<defs>
<radialGradient id="paint0_radial_291_3048" cx="0" cy="0" r="1" gradientUnits="userSpaceOnUse" gradientTransform="translate(13.418 13.268) scale(11.57 12.015)">
<stop offset="0.5" stop-color="#FDE030"/>
<stop offset="0.92" stop-color="#F7C02B"/>
<stop offset="1" stop-color="#F4A223"/>
</radialGradient>
<radialGradient id="paint1_radial_291_3048" cx="0" cy="0" r="1" gradientUnits="userSpaceOnUse" gradientTransform="translate(7.44729 13.7343) scale(3.87396 3.61245)">
<stop stop-color="#ED7770"/>
<stop offset="0.9" stop-color="#ED7770" stop-opacity="0"/>
</radialGradient>
<radialGradient id="paint2_radial_291_3048" cx="0" cy="0" r="1" gradientUnits="userSpaceOnUse" gradientTransform="translate(25.508 533.163) scale(3.95281 4.10484)">
<stop stop-color="#ED7770"/>
<stop offset="0.9" stop-color="#ED7770" stop-opacity="0"/>
</radialGradient>
</defs>
</svg>
