<svg width="26" height="26" viewBox="0 0 26 26" fill="none" xmlns="http://www.w3.org/2000/svg">
<path d="M12.918 24.1313C7.25078 24.1313 1.13672 20.5766 1.13672 12.7766C1.13672 4.97656 7.25078 1.42188 12.918 1.42188C16.0664 1.42188 18.9711 2.45781 21.1242 4.34687C23.4602 6.41875 24.6992 9.34375 24.6992 12.7766C24.6992 16.2094 23.4602 19.1141 21.1242 21.1859C18.9711 23.075 16.0461 24.1313 12.918 24.1313Z" fill="url(#paint0_radial_291_3178)"/>
<path d="M12.918 24.1313C7.25078 24.1313 1.13672 20.5766 1.13672 12.7766C1.13672 4.97656 7.25078 1.42188 12.918 1.42188C16.0664 1.42188 18.9711 2.45781 21.1242 4.34687C23.4602 6.41875 24.6992 9.34375 24.6992 12.7766C24.6992 16.2094 23.4602 19.1141 21.1242 21.1859C18.9711 23.075 16.0461 24.1313 12.918 24.1313Z" fill="url(#paint1_linear_291_3178)"/>
<path d="M22.647 6.02661C23.7297 7.77349 24.2944 9.85349 24.2944 12.1671C24.2944 15.5999 23.0553 18.5046 20.7194 20.5765C18.5662 22.4655 15.6412 23.5218 12.5131 23.5218C8.84469 23.5218 4.98938 22.0288 2.72656 18.8621C4.91219 22.4493 9.02141 24.1311 12.9194 24.1311C16.0475 24.1311 18.9725 23.0749 21.1256 21.1858C23.4616 19.114 24.7006 16.2093 24.7006 12.7765C24.7006 10.1886 23.9958 7.88927 22.647 6.02661Z" fill="#EB8F00"/>
<path opacity="0.8" d="M6.03359 16.3313C7.86217 16.3313 9.34453 14.849 9.34453 13.0204C9.34453 11.1918 7.86217 9.70947 6.03359 9.70947C4.20501 9.70947 2.72266 11.1918 2.72266 13.0204C2.72266 14.849 4.20501 16.3313 6.03359 16.3313Z" fill="url(#paint2_radial_291_3178)"/>
<path opacity="0.8" d="M19.682 13.7718C21.5106 13.7718 22.993 12.2894 22.993 10.4608C22.993 8.63226 21.5106 7.1499 19.682 7.1499C17.8535 7.1499 16.3711 8.63226 16.3711 10.4608C16.3711 12.2894 17.8535 13.7718 19.682 13.7718Z" fill="url(#paint3_radial_291_3178)"/>
<path d="M19.6828 10.0345C18.1188 11.4767 16.0469 12.6142 13.65 13.1626C11.2531 13.711 8.8969 13.6095 6.86565 12.9798C6.50002 12.8579 6.23596 13.3454 6.56096 13.5892C8.61252 15.1126 11.3547 15.7626 14.0969 15.1126C16.8391 14.4829 19.0328 12.7157 20.211 10.4407C20.4141 10.0954 19.9672 9.77041 19.6828 10.0345ZM9.85159 9.5876L9.81096 9.54697C9.79065 9.52666 9.75003 9.50635 9.7094 9.46572C9.66877 9.44541 9.62815 9.40479 9.58753 9.38447C9.5469 9.34385 9.48596 9.30322 9.42503 9.2626C9.36409 9.22197 9.30315 9.18135 9.24221 9.16104C9.18127 9.12041 9.12034 9.1001 9.0594 9.1001C8.99846 9.07979 8.95784 9.07979 8.93752 9.07979H8.87659H8.91721L8.81565 9.1001C8.79534 9.12041 8.75471 9.14072 8.71409 9.16104C8.67346 9.20166 8.61252 9.24229 8.5719 9.28291C8.53128 9.32354 8.49065 9.38447 8.45002 9.44541C8.36877 9.56729 8.30784 9.66885 8.26721 9.7501C8.20628 9.87197 8.18596 9.87197 8.18596 9.87197L8.14534 9.95322C7.94221 10.2985 7.49534 10.4407 7.12971 10.2579C6.88596 10.136 6.74377 9.9126 6.72346 9.66885V9.44541C6.74377 9.30322 6.76409 9.1001 6.84534 8.85635C6.92659 8.6126 7.06877 8.30791 7.33284 8.02354C7.47502 7.88135 7.63752 7.71885 7.84065 7.61729C7.88127 7.57666 7.94221 7.55635 8.00315 7.53604C8.06409 7.51572 8.10471 7.4751 8.18596 7.45479L8.28752 7.41416C8.32815 7.39385 8.36877 7.39385 8.38909 7.39385L8.49065 7.37354L8.55159 7.35322H8.63284L8.7344 7.33291H8.91721C9.03909 7.33291 9.16096 7.33291 9.28284 7.35322C9.52659 7.39385 9.72971 7.4751 9.91252 7.55635C10.2781 7.73916 10.5016 7.9626 10.6844 8.14541C10.7656 8.24697 10.8469 8.32822 10.8875 8.40947C10.9485 8.49072 10.9891 8.57197 11.0297 8.63291C11.0703 8.69385 11.0703 8.73447 11.0906 8.75479C11.0906 8.7751 11.111 8.79541 11.111 8.79541C11.2532 9.16104 11.05 9.56729 10.6438 9.70947C10.3594 9.81104 10.0547 9.7501 9.85159 9.5876ZM16.8188 8.22666L16.7781 8.18604C16.7578 8.16572 16.7172 8.14541 16.6766 8.10479C16.636 8.08447 16.5953 8.04385 16.5547 8.02354C16.5141 7.98291 16.4531 7.94229 16.3922 7.90166C16.3313 7.86104 16.2703 7.82041 16.2094 7.8001C16.1485 7.75947 16.0875 7.73916 16.0266 7.73916C15.986 7.71885 15.9453 7.71885 15.925 7.71885H15.8641H15.9047L15.8032 7.73916C15.7828 7.75947 15.7422 7.77979 15.6813 7.8001C15.6406 7.84072 15.6 7.88135 15.5391 7.92197C15.4985 7.9626 15.4578 8.02354 15.4172 8.08447C15.336 8.20635 15.275 8.30791 15.2344 8.38916C15.1938 8.47041 15.1531 8.51104 15.1531 8.51104L15.1125 8.57197C14.9094 8.91729 14.4625 9.05947 14.0969 8.87666C13.8532 8.75479 13.711 8.53135 13.6907 8.2876C13.6907 8.2876 13.6906 8.20635 13.711 8.06416C13.7313 7.92197 13.7516 7.71885 13.8328 7.4751C13.9141 7.23135 14.0563 6.92666 14.3203 6.64229C14.4625 6.5001 14.625 6.3376 14.8281 6.23604C14.8688 6.21572 14.9297 6.1751 14.9907 6.15479C15.0516 6.13447 15.0922 6.09385 15.1735 6.07354L15.2953 6.03291C15.336 6.0126 15.3766 6.0126 15.3969 6.0126L15.4985 5.99229L15.5594 5.97197H15.6406L15.7422 5.95166H15.925C16.0469 5.95166 16.1688 5.95166 16.2906 5.97197C16.5344 6.0126 16.7375 6.09385 16.9203 6.1751C17.286 6.35791 17.5094 6.58135 17.6922 6.76416C17.7735 6.86572 17.8547 6.94697 17.8953 7.02822C17.9563 7.10947 17.9969 7.19072 18.0375 7.25166C18.0782 7.3126 18.0781 7.35322 18.0985 7.37354C18.1188 7.39385 18.1188 7.41416 18.1188 7.41416C18.261 7.77979 18.0578 8.18604 17.6516 8.32822C17.3266 8.47041 17.0219 8.40947 16.8188 8.22666Z" fill="#422B0D"/>
<path d="M8.70766 16.7841C8.65687 16.2784 8.67922 15.9899 8.29125 15.8985C7.85656 15.797 7.46859 16.1077 7.35078 16.5526C7.04 17.7429 7.56812 18.5737 7.56812 18.5737C6.81656 18.4254 6.18891 17.6942 6.18891 17.6942C5.79687 17.2331 5.24437 16.0874 4.8625 15.6162C4.63094 15.3298 4.25109 15.0962 3.87328 15.2932C2.96734 15.7685 3.97078 17.3854 4.30797 17.816C4.69187 18.3056 3.31062 16.7395 3.1075 16.3982C2.72969 15.7645 2.26656 15.5959 1.87859 15.927C1.49062 16.256 1.80141 17.0787 1.97812 17.3915C3.06078 19.2907 4.00531 19.7559 4.00531 19.7559C4.00531 19.7559 2.99984 19.2724 2.14266 18.2345C1.33422 17.2554 0.566406 18.2893 1.10469 19.1587C1.21844 19.3435 1.43578 19.8209 2.13453 20.4242C2.32141 20.609 2.67078 20.8873 2.13453 20.4242C1.41953 19.7193 0.657812 20.4709 0.887343 21.0863C1.15344 21.7952 2.02078 22.4513 2.60781 22.886C3.74937 23.731 5.17328 24.4074 6.61547 24.3607C8.22016 24.3099 9.40438 23.6417 9.75984 21.6571C9.92437 20.7349 9.41047 19.3212 9.25813 18.9596C8.76047 17.7896 8.73609 17.0706 8.70766 16.7841Z" fill="url(#paint4_radial_291_3178)"/>
<path d="M7.09642 21.7221C6.88111 21.4194 6.27377 20.0138 7.4072 18.5757L7.73627 18.7829C6.45252 20.3672 7.35033 21.7201 7.50674 22.0268C7.50674 22.0268 7.30158 22.0126 7.09642 21.7221Z" fill="#EB8F00"/>
<path d="M9.38404 18.8297C8.88029 17.8527 8.84373 17.3449 8.8092 16.7883C8.77061 16.3861 8.74217 15.8884 8.2567 15.7747C8.04951 15.7259 7.76107 15.7544 7.50514 16.0367C6.86529 16.7477 7.37514 18.4011 7.37514 18.4011C6.45498 17.9705 6.3006 17.5906 5.64857 16.6095C5.3642 16.1789 4.91123 15.3827 4.49686 15.1511C4.20029 14.9845 3.76154 15.1084 3.54217 15.405C3.04857 16.0672 3.92811 17.4099 3.92811 17.4099C3.92811 17.4099 3.44264 16.703 3.23139 16.3333C2.87186 15.7056 2.21373 15.3583 1.72826 15.795C0.936074 16.508 2.47576 18.4255 2.47576 18.4255C2.47576 18.4255 1.76686 17.3022 1.05998 17.7775C0.692324 18.0253 0.548105 18.6713 0.92998 19.2928C1.09857 19.5752 1.52717 20.0749 1.52717 20.0749C1.52717 20.0749 1.35451 19.9652 1.06607 20.0586C0.745136 20.1642 0.470918 20.5624 0.704511 21.1839C0.974668 21.9111 1.77498 22.5408 2.5042 23.0669C4.16373 24.2653 6.10357 24.3384 6.10357 24.3384C6.10357 24.3384 3.97686 23.9302 2.61592 22.6911C2.18936 22.3031 0.499355 21.123 1.10264 20.5095C1.24482 20.3633 1.50482 20.2902 1.88873 20.5949C3.23951 21.6714 3.7006 21.4216 3.7006 21.4216C3.74935 21.2347 3.61529 21.1555 3.2131 20.9178C2.93482 20.7533 2.55295 20.5278 2.27061 20.2861C1.57795 19.6869 0.795918 18.6449 1.22451 18.1817C1.45404 17.9339 1.72014 17.9867 1.97811 18.2528C3.77373 20.085 4.19623 19.827 4.19623 19.827C4.19623 19.827 4.25107 19.628 3.68436 19.1303C3.24967 18.7505 2.71545 18.2813 2.05529 17.1316C1.88061 16.8269 1.79123 16.2845 2.04717 16.0713C2.39248 15.7788 2.71139 15.9717 2.99779 16.4003C3.34717 16.9224 3.84279 17.5642 4.33639 18.0375C4.93357 18.6083 5.25451 18.783 5.27482 18.7627C5.41701 18.6083 4.8056 18.0091 4.53342 17.6353C3.57467 16.313 3.58889 15.8783 3.78795 15.535C3.91389 15.3177 4.26123 15.2202 4.67967 15.7463C5.58154 16.7863 6.03654 18.4783 7.73467 18.7789C7.73467 18.7789 7.79967 18.6774 7.64732 18.1269C7.46451 17.552 7.43404 17.0625 7.52748 16.6339C7.63107 16.1606 8.01092 16.0266 8.22014 16.0774C8.50045 16.1444 8.46795 16.6156 8.46795 16.6156C8.46795 16.6156 8.4842 16.7883 8.49232 16.8675C8.52482 17.2088 8.59186 17.9197 9.06311 19.0166C9.25201 19.4553 10.2595 21.2591 8.89451 23.5158C8.89451 23.5158 9.47342 23.6641 10.1376 23.8184C10.1376 23.8184 10.3997 22.8942 10.2778 21.4581C10.1295 19.6524 9.72326 19.4878 9.38404 18.8297Z" fill="#EB8F00"/>
<path d="M0.111328 20.8548C0.117422 20.7979 0.125547 20.7492 0.135703 20.7065C0.121484 20.7533 0.113359 20.802 0.111328 20.8548Z" fill="url(#paint5_radial_291_3178)"/>
<path d="M17.1077 16.7842C17.1585 16.2784 17.1382 16.0002 17.5241 15.8986C17.9385 15.7909 18.3387 16.1098 18.4646 16.5527C18.7551 17.5927 18.1985 18.5738 18.1985 18.5738C18.9501 18.4255 19.5879 17.7044 19.5879 17.7044C19.9799 17.2433 20.573 16.0875 20.9529 15.6163C21.1844 15.3298 21.4587 15.145 21.8568 15.2913C22.6794 15.5959 21.8202 17.2616 21.483 17.6942C21.0991 18.1838 21.3429 18.1045 21.8588 17.5378C22.3768 16.967 22.651 16.6441 22.8541 16.3048C23.2319 15.6711 23.6849 15.7198 23.9368 15.927C24.3308 16.252 24.014 17.0788 23.8373 17.3916C22.7546 19.2908 23.6727 18.2345 23.6727 18.2345C24.4812 17.2555 25.249 18.2894 24.7107 19.1588C24.5969 19.3436 24.3796 19.8209 23.6809 20.4242C23.1446 20.8873 23.494 20.6091 23.6809 20.4242C24.3959 19.7194 25.1576 20.4709 24.928 21.0864C24.6619 21.7953 23.7946 22.4514 23.2076 22.8861C22.066 23.7311 20.6421 24.4075 19.1999 24.3608C17.5952 24.31 16.411 23.6417 16.0555 21.6572C15.891 20.735 16.4049 19.3213 16.5573 18.9597C17.0549 17.7897 17.0793 17.0706 17.1077 16.7842Z" fill="url(#paint6_radial_291_3178)"/>
<path d="M18.718 21.7221C18.9333 21.4194 19.5406 20.0138 18.4072 18.5757L18.0781 18.7829C19.3619 20.3672 18.4641 21.7201 18.3077 22.0268C18.3077 22.0268 18.5128 22.0126 18.718 21.7221Z" fill="#EB8F00"/>
<path d="M16.4301 18.8297C16.9338 17.8527 16.9704 17.3449 17.0049 16.7883C17.0435 16.3861 17.0719 15.8884 17.5574 15.7747C17.7646 15.7259 18.053 15.7544 18.309 16.0367C18.9488 16.7477 18.439 18.4011 18.439 18.4011C19.3591 17.9705 19.5135 17.5906 20.1655 16.6095C20.4499 16.1789 20.9029 15.3827 21.3172 15.1511C21.6138 14.9845 22.0526 15.1084 22.2719 15.405C22.7655 16.0672 21.886 17.4099 21.886 17.4099C21.886 17.4099 22.3715 16.703 22.5827 16.3333C22.9422 15.7056 23.6004 15.3583 24.0858 15.795C24.878 16.508 23.3383 18.4255 23.3383 18.4255C23.3383 18.4255 24.0472 17.3022 24.7541 17.7775C25.1218 18.0253 25.266 18.6713 24.8841 19.2928C24.7155 19.5752 24.2869 20.0749 24.2869 20.0749C24.2869 20.0749 24.4596 19.9652 24.748 20.0586C25.069 20.1642 25.3432 20.5624 25.1096 21.1839C24.8394 21.9111 24.0391 22.5408 23.3099 23.0669C21.6504 24.2653 19.7105 24.3384 19.7105 24.3384C19.7105 24.3384 21.8372 23.9302 23.1982 22.6911C23.6247 22.3031 25.3147 21.123 24.7115 20.5095C24.5693 20.3633 24.3093 20.2902 23.9254 20.5949C22.5746 21.6714 22.1135 21.4216 22.1135 21.4216C22.0647 21.2347 22.1988 21.1555 22.601 20.9178C22.8793 20.7533 23.2612 20.5278 23.5435 20.2861C24.2362 19.6869 25.0182 18.6449 24.5896 18.1817C24.3601 17.9339 24.094 17.9867 23.836 18.2528C22.0404 20.085 21.6179 19.827 21.6179 19.827C21.6179 19.827 21.563 19.628 22.1297 19.1303C22.5644 18.7505 23.0987 18.2813 23.7588 17.1316C23.9335 16.8269 24.0229 16.2845 23.7669 16.0713C23.4216 15.7788 23.1027 15.9717 22.8163 16.4003C22.4669 16.9224 21.9713 17.5642 21.4777 18.0375C20.8805 18.6083 20.5596 18.783 20.5393 18.7627C20.3971 18.6083 21.0085 18.0091 21.2807 17.6353C22.2394 16.313 22.2252 15.8783 22.0262 15.535C21.9002 15.3177 21.5529 15.2202 21.1344 15.7463C20.2285 16.7903 19.7735 18.4824 18.0774 18.783C18.0774 18.783 18.0124 18.6814 18.1647 18.1309C18.3476 17.5561 18.378 17.0666 18.2846 16.638C18.181 16.1647 17.8012 16.0306 17.5919 16.0814C17.3116 16.1484 17.3441 16.6197 17.3441 16.6197C17.3441 16.6197 17.3279 16.7924 17.3197 16.8716C17.2872 17.2128 17.2202 17.9238 16.749 19.0206C16.5601 19.4594 15.5505 21.2814 16.9176 23.5199C16.9176 23.5199 16.3387 23.6681 15.6744 23.8225C15.6744 23.8225 15.4124 22.8983 15.5343 21.4622C15.6846 19.6524 16.0908 19.4878 16.4301 18.8297Z" fill="#EB8F00"/>
<path d="M25.7041 20.8548C25.698 20.7979 25.6898 20.7492 25.6797 20.7065C25.6939 20.7533 25.702 20.802 25.7041 20.8548Z" fill="url(#paint7_radial_291_3178)"/>
<defs>
<radialGradient id="paint0_radial_291_3178" cx="0" cy="0" r="1" gradientUnits="userSpaceOnUse" gradientTransform="translate(12.918 12.7766) scale(11.57)">
<stop offset="0.5" stop-color="#FDE030"/>
<stop offset="0.919" stop-color="#F7C02B"/>
<stop offset="1" stop-color="#F4A223"/>
</radialGradient>
<linearGradient id="paint1_linear_291_3178" x1="12.918" y1="24.1313" x2="12.918" y2="1.42188" gradientUnits="userSpaceOnUse">
<stop offset="0.158" stop-color="#F4A223"/>
<stop offset="0.333" stop-color="#F7C02B"/>
<stop offset="0.807" stop-color="#FDE030" stop-opacity="0"/>
</linearGradient>
<radialGradient id="paint2_radial_291_3178" cx="0" cy="0" r="1" gradientUnits="userSpaceOnUse" gradientTransform="translate(6.02657 13.0218) rotate(-10.6121) scale(3.6029 3.42282)">
<stop stop-color="#ED7770"/>
<stop offset="0.9" stop-color="#ED7770" stop-opacity="0"/>
</radialGradient>
<radialGradient id="paint3_radial_291_3178" cx="0" cy="0" r="1" gradientUnits="userSpaceOnUse" gradientTransform="translate(19.6835 10.4679) rotate(-10.6121) scale(3.6025 3.42244)">
<stop stop-color="#ED7770"/>
<stop offset="0.9" stop-color="#ED7770" stop-opacity="0"/>
</radialGradient>
<radialGradient id="paint4_radial_291_3178" cx="0" cy="0" r="1" gradientUnits="userSpaceOnUse" gradientTransform="translate(6.57423 19.1083) scale(7.82295)">
<stop offset="0.33" stop-color="#FFF176"/>
<stop offset="1" stop-color="#FFC400"/>
</radialGradient>
<radialGradient id="paint5_radial_291_3178" cx="0" cy="0" r="1" gradientUnits="userSpaceOnUse" gradientTransform="translate(5.92802 19.0665) scale(7.90238 7.90233)">
<stop offset="0.33" stop-color="#FFF176"/>
<stop offset="1" stop-color="#FFC400"/>
</radialGradient>
<radialGradient id="paint6_radial_291_3178" cx="0" cy="0" r="1" gradientUnits="userSpaceOnUse" gradientTransform="translate(19.2414 19.1191) rotate(180) scale(7.81117)">
<stop offset="0.33" stop-color="#FFF176"/>
<stop offset="1" stop-color="#FFC400"/>
</radialGradient>
<radialGradient id="paint7_radial_291_3178" cx="0" cy="0" r="1" gradientUnits="userSpaceOnUse" gradientTransform="translate(19.8872 19.0665) rotate(180) scale(7.90256 7.90233)">
<stop offset="0.33" stop-color="#FFF176"/>
<stop offset="1" stop-color="#FFC400"/>
</radialGradient>
</defs>
</svg>
