<svg width="27" height="27" viewBox="0 0 27 27" fill="none" xmlns="http://www.w3.org/2000/svg">
<path d="M14.5768 6.68668C16.8925 6.2859 20.9956 6.9609 23.6768 5.08356C24.0221 4.83043 24.205 5.06247 24.2862 5.16793C24.9362 6.03278 25.6471 11.1797 25.2815 12.4875C25.18 12.8461 25.0378 12.9515 24.855 13.0781C24.4284 13.4156 23.0268 14.5125 21.6253 16.4531C21.9909 17.107 21.869 17.6343 21.4628 18.0773C21.0565 18.5414 20.5893 18.7101 19.98 18.4992C19.98 19.0054 19.9393 19.2797 19.6346 19.5961C19.1675 20.0601 18.4971 20.1867 17.9893 20.0812C18.03 20.6086 17.7253 20.8828 17.5018 21.0515C16.994 21.4523 16.5065 21.5578 15.8159 21.2625C15.6737 21.5578 14.7393 22.5281 13.6018 21.7687C13.3784 21.6211 12.8503 21.2203 12.8503 21.2203C12.8503 21.2203 11.7737 22.275 10.6565 21.8109C10.4331 21.7265 10.1284 21.4312 10.0471 21.157C9.78308 21.3468 9.03152 21.4101 8.64558 21.1148C8.27996 20.8195 7.79246 20.3554 7.91433 19.575C7.50808 19.7437 7.14246 19.7648 6.59402 19.2375C6.18777 18.8367 5.84246 18.3093 6.10652 17.8453C5.67996 17.9297 5.35496 17.782 5.15183 17.5289C4.94871 17.2757 4.46121 16.5164 5.00965 15.7992C3.48621 14.7445 2.59246 13.7953 2.20652 13.6054C1.98308 13.4789 1.82058 13.289 1.75965 13.0148C1.57683 12.0234 1.75965 6.58122 2.79558 5.42106C2.9784 5.21012 3.22215 5.2734 3.34402 5.35778C9.37683 9.17575 10.9612 5.35778 14.5768 6.68668Z" fill="#FFCA28"/>
<path d="M10.8599 19.6172C11.388 18.9843 11.5505 18.2039 11.0427 17.6765C10.3317 16.9593 9.76299 17.2336 9.23486 17.5078C9.76299 16.8961 9.68174 16.1578 9.21455 15.7359C8.52393 15.1242 7.81299 15.6093 7.20361 16.2422C7.32549 15.8203 7.54893 15.6726 7.0208 15.0398C6.5333 14.4703 5.31455 14.9765 5.00986 15.7992C4.46143 16.5164 4.94893 17.2757 5.15205 17.5289C5.35518 17.782 5.68018 17.9297 6.10674 17.8453C5.84268 18.3093 6.18799 18.8367 6.59424 19.2375C7.14268 19.7648 7.5083 19.7437 7.91455 19.575C7.79268 20.3554 8.28018 20.8195 8.6458 21.1148C9.03174 21.4101 9.7833 21.3468 10.0474 21.157C10.1286 21.4312 10.4333 21.7265 10.6567 21.8109C11.1239 22.0007 11.5911 21.9375 11.9567 21.7898C12.5458 21.0093 12.8099 19.8492 12.1802 19.3429C11.713 18.9843 11.2661 19.1953 10.8599 19.6172ZM24.2864 5.16793C24.2052 5.06247 24.0224 4.83043 23.6771 5.08356C20.9958 6.9609 16.8927 6.2859 14.5771 6.68668C14.0896 6.68668 13.8255 6.70778 13.2364 6.93981C12.3427 7.2984 10.8599 8.58512 9.27549 9.21793C8.54424 9.51325 8.36143 10.6523 9.25518 11.1375C11.1442 12.1922 13.2161 10.1672 15.1458 10.0406C16.8317 9.91403 18.213 12.0234 19.188 13.289C19.7771 14.0695 20.7521 15.3984 21.6255 16.4531C22.9255 14.6179 24.4489 13.3945 24.8552 13.0781C25.038 12.9515 25.1802 12.8461 25.2817 12.4875C25.6474 11.1797 24.9364 6.03278 24.2864 5.16793Z" fill="#FFCB05"/>
<mask id="mask0_291_3195" style="mask-type:luminance" maskUnits="userSpaceOnUse" x="1" y="4" width="25" height="19">
<path d="M14.5768 6.68668C16.8925 6.2859 20.9956 6.9609 23.6768 5.08356C24.0221 4.83043 24.205 5.06247 24.2862 5.16793C24.9362 6.03278 25.6471 11.1797 25.2815 12.4875C25.18 12.8461 25.0378 12.9515 24.855 13.0781C24.4284 13.4156 23.0268 14.5125 21.6253 16.4531C21.9909 17.107 21.869 17.6343 21.4628 18.0773C21.0565 18.5414 20.5893 18.7101 19.98 18.4992C19.98 19.0054 19.9393 19.2797 19.6346 19.5961C19.1675 20.0601 18.4971 20.1867 17.9893 20.0812C18.03 20.6086 17.7253 20.8828 17.5018 21.0515C16.994 21.4523 16.5065 21.5578 15.8159 21.2625C15.6737 21.5578 14.7393 22.5281 13.6018 21.7687C13.3784 21.6211 12.8503 21.2203 12.8503 21.2203C12.8503 21.2203 11.7737 22.275 10.6565 21.8109C10.4331 21.7265 10.1284 21.4312 10.0471 21.157C9.78308 21.3468 9.03152 21.4101 8.64558 21.1148C8.27996 20.8195 7.79246 20.3554 7.91433 19.575C7.50808 19.7437 7.14246 19.7648 6.59402 19.2375C6.18777 18.8367 5.84246 18.3093 6.10652 17.8453C5.67996 17.9297 5.35496 17.782 5.15183 17.5289C4.94871 17.2757 4.46121 16.5164 5.00965 15.7992C3.48621 14.7445 2.59246 13.7953 2.20652 13.6054C1.98308 13.4789 1.82058 13.289 1.75965 13.0148C1.57683 12.0234 1.75965 6.58122 2.79558 5.42106C2.9784 5.21012 3.22215 5.2734 3.34402 5.35778C9.37683 9.17575 10.9612 5.35778 14.5768 6.68668Z" fill="white"/>
</mask>
<g mask="url(#mask0_291_3195)">
<path d="M5.07109 15.2086C5.07109 15.2086 2.22734 13.3734 2.02422 13.2469C1.82109 13.1203 1.69922 12.9094 1.55703 12.6141C1.41484 12.3187 1.39453 12.9094 1.39453 12.9094L3.87266 16.6008C4.31953 16.2 4.76641 15.7992 5.21328 15.3563C5.17266 15.2508 5.07109 15.2086 5.07109 15.2086ZM21.8492 16.3477C20.8945 15.9469 20.6508 14.618 19.7164 14.2383C20.1023 14.8078 20.6711 15.6727 20.793 15.8414C21.118 16.3055 20.9555 16.6008 20.8539 16.7906C20.732 16.9805 20.468 17.318 20.2242 17.5289C19.8586 17.8453 19.3711 17.7188 19.1477 17.5711C18.9242 17.4234 18.4773 17.4867 18.7414 17.8242C19.2086 18.457 19.0055 18.7313 18.9445 18.8578C18.843 19.0266 18.6398 19.2586 18.4977 19.3852C18.2133 19.6383 17.6039 19.575 17.3805 19.4273C17.157 19.2797 16.6492 19.2375 16.8727 19.5117C17.218 19.9336 16.9539 20.2711 16.893 20.3555C16.832 20.4398 16.6898 20.5875 16.4867 20.8195C16.3242 21.0094 15.8977 21.0305 15.6539 20.8828C15.5117 20.7984 14.8008 20.1867 14.6383 20.0812C14.4758 19.9758 14.1508 20.0602 14.4555 20.5031C14.7602 20.9672 14.7195 21.0727 14.618 21.2414C14.5773 21.3047 14.4961 21.4102 14.3539 21.5578C14.0695 21.8531 13.6836 21.5156 13.6836 21.5156L12.5258 20.6719C12.5258 20.6719 12.4648 20.7141 12.3023 20.8195C12.3633 21.3891 12.5664 21.9586 12.6477 22.507L13.1148 22.5703L17.6648 21.6633L22.4992 17.8242L21.8492 16.3477ZM16.9133 11.0109C16.5273 10.7789 16.0602 10.4625 15.3492 10.8C14.6383 11.1375 12.993 11.9391 12.5258 12.15C12.0383 12.3609 10.8195 12.6984 10.1086 11.6227C11.043 11.3484 14.1305 10.1461 14.1305 10.1461L15.5117 9.95625L16.5883 10.357C16.5883 10.357 16.9539 10.6523 17.0758 10.7789C17.218 10.9055 16.9133 11.0109 16.9133 11.0109ZM16.3445 4.32422C10.1289 4.36641 2.34922 4.40859 2.34922 4.40859L2.47109 5.46328C8.93047 9.53437 10.657 6.49687 12.932 6.91875C13.582 6.81328 14.7195 6.58125 15.1055 6.53906C16.4258 5.82187 16.2633 6.28594 16.3445 4.32422Z" fill="#FAA700"/>
</g>
<mask id="mask1_291_3195" style="mask-type:luminance" maskUnits="userSpaceOnUse" x="1" y="4" width="25" height="19">
<path d="M14.5768 6.68668C16.8925 6.2859 20.9956 6.9609 23.6768 5.08356C24.0221 4.83043 24.205 5.06247 24.2862 5.16793C24.9362 6.03278 25.6471 11.1797 25.2815 12.4875C25.18 12.8461 25.0378 12.9515 24.855 13.0781C24.4284 13.4156 23.0268 14.5125 21.6253 16.4531C21.9909 17.107 21.869 17.6343 21.4628 18.0773C21.0565 18.5414 20.5893 18.7101 19.98 18.4992C19.98 19.0054 19.9393 19.2797 19.6346 19.5961C19.1675 20.0601 18.4971 20.1867 17.9893 20.0812C18.03 20.6086 17.7253 20.8828 17.5018 21.0515C16.994 21.4523 16.5065 21.5578 15.8159 21.2625C15.6737 21.5578 14.7393 22.5281 13.6018 21.7687C13.3784 21.6211 12.8503 21.2203 12.8503 21.2203C12.8503 21.2203 11.7737 22.275 10.6565 21.8109C10.4331 21.7265 10.1284 21.4312 10.0471 21.157C9.78308 21.3468 9.03152 21.4101 8.64558 21.1148C8.27996 20.8195 7.79246 20.3554 7.91433 19.575C7.50808 19.7437 7.14246 19.7648 6.59402 19.2375C6.18777 18.8367 5.84246 18.3093 6.10652 17.8453C5.67996 17.9297 5.35496 17.782 5.15183 17.5289C4.94871 17.2757 4.46121 16.5164 5.00965 15.7992C3.48621 14.7445 2.59246 13.7953 2.20652 13.6054C1.98308 13.4789 1.82058 13.289 1.75965 13.0148C1.57683 12.0234 1.75965 6.58122 2.79558 5.42106C2.9784 5.21012 3.22215 5.2734 3.34402 5.35778C9.37683 9.17575 10.9612 5.35778 14.5768 6.68668Z" fill="white"/>
</mask>
<g mask="url(#mask1_291_3195)">
<path d="M5.07018 15.1243C4.928 15.0399 3.44518 14.175 2.91706 13.9641C2.69362 13.8797 2.653 14.0063 2.69362 14.0907L3.60768 15.1664C3.60768 15.1664 4.66393 16.1579 5.00925 15.7993C5.17175 15.6305 5.31393 15.293 5.07018 15.1243ZM19.9796 18.4993C18.9639 18.0985 18.0092 17.1914 16.5467 15.7149C16.3233 15.4829 16.6686 15.0399 16.9733 15.3352C18.7811 17.086 19.1874 17.4657 20.3046 18.225C20.8124 18.5836 21.0764 18.2883 21.0764 18.5204C21.0764 18.668 20.9342 18.7946 20.6702 18.8157C20.4061 18.8368 19.9796 18.4993 19.9796 18.4993ZM17.9889 20.0813C17.6842 20.018 17.1561 20.1024 14.8405 17.6766C14.5967 17.4024 14.9624 17.0016 15.2671 17.318C16.4655 18.5625 16.9936 19.0266 17.9077 19.7227C18.4358 20.1446 18.6592 19.9125 18.6592 20.1446C18.6592 20.3133 17.9889 20.0813 17.9889 20.0813ZM15.8155 21.2625C15.4905 21.1571 13.6827 19.7016 13.4999 19.5329C13.1952 19.2586 13.4999 18.9211 13.8249 19.1954C14.9421 20.2079 15.7749 20.9039 16.0592 21.0938C16.4858 21.3891 16.6077 21.2836 16.6077 21.4735C16.6077 21.6633 16.1405 21.368 15.8155 21.2625Z" fill="#B55E19"/>
</g>
<mask id="mask2_291_3195" style="mask-type:luminance" maskUnits="userSpaceOnUse" x="1" y="4" width="25" height="19">
<path d="M14.5768 6.68668C16.8925 6.2859 20.9956 6.9609 23.6768 5.08356C24.0221 4.83043 24.205 5.06247 24.2862 5.16793C24.9362 6.03278 25.6471 11.1797 25.2815 12.4875C25.18 12.8461 25.0378 12.9515 24.855 13.0781C24.4284 13.4156 23.0268 14.5125 21.6253 16.4531C21.9909 17.107 21.869 17.6343 21.4628 18.0773C21.0565 18.5414 20.5893 18.7101 19.98 18.4992C19.98 19.0054 19.9393 19.2797 19.6346 19.5961C19.1675 20.0601 18.4971 20.1867 17.9893 20.0812C18.03 20.6086 17.7253 20.8828 17.5018 21.0515C16.994 21.4523 16.5065 21.5578 15.8159 21.2625C15.6737 21.5578 14.7393 22.5281 13.6018 21.7687C13.3784 21.6211 12.8503 21.2203 12.8503 21.2203C12.8503 21.2203 11.7737 22.275 10.6565 21.8109C10.4331 21.7265 10.1284 21.4312 10.0471 21.157C9.78308 21.3468 9.03152 21.4101 8.64558 21.1148C8.27996 20.8195 7.79246 20.3554 7.91433 19.575C7.50808 19.7437 7.14246 19.7648 6.59402 19.2375C6.18777 18.8367 5.84246 18.3093 6.10652 17.8453C5.67996 17.9297 5.35496 17.782 5.15183 17.5289C4.94871 17.2757 4.46121 16.5164 5.00965 15.7992C3.48621 14.7445 2.59246 13.7953 2.20652 13.6054C1.98308 13.4789 1.82058 13.289 1.75965 13.0148C1.57683 12.0234 1.75965 6.58122 2.79558 5.42106C2.9784 5.21012 3.22215 5.2734 3.34402 5.35778C9.37683 9.17575 10.9612 5.35778 14.5768 6.68668Z" fill="white"/>
</mask>
<g mask="url(#mask2_291_3195)">
<path d="M23.8809 4.30298C23.8809 4.30298 20.4684 4.30298 16.3449 4.32407C16.2637 6.28579 14.0699 6.34907 12.7293 7.06626C12.1402 7.50923 10.6168 8.52173 10.6168 8.52173C10.6168 8.52173 11.2262 8.85923 11.8355 8.45845C13.7652 7.15063 14.5168 7.02407 15.3699 7.04517C20.6918 7.08735 22.3777 6.77095 24.3887 5.02017C24.7137 4.74595 23.8605 4.32407 23.8809 4.30298ZM12.3027 20.7983C12.2012 20.8616 12.0793 20.967 11.9371 21.1147C11.4699 21.5577 11.1449 21.41 10.7996 21.1147C10.4543 20.8194 10.5559 20.4608 10.6371 20.2077C10.7184 19.9545 10.5559 20.1022 10.048 20.4819C9.45898 20.9459 9.17461 20.6717 8.95117 20.5241C8.8293 20.4608 8.60586 20.2077 8.40273 19.9334C8.07773 19.4905 8.3418 19.0264 8.42305 18.8788C8.5043 18.7311 8.44336 18.5834 8.19961 18.7311C7.79336 18.9842 7.40742 18.7311 7.24492 18.6256C7.10273 18.5202 6.85898 18.267 6.69648 18.0561C6.37148 17.6342 6.59492 17.2756 6.67617 17.0647C6.75742 16.8538 6.57461 16.7272 6.20898 16.9803C5.72148 17.2967 4.74648 16.6639 5.21367 15.5881C5.2543 15.4827 5.13242 15.3983 5.01055 15.7991C4.56367 16.242 4.31992 16.1999 3.87305 16.6006L4.03555 16.8327L6.26992 19.7014L9.8043 22.1061L12.648 22.5069C12.5668 21.9374 12.3637 21.3678 12.3027 20.7983ZM21.8496 16.3475L21.7074 16.0311C21.7074 16.0311 21.4027 14.3647 21.423 13.2678C21.9105 12.5295 21.809 12.0866 21.4434 11.8967C21.0777 11.728 20.3668 11.9178 19.6965 11.7913L18.7621 12.2342L19.3715 13.7108C19.3715 13.7108 19.5137 13.9217 19.7168 14.217C20.6512 14.5967 20.8949 15.9467 21.8496 16.3475Z" fill="#FAA700"/>
</g>
<mask id="mask3_291_3195" style="mask-type:luminance" maskUnits="userSpaceOnUse" x="1" y="4" width="25" height="19">
<path d="M14.5768 6.68668C16.8925 6.2859 20.9956 6.9609 23.6768 5.08356C24.0221 4.83043 24.205 5.06247 24.2862 5.16793C24.9362 6.03278 25.6471 11.1797 25.2815 12.4875C25.18 12.8461 25.0378 12.9515 24.855 13.0781C24.4284 13.4156 23.0268 14.5125 21.6253 16.4531C21.9909 17.107 21.869 17.6343 21.4628 18.0773C21.0565 18.5414 20.5893 18.7101 19.98 18.4992C19.98 19.0054 19.9393 19.2797 19.6346 19.5961C19.1675 20.0601 18.4971 20.1867 17.9893 20.0812C18.03 20.6086 17.7253 20.8828 17.5018 21.0515C16.994 21.4523 16.5065 21.5578 15.8159 21.2625C15.6737 21.5578 14.7393 22.5281 13.6018 21.7687C13.3784 21.6211 12.8503 21.2203 12.8503 21.2203C12.8503 21.2203 11.7737 22.275 10.6565 21.8109C10.4331 21.7265 10.1284 21.4312 10.0471 21.157C9.78308 21.3468 9.03152 21.4101 8.64558 21.1148C8.27996 20.8195 7.79246 20.3554 7.91433 19.575C7.50808 19.7437 7.14246 19.7648 6.59402 19.2375C6.18777 18.8367 5.84246 18.3093 6.10652 17.8453C5.67996 17.9297 5.35496 17.782 5.15183 17.5289C4.94871 17.2757 4.46121 16.5164 5.00965 15.7992C3.48621 14.7445 2.59246 13.7953 2.20652 13.6054C1.98308 13.4789 1.82058 13.289 1.75965 13.0148C1.57683 12.0234 1.75965 6.58122 2.79558 5.42106C2.9784 5.21012 3.22215 5.2734 3.34402 5.35778C9.37683 9.17575 10.9612 5.35778 14.5768 6.68668Z" fill="white"/>
</mask>
<g mask="url(#mask3_291_3195)">
<path d="M24.9977 13.2048C24.6321 13.2681 23.8196 13.1626 21.5446 15.5673C21.443 15.6727 21.3008 15.6727 21.1993 15.5673C20.7321 14.9977 20.1633 14.1118 19.493 12.7829C19.3914 12.5931 19.4727 12.2766 19.7977 12.2977C20.1227 12.3188 20.9555 12.1712 21.1383 12.0446C21.3414 11.9181 21.1789 11.8126 21.0571 11.8126C20.0008 11.7915 18.7821 11.8126 16.9133 10.2516C16.6086 9.99852 15.4102 9.17587 13.6227 10.0407C12.8102 10.4204 11.7539 10.8423 11.4289 10.9477C10.8805 11.1376 9.60082 11.454 9.05238 10.547C8.86957 10.2516 8.78832 9.7454 9.25551 9.49227C9.74301 9.23915 10.3524 8.96493 11.1243 8.50087C12.3633 7.76259 13.3383 6.85556 14.5774 6.68681C14.6993 6.47587 14.6993 6.56024 14.5977 6.58134C11.8352 6.72899 11.8758 7.84696 9.11332 9.04931C8.44301 9.34462 8.21957 9.99852 8.60551 10.7157C9.11332 11.6438 9.86488 11.9181 11.7539 11.4329C12.7696 11.1798 14.7399 9.80868 16.1008 10.5048C16.7305 10.8212 17.8071 11.8337 19.168 13.6477C20.5086 15.4196 21.4024 16.0524 21.6258 16.4532C22.1743 16.5798 23.4539 15.3563 23.4539 15.3563L24.9977 13.2048ZM5.07113 15.1243C5.78207 14.2384 6.71644 14.4704 7.10238 14.7868C7.42738 15.061 7.52894 15.3352 7.52894 15.6306C7.79301 15.4196 8.50394 14.7868 9.43832 15.5884C9.78363 15.8837 9.96644 16.411 9.80394 17.0016C10.1289 16.9173 10.718 16.9806 11.1649 17.4235C11.6118 17.8665 11.7539 18.5204 11.4493 19.0477C11.8352 18.8368 12.8305 19.1532 12.7493 20.1024C12.7289 20.3977 12.6274 20.7141 12.5055 20.9462C12.6274 21.0727 12.8508 21.2204 12.8508 21.2204L12.8914 21.8321C12.8914 21.8321 11.4493 22.022 11.3071 22.0641C11.1446 22.1063 10.9414 21.8954 11.0633 21.8532C11.1852 21.7899 11.4493 21.7266 11.7133 21.3891C11.9571 21.0516 12.1399 20.6931 12.2008 20.5665C12.6883 19.7227 11.6727 19.1532 11.1852 19.5751C10.9618 19.7649 10.5149 20.6298 10.0477 21.1571C9.39769 21.9376 8.86957 21.3259 8.82894 21.2837C8.76801 21.2415 8.64613 21.1149 8.82894 21.0938C9.01176 21.0727 9.60082 21.136 9.90551 20.6298C10.2102 20.1235 10.7383 19.3641 10.8602 19.1532C10.9821 18.9423 11.3274 18.2884 10.7586 17.7821C10.5961 17.6345 9.94613 17.2126 9.31644 17.8454C9.05238 18.0985 8.17894 19.2165 7.91488 19.5751C7.65082 19.9337 7.14301 19.8915 6.93988 19.6173C6.87894 19.5329 6.85863 19.3852 7.02113 19.4485C7.18363 19.5118 7.40707 19.5329 7.71176 19.1743C8.01644 18.8157 9.03207 17.4024 9.17426 17.1704C9.33676 16.9384 9.49926 16.4321 9.09301 15.9681C8.93051 15.7782 8.40238 15.5673 7.99613 15.8415C7.38676 16.2423 6.37113 17.4868 6.10707 17.8454C5.84301 18.204 5.35551 17.8243 5.29457 17.7399C5.23363 17.6556 5.23363 17.5501 5.39613 17.5712C5.57894 17.5923 5.63988 17.6345 5.86332 17.3813C6.08676 17.1282 6.83832 16.3056 6.93988 16.2001C7.14301 15.9681 7.18363 15.6516 6.93988 15.3141C6.67582 14.9556 6.02582 14.8923 5.68051 15.1876C5.37582 15.4407 5.17269 15.6306 5.01019 15.7993C4.86801 15.6095 4.86801 15.3774 5.07113 15.1243Z" fill="#B55E19"/>
</g>
</svg>
