<svg width="26" height="26" viewBox="0 0 26 26" fill="none" xmlns="http://www.w3.org/2000/svg">
<path d="M12.918 23.7031C7.25078 23.7031 1.13672 20.2852 1.13672 12.7852C1.13672 5.28516 7.25078 1.86719 12.918 1.86719C16.0664 1.86719 18.9711 2.86328 21.1242 4.67969C23.4602 6.67188 24.6992 9.48438 24.6992 12.7852C24.6992 16.0859 23.4602 18.8789 21.1242 20.8711C18.9711 22.6875 16.0461 23.7031 12.918 23.7031Z" fill="url(#paint0_radial_291_3147)"/>
<path d="M22.647 6.29492C23.7297 7.97461 24.2944 9.97461 24.2944 12.1992C24.2944 15.5 23.0553 18.293 20.7194 20.2852C18.5662 22.1016 15.6412 23.1172 12.5131 23.1172C8.84469 23.1172 4.98938 21.6816 2.72656 18.6367C4.91219 22.0859 9.02141 23.7031 12.9194 23.7031C16.0475 23.7031 18.9725 22.6875 21.1256 20.8711C23.4616 18.8789 24.7006 16.0859 24.7006 12.7852C24.7006 10.2969 23.9958 8.08594 22.647 6.29492Z" fill="#EB8F00"/>
<path opacity="0.8" d="M5.53516 17.5566C7.49836 17.5566 9.08984 16.0264 9.08984 14.1387C9.08984 12.251 7.49836 10.7207 5.53516 10.7207C3.57196 10.7207 1.98047 12.251 1.98047 14.1387C1.98047 16.0264 3.57196 17.5566 5.53516 17.5566Z" fill="url(#paint1_radial_291_3147)"/>
<path opacity="0.8" d="M20.4648 17.5566C22.428 17.5566 24.0195 16.0264 24.0195 14.1387C24.0195 12.251 22.428 10.7207 20.4648 10.7207C18.5016 10.7207 16.9102 12.251 16.9102 14.1387C16.9102 16.0264 18.5016 17.5566 20.4648 17.5566Z" fill="url(#paint2_radial_291_3147)"/>
<path d="M9.58342 7.45505C10.0526 7.4609 10.1887 6.84372 9.69107 6.74215C9.31935 6.66989 8.91107 6.66012 8.50685 6.70895C7.37545 6.82809 6.40045 7.38864 5.76467 8.11911C5.44779 8.49411 5.96576 8.88864 6.31107 8.60934C7.19467 7.91989 8.3606 7.46481 9.58342 7.45505ZM16.2581 7.58786C15.7929 7.63864 15.5939 7.03708 16.0773 6.88864C16.4409 6.78317 16.8451 6.73434 17.2514 6.74411C18.3889 6.75583 19.4167 7.22067 20.1256 7.88864C20.479 8.23239 20.0037 8.6738 19.632 8.4277C18.6814 7.82419 17.4748 7.48239 16.2581 7.58786ZM13 19.289C15.1937 19.289 16.6156 17.7461 17.0015 17.0234C17.1437 16.75 17.1437 16.5156 17.0219 16.4179C16.9203 16.3398 16.7781 16.3398 16.5953 16.4179C16.5344 16.4375 16.4734 16.4765 16.4125 16.5156C15.4375 17.1797 14.239 17.5898 13 17.5898C11.7609 17.5898 10.5625 17.1797 9.58748 16.5351C9.52654 16.4961 9.4656 16.457 9.40467 16.4375C9.22185 16.3593 9.07967 16.3593 8.9781 16.4375C8.85623 16.5547 8.85623 16.7695 8.99842 17.0429C9.38435 17.7461 10.8062 19.289 13 19.289ZM10.4812 12.498L10.4406 12.459L10.339 12.3613C10.2984 12.3222 10.2578 12.3027 10.1969 12.2441C10.1359 12.205 10.075 12.1465 9.99373 12.1074C9.91248 12.0683 9.83123 12.0097 9.74998 11.9707C9.66873 11.9316 9.56717 11.8925 9.4656 11.8535C9.36404 11.8144 9.26248 11.7949 9.16092 11.7754C9.05935 11.7558 8.95779 11.7558 8.83592 11.7558H8.85623H8.6531C8.61248 11.7558 8.55154 11.7754 8.51092 11.7754C8.40935 11.7949 8.30779 11.8144 8.20623 11.8535C8.10467 11.8925 8.0031 11.9121 7.92185 11.9707C7.8406 12.0097 7.75935 12.0488 7.6781 12.1074C7.53592 12.205 7.41404 12.3027 7.33279 12.3613L7.21092 12.4785L7.17029 12.5175C6.92654 12.7519 6.52029 12.7519 6.23592 12.5566C6.03279 12.4004 5.97185 12.1269 6.07342 11.9316L6.09373 11.873C6.11404 11.834 6.13435 11.7754 6.17498 11.7168C6.25623 11.58 6.39842 11.3847 6.62185 11.1699C6.72342 11.0722 6.8656 10.955 7.00779 10.8574C7.14998 10.7597 7.33279 10.6621 7.5156 10.584C7.69842 10.5058 7.92185 10.4277 8.12498 10.3886C8.22654 10.3691 8.34842 10.3496 8.47029 10.33C8.53123 10.33 8.61248 10.3105 8.63279 10.3105H8.79529C9.01873 10.3105 9.24217 10.33 9.4656 10.3691C9.68904 10.4082 9.89217 10.4863 10.075 10.5644C10.2578 10.6425 10.4406 10.7402 10.5828 10.8379C10.7453 10.9355 10.8672 11.0332 10.9687 11.1504C11.0703 11.248 11.1719 11.3457 11.2328 11.4433C11.2734 11.4824 11.2937 11.541 11.3344 11.58C11.3547 11.6191 11.3953 11.6582 11.4156 11.6972C11.4765 11.7754 11.4765 11.8144 11.4969 11.8535L11.5172 11.8925C11.6594 12.1855 11.4969 12.5175 11.1515 12.6347C10.9687 12.7324 10.664 12.6738 10.4812 12.498ZM18.7911 12.4277L18.7504 12.3886C18.7281 12.3672 18.6773 12.3125 18.6469 12.291C18.6083 12.2597 18.5615 12.2226 18.5067 12.1797C18.4478 12.1367 18.3808 12.0898 18.3076 12.041C18.2287 11.9929 18.1474 11.9486 18.0639 11.9082C17.9786 11.8632 17.8811 11.832 17.7836 11.7968C17.6861 11.7636 17.5825 11.7461 17.4789 11.7246C17.3753 11.709 17.2676 11.7011 17.16 11.7011H17.1884H17.1254L17.0625 11.7031C17.0097 11.7031 17.0015 11.707 16.9812 11.709C16.9487 11.709 16.8898 11.7187 16.839 11.7265C16.7354 11.748 16.6319 11.7656 16.5344 11.7988C16.4389 11.834 16.3414 11.8652 16.2561 11.9101C16.1687 11.9531 16.0875 11.998 16.0123 12.0429C15.8661 12.1367 15.7462 12.2304 15.667 12.3007C15.5858 12.3711 15.539 12.414 15.539 12.414L15.4883 12.4629C15.2425 12.6914 14.8281 12.705 14.56 12.4961C14.3487 12.33 14.2959 12.0742 14.4015 11.8613L14.432 11.8027C14.4523 11.7656 14.4767 11.707 14.5214 11.6386C14.6047 11.5 14.7428 11.3047 14.9622 11.0996C15.0719 10.998 15.1998 10.8906 15.3522 10.7929C15.5004 10.6914 15.6731 10.5996 15.864 10.5195C16.055 10.4414 16.2622 10.373 16.4815 10.33C16.5933 10.3105 16.6969 10.291 16.8329 10.2793C16.8959 10.2734 16.9711 10.2675 17.0036 10.2656L17.16 10.2597C17.3895 10.2636 17.617 10.2871 17.8384 10.3281C18.0578 10.3711 18.265 10.4394 18.4559 10.5175C18.6448 10.5976 18.8195 10.6894 18.9678 10.791C19.1201 10.8886 19.2461 10.9941 19.3558 11.0976C19.4654 11.1992 19.5528 11.3007 19.6259 11.3925C19.6604 11.4394 19.6929 11.4824 19.7234 11.5234C19.7519 11.5683 19.7803 11.6093 19.8026 11.6465C19.8575 11.7285 19.8615 11.7597 19.8819 11.7968L19.9042 11.8457C20.0403 12.1367 19.8758 12.4668 19.5365 12.584C19.2704 12.6757 18.9719 12.6054 18.7911 12.4277Z" fill="#422B0D"/>
<defs>
<radialGradient id="paint0_radial_291_3147" cx="0" cy="0" r="1" gradientUnits="userSpaceOnUse" gradientTransform="translate(12.918 12.7852) scale(11.57 11.125)">
<stop offset="0.5" stop-color="#FDE030"/>
<stop offset="0.919" stop-color="#F7C02B"/>
<stop offset="1" stop-color="#F4A223"/>
</radialGradient>
<radialGradient id="paint1_radial_291_3147" cx="0" cy="0" r="1" gradientUnits="userSpaceOnUse" gradientTransform="translate(5.53533 14.1384) scale(3.86702 3.5322)">
<stop stop-color="#ED7770"/>
<stop offset="0.9" stop-color="#ED7770" stop-opacity="0"/>
</radialGradient>
<radialGradient id="paint2_radial_291_3147" cx="0" cy="0" r="1" gradientUnits="userSpaceOnUse" gradientTransform="translate(20.4652 14.1384) scale(3.86702 3.5322)">
<stop stop-color="#ED7770"/>
<stop offset="0.9" stop-color="#ED7770" stop-opacity="0"/>
</radialGradient>
</defs>
</svg>
