<svg width="27" height="28" viewBox="0 0 27 28" fill="none" xmlns="http://www.w3.org/2000/svg">
<path d="M16.2631 10.7937C17.685 10.4983 19.0663 10.646 19.7569 10.7515C20.5288 10.8569 21.6053 11.0257 22.4381 11.4265C23.3928 11.8694 23.6366 12.6288 23.6569 13.5358C23.6772 14.3796 23.4334 14.8858 23.1491 15.1601C24.0022 15.6452 24.2053 16.2147 24.1647 17.164C24.1241 18.0077 23.7584 18.6616 23.0272 19.0413C23.6163 19.6952 23.7381 20.2015 23.6366 21.1929C23.5553 22.121 23.21 22.6694 21.8084 23.0913C22.0725 23.3866 22.1538 23.8929 22.1334 24.3569C22.0928 24.9054 21.9303 25.4327 21.1991 25.8124C20.9959 25.9179 19.7975 26.5296 17.2991 25.7069C15.1866 26.0866 12.2413 25.8968 9.90532 24.7366C7.69126 24.7155 5.07094 24.5257 4.86782 24.5257C4.64438 24.5257 4.21782 24.4202 4.01469 23.8296C3.81157 23.239 3.18188 18.7882 3.77094 16.1093C3.85219 15.7296 4.15688 15.5187 4.42094 15.4976C4.68501 15.4765 6.16782 15.3077 6.51313 15.2655C8.34126 15.0335 7.89438 13.3882 10.0069 10.7726C11.0022 9.52803 13.0334 8.66318 13.1553 5.8999C13.1959 4.97178 13.2569 3.45303 13.2569 3.24209C13.2569 1.91318 15.735 1.66006 16.6288 3.49521C18.2334 6.76475 16.9131 8.36787 16.2631 10.7937Z" fill="#FFCA28"/>
<mask id="mask0_291_3062" style="mask-type:luminance" maskUnits="userSpaceOnUse" x="3" y="2" width="22" height="25">
<path d="M16.2631 10.7937C17.685 10.4983 19.0663 10.646 19.7569 10.7515C20.5288 10.8569 21.6053 11.0257 22.4381 11.4265C23.3928 11.8694 23.6366 12.6288 23.6569 13.5358C23.6772 14.3796 23.4334 14.8858 23.1491 15.1601C24.0022 15.6452 24.2053 16.2147 24.1647 17.164C24.1241 18.0077 23.7584 18.6616 23.0272 19.0413C23.6163 19.6952 23.7381 20.2015 23.6366 21.1929C23.5553 22.121 23.21 22.6694 21.8084 23.0913C22.0725 23.3866 22.1538 23.8929 22.1334 24.3569C22.0928 24.9054 21.9303 25.4327 21.1991 25.8124C20.9959 25.9179 19.7975 26.5296 17.2991 25.7069C15.1866 26.0866 12.2413 25.8968 9.90532 24.7366C7.69126 24.7155 5.07094 24.5257 4.86782 24.5257C4.64438 24.5257 4.21782 24.4202 4.01469 23.8296C3.81157 23.239 3.18188 18.7882 3.77094 16.1093C3.85219 15.7296 4.15688 15.5187 4.42094 15.4976C4.68501 15.4765 6.16782 15.3077 6.51313 15.2655C8.34126 15.0335 7.89438 13.3882 10.0069 10.7726C11.0022 9.52803 13.0334 8.66318 13.1553 5.8999C13.1959 4.97178 13.2569 3.45303 13.2569 3.24209C13.2569 1.91318 15.735 1.66006 16.6288 3.49521C18.2334 6.76475 16.9131 8.36787 16.2631 10.7937Z" fill="white"/>
</mask>
<g mask="url(#mask0_291_3062)">
<path d="M3.75 15.7295C3.77031 16.0459 3.75 16.51 4.31875 16.51C4.8875 16.51 6.24844 16.3624 6.53281 16.3202C7.08125 16.2569 7.95469 15.7928 8.27969 15.0545C8.56406 14.4428 9.23437 12.8397 9.23437 12.8397C9.23437 12.8397 10.6562 8.62095 11.1844 8.55767C12.0172 8.4522 13.6016 8.26235 13.6016 5.81548C13.6016 5.0561 13.6828 3.91704 13.6828 3.7061C13.7437 2.08188 15.4906 2.6936 16.1812 3.47407L16.9125 2.84126L15.6125 1.63892C15.6125 1.63892 12.8906 1.78657 12.9109 1.80767C12.9719 1.82876 3.75 15.7295 3.75 15.7295ZM3.87188 23.8717L9.45781 24.0827V24.9686L4.03437 24.6733L3.87188 23.8717ZM23.1281 10.7514L24.55 13.4092L24.1844 22.2053L21.4625 26.4874L17.4 26.3819C17.4 26.3819 16.2625 23.9983 16.1 23.5553C15.9375 23.1334 15.4906 22.2897 14.6172 20.9819C13.7641 19.6741 14.3531 18.535 14.9422 18.092C15.2875 17.8389 15.5719 16.9952 15.6125 16.4889C15.6531 15.9827 15.8156 12.1225 15.8562 10.9834C15.8969 9.84438 16.8922 9.57017 17.3187 9.57017L23.1281 10.7514ZM19.1062 12.228C18.375 12.3124 18.0094 13.1772 18.0094 14.0842C18.0297 15.603 18.5984 15.5819 19.2078 15.7084C19.3703 15.7506 19.4516 16.0249 19.2078 16.067C18.1516 16.1725 17.9484 17.1217 17.9484 17.86C17.9484 19.2522 18.9234 19.3788 19.0859 19.3788C19.35 19.3999 19.4312 19.7374 19.0859 19.7584C18.4156 19.8006 18.0094 20.4967 18.0094 21.3194C18.0094 21.9522 18.1922 22.6061 19.2484 22.9225C19.3703 22.9647 19.5531 23.26 19.2078 23.3022C18.2937 23.4499 18.2734 23.9139 18.2531 24.5256C18.2531 25.2217 18.5781 25.4327 18.9844 25.5592C19.3297 25.6436 20.0203 25.6647 20.4062 25.6014C21.3406 25.4327 22.1125 24.3569 21.3 23.1967H20C19.8781 23.1967 19.8781 23.028 20.0406 23.028C22.2547 22.9014 22.9047 22.0788 23.0266 21.1506C23.1078 20.4756 22.925 19.7795 22.3766 19.2733C22.2953 19.1889 22.1734 19.2311 22.0312 19.2311C24.4687 17.86 23.575 15.7295 22.3969 15.5186C22.1734 15.4764 21.9703 15.4553 22.1734 15.3709C23.3719 14.928 23.6766 11.4686 20.9547 11.5741C20.9953 11.5741 19.6953 12.1647 19.1062 12.228Z" fill="#FAA700"/>
</g>
<mask id="mask1_291_3062" style="mask-type:luminance" maskUnits="userSpaceOnUse" x="3" y="2" width="22" height="25">
<path d="M16.2631 10.7937C17.685 10.4983 19.0663 10.646 19.7569 10.7515C20.5288 10.8569 21.6053 11.0257 22.4381 11.4265C23.3928 11.8694 23.6366 12.6288 23.6569 13.5358C23.6772 14.3796 23.4334 14.8858 23.1491 15.1601C24.0022 15.6452 24.2053 16.2147 24.1647 17.164C24.1241 18.0077 23.7584 18.6616 23.0272 19.0413C23.6163 19.6952 23.7381 20.2015 23.6366 21.1929C23.5553 22.121 23.21 22.6694 21.8084 23.0913C22.0725 23.3866 22.1538 23.8929 22.1334 24.3569C22.0928 24.9054 21.9303 25.4327 21.1991 25.8124C20.9959 25.9179 19.7975 26.5296 17.2991 25.7069C15.1866 26.0866 12.2413 25.8968 9.90532 24.7366C7.69126 24.7155 5.07094 24.5257 4.86782 24.5257C4.64438 24.5257 4.21782 24.4202 4.01469 23.8296C3.81157 23.239 3.18188 18.7882 3.77094 16.1093C3.85219 15.7296 4.15688 15.5187 4.42094 15.4976C4.68501 15.4765 6.16782 15.3077 6.51313 15.2655C8.34126 15.0335 7.89438 13.3882 10.0069 10.7726C11.0022 9.52803 13.0334 8.66318 13.1553 5.8999C13.1959 4.97178 13.2569 3.45303 13.2569 3.24209C13.2569 1.91318 15.735 1.66006 16.6288 3.49521C18.2334 6.76475 16.9131 8.36787 16.2631 10.7937Z" fill="white"/>
</mask>
<g mask="url(#mask1_291_3062)">
<path d="M6.85925 14.9069C7.02175 15.4765 7.67175 15.4343 8.03738 15.0335C8.93113 13.9999 9.60144 12.0171 10.4546 11.1101C11.8561 9.61241 13.4202 8.45226 13.4202 6.89132C13.4202 6.38507 13.6233 5.03507 12.9936 4.76085C12.6686 4.61319 12.4249 4.86632 12.4249 5.05616C12.4249 5.2671 12.2827 7.27101 12.2827 7.27101L6.85925 14.9069Z" fill="#B55E19"/>
<path d="M15.2678 1.99746C15.1866 2.22949 15.2272 2.50371 15.5522 2.82012C18.6194 5.77324 15.41 9.46465 15.4507 11.3842C15.471 11.9115 15.4507 15.3076 15.41 15.6662C15.085 17.9654 13.785 18.7881 13.0538 19.2311C12.9522 19.2943 12.9725 19.5264 13.135 19.4842C13.2772 19.442 14.76 19.1467 15.5522 17.5857C15.6132 18.0498 16.0803 18.8936 16.4663 19.0623C16.06 19.2521 14.9428 20.9818 16.7507 22.5428C16.06 22.817 15.5725 24.2092 16.5678 25.1162C15.8569 25.3482 12.0991 25.4115 9.92566 23.935C9.72253 23.7873 9.37722 23.8295 9.21472 23.9982C9.03191 24.167 8.93035 24.167 8.82878 24.1459C8.72722 24.1248 5.80222 24.2725 5.5991 24.2725C5.39597 24.2725 4.9491 24.3146 4.9491 24.61C4.9491 24.9053 9.94597 24.9475 9.94597 24.9475L12.7085 26.2131L17.4413 26.0232C17.4413 26.0232 20.2647 26.2975 19.8991 26.2131C19.5335 26.1287 17.746 25.7068 16.9538 24.842C16.0397 23.8084 16.8319 23.1334 17.0553 23.0701C17.1975 23.0279 17.36 22.9857 17.5835 23.0701C17.8272 23.1545 20.4272 23.8084 21.6866 23.1967C21.8491 23.1123 21.7882 23.0068 21.646 23.0068C19.5741 23.1123 17.8069 22.7537 16.9741 22.0154C15.7757 20.9396 16.3038 19.7795 16.71 19.5264C16.8522 19.442 17.0147 19.4631 17.096 19.5053C18.721 20.2225 21.9913 19.8217 22.9257 19.21C23.0272 19.1467 22.9866 18.999 22.8444 19.0412C22.5397 19.1256 18.335 19.906 16.8725 18.6615C15.8569 17.7967 15.6741 16.8475 16.3444 16.1092C16.5475 15.8771 16.9132 15.9404 16.9944 15.9615C19.6757 16.5311 22.5194 15.9615 23.0272 15.4131C23.1491 15.2865 23.0882 15.1178 22.885 15.1811C22.1741 15.4131 19.3303 15.8139 18.0507 15.6451C17.7257 15.6029 17.4007 15.5607 16.9538 15.2443C16.71 15.0756 16.4257 14.8646 16.2225 14.6537C16.0194 14.4428 15.8366 14.042 15.9178 13.3037C15.9585 12.8818 16.1819 12.46 16.8928 12.3123C17.2991 12.2279 17.9491 12.3756 18.1319 12.4178C18.3147 12.46 18.66 12.46 18.8835 12.3967C19.2491 12.2912 20.4678 11.9537 21.2397 11.8904C21.4835 11.8693 21.5241 11.574 21.2194 11.5529C20.935 11.5318 19.8382 11.5107 19.0053 11.7217C18.9038 11.7428 18.8428 11.6795 18.9038 11.6162C18.9647 11.5318 19.1272 11.4053 19.1678 11.3631C19.2288 11.3209 19.2491 11.11 18.9444 11.1943C18.7616 11.2365 18.4366 11.4686 18.2741 11.7006C18.1928 11.8271 18.0507 11.8482 17.9694 11.8482C16.9944 11.785 16.385 11.8904 16.06 12.249C16.0397 11.7217 16.121 11.1521 16.2225 10.8568C16.2835 10.667 18.0303 8.9584 17.8882 5.9209C17.746 2.79902 15.6132 1.09043 15.2678 1.99746Z" fill="#B55E19"/>
</g>
</svg>
