<svg width="27" height="26" viewBox="0 0 27 26" fill="none" xmlns="http://www.w3.org/2000/svg">
<path d="M24.1844 9.34757C23.9609 8.95695 23.575 8.25382 22.8031 7.76554C22.3563 7.4921 21.7875 7.04289 21.5437 6.82804C21.3 6.6132 19.2078 4.9921 18.4359 4.6796C17.6641 4.3671 17.0547 4.32804 16.5266 4.58195C15.9781 4.85538 14.2313 5.6757 13.9875 5.79288C13.7438 5.91007 13.4797 6.16398 13.4797 6.53507C13.4797 6.16398 13.2156 5.91007 12.9719 5.79288C12.7281 5.65617 10.9813 4.85538 10.4328 4.58195C9.925 4.32804 9.29531 4.3671 8.52344 4.6796C7.75156 5.01163 5.65938 6.63273 5.41563 6.82804C5.17188 7.04289 4.58281 7.4921 4.15625 7.76554C3.38438 8.25382 2.99844 8.95695 2.775 9.34757C2.55156 9.7382 1.10938 11.828 1.10938 11.828V20.4218C1.10938 20.4218 3.54688 18.039 4.33906 17.5116C5.11094 17.0038 5.57812 17.3163 5.96406 17.3944C7.52812 17.7069 8.60469 17.2577 9.72188 17.2187C11.1031 17.1796 11.9359 17.8632 12.3219 18.2343C12.5656 18.4882 13.2359 18.664 13.5203 18.039C13.8047 18.664 14.4547 18.4687 14.7188 18.2343C15.1047 17.8437 15.9375 17.1601 17.3188 17.2187C18.4359 17.2577 19.5125 17.7069 21.0766 17.3944C21.4422 17.3163 21.9094 16.9843 22.7016 17.5116C23.4734 18.039 25.9312 20.4218 25.9312 20.4218V11.8476C25.85 11.8476 24.4078 9.7382 24.1844 9.34757ZM16.9328 14.2694C15.2266 14.9726 13.4594 15.7929 13.4594 17.2968C13.4594 15.7929 11.6922 14.9726 9.98594 14.2694C8.27969 13.5663 7.91406 12.1991 7.975 11.496C8.11719 9.0546 10.5344 9.28898 10.6969 9.28898C10.9609 9.30851 11.3063 9.46476 11.5094 9.75773C11.6922 10.0507 12.2609 10.6562 12.5453 10.7538C13.2562 11.0468 13.4797 10.6171 13.4797 10.6171C13.4797 10.6171 13.7031 11.0468 14.4141 10.7538C14.6984 10.6366 15.2469 10.0507 15.45 9.75773C15.6328 9.46476 15.9984 9.30851 16.2625 9.28898C16.425 9.26945 18.8422 9.0546 18.9844 11.496C19.0047 12.1991 18.6391 13.5859 16.9328 14.2694Z" fill="#FFCA28"/>
<mask id="mask0_291_3131" style="mask-type:luminance" maskUnits="userSpaceOnUse" x="1" y="4" width="25" height="17">
<path d="M24.1844 9.34757C23.9609 8.95695 23.575 8.25382 22.8031 7.76554C22.3563 7.4921 21.7875 7.04289 21.5437 6.82804C21.3 6.6132 19.2078 4.9921 18.4359 4.6796C17.6641 4.3671 17.0547 4.32804 16.5266 4.58195C15.9781 4.85538 14.2313 5.6757 13.9875 5.79288C13.7438 5.91007 13.4797 6.16398 13.4797 6.53507C13.4797 6.16398 13.2156 5.91007 12.9719 5.79288C12.7281 5.65617 10.9813 4.85538 10.4328 4.58195C9.925 4.32804 9.29531 4.3671 8.52344 4.6796C7.75156 5.01163 5.65938 6.63273 5.41563 6.82804C5.17188 7.04289 4.58281 7.4921 4.15625 7.76554C3.38438 8.25382 2.99844 8.95695 2.775 9.34757C2.55156 9.7382 1.10938 11.828 1.10938 11.828V20.4218C1.10938 20.4218 3.54688 18.039 4.33906 17.5116C5.11094 17.0038 5.57812 17.3163 5.96406 17.3944C7.52812 17.7069 8.60469 17.2577 9.72188 17.2187C11.1031 17.1796 11.9359 17.8632 12.3219 18.2343C12.5656 18.4882 13.2359 18.664 13.5203 18.039C13.8047 18.664 14.4547 18.4687 14.7188 18.2343C15.1047 17.8437 15.9375 17.1601 17.3188 17.2187C18.4359 17.2577 19.5125 17.7069 21.0766 17.3944C21.4422 17.3163 21.9094 16.9843 22.7016 17.5116C23.4734 18.039 25.9312 20.4218 25.9312 20.4218V11.8476C25.85 11.8476 24.4078 9.7382 24.1844 9.34757ZM16.9328 14.2694C15.2266 14.9726 13.4594 15.7929 13.4594 17.2968C13.4594 15.7929 11.6922 14.9726 9.98594 14.2694C8.27969 13.5663 7.91406 12.1991 7.975 11.496C8.11719 9.0546 10.5344 9.28898 10.6969 9.28898C10.9609 9.30851 11.3063 9.46476 11.5094 9.75773C11.6922 10.0507 12.2609 10.6562 12.5453 10.7538C13.2562 11.0468 13.4797 10.6171 13.4797 10.6171C13.4797 10.6171 13.7031 11.0468 14.4141 10.7538C14.6984 10.6366 15.2469 10.0507 15.45 9.75773C15.6328 9.46476 15.9984 9.30851 16.2625 9.28898C16.425 9.26945 18.8422 9.0546 18.9844 11.496C19.0047 12.1991 18.6391 13.5859 16.9328 14.2694Z" fill="white"/>
</mask>
<g mask="url(#mask0_291_3131)">
<path d="M12.1395 17.9805C12.0988 18.3125 10.8801 18.4102 10.8801 18.4102L0.845703 21.1445L0.886328 18.2734C1.59727 17.668 3.32383 16.3203 3.62852 16.1445C3.9332 15.9687 5.25352 15.3438 6.41133 15.8906C6.71602 16.0273 7.36602 16.2812 8.3207 16.1836C9.76289 16.0078 12.3223 16.4766 12.1395 17.9805ZM11.7941 14.3086L13.4598 16.3789V17.3945C13.4598 17.3945 13.277 17.3945 13.2363 17.2188C13.0129 16.0664 11.6113 15.2656 10.7582 14.9141L11.7941 14.3086ZM13.6832 5.14844L13.6629 7.86328C13.6629 7.86328 13.4598 8.07812 13.3379 8.05859C13.2363 8.03906 13.0941 7.57031 12.952 7.43359C12.8098 7.29687 11.2051 6.51562 10.6973 6.26172C10.291 6.04688 9.68164 6.08594 9.4582 6.14453C9.21445 6.20312 7.56914 6.86719 7.30508 7.02344C7.04102 7.17969 6.8582 6.88672 7.08164 6.71094C7.20352 6.61328 8.54414 5.55859 8.72695 5.42188C8.90977 5.30469 8.76758 5.01172 8.50352 5.1875C7.58945 5.77344 4.76602 7.86328 4.44102 8.09766C3.97383 8.42969 3.62852 8.83984 3.40508 9.25C3.30352 9.46484 1.73945 11.8086 1.0082 12.707L0.744141 11.5547L3.03945 7.72656C3.03945 7.72656 9.17383 3.68359 9.21445 3.68359C9.23477 3.68359 13.6832 5.14844 13.6832 5.14844ZM14.7801 17.9805C14.8207 18.3125 16.0395 18.4102 16.0395 18.4102L26.0738 21.1445L26.0129 18.2734C25.302 17.668 23.5754 16.3203 23.2707 16.1445C22.966 15.9687 21.6457 15.3438 20.4879 15.8906C20.1832 16.0273 19.5332 16.2812 18.5785 16.1836C17.1363 16.0078 14.577 16.4766 14.7801 17.9805Z" fill="#FAA700"/>
<path d="M15.1059 14.3086L13.4402 16.3789L13.4605 17.3945C13.4605 17.3945 13.623 17.3945 13.6637 17.2188C13.8871 16.0664 15.2887 15.2656 16.1418 14.9141L15.1059 14.3086ZM13.2168 5.14844L13.2371 7.86328C13.2371 7.86328 13.4402 8.07813 13.5621 8.05859C13.6637 8.03906 13.8059 7.57031 13.948 7.43359C14.0902 7.29688 15.6949 6.51563 16.2027 6.26172C16.609 6.04688 17.2184 6.08594 17.4418 6.14453C17.6855 6.20312 19.8184 7.16016 20.0824 7.31641C20.3465 7.47266 20.5293 7.16016 20.3262 6.98438C20.2043 6.88672 18.884 5.75391 18.7215 5.63672C18.559 5.51953 18.7012 5.28516 18.9449 5.44141C19.8387 6.02734 22.1543 7.86328 22.4793 8.09766C22.9465 8.42969 23.2918 8.83984 23.5152 9.25C23.6168 9.46484 25.1809 11.8086 25.9121 12.707L26.1762 11.5547L23.8809 7.72656C23.8809 7.72656 17.7465 3.68359 17.7059 3.68359C17.6652 3.68359 13.2168 5.14844 13.2168 5.14844Z" fill="#FAA700"/>
</g>
<mask id="mask1_291_3131" style="mask-type:luminance" maskUnits="userSpaceOnUse" x="1" y="4" width="25" height="17">
<path d="M24.1844 9.34757C23.9609 8.95695 23.575 8.25382 22.8031 7.76554C22.3563 7.4921 21.7875 7.04289 21.5437 6.82804C21.3 6.6132 19.2078 4.9921 18.4359 4.6796C17.6641 4.3671 17.0547 4.32804 16.5266 4.58195C15.9781 4.85538 14.2313 5.6757 13.9875 5.79288C13.7438 5.91007 13.4797 6.16398 13.4797 6.53507C13.4797 6.16398 13.2156 5.91007 12.9719 5.79288C12.7281 5.65617 10.9813 4.85538 10.4328 4.58195C9.925 4.32804 9.29531 4.3671 8.52344 4.6796C7.75156 5.01163 5.65938 6.63273 5.41563 6.82804C5.17188 7.04289 4.58281 7.4921 4.15625 7.76554C3.38438 8.25382 2.99844 8.95695 2.775 9.34757C2.55156 9.7382 1.10938 11.828 1.10938 11.828V20.4218C1.10938 20.4218 3.54688 18.039 4.33906 17.5116C5.11094 17.0038 5.57812 17.3163 5.96406 17.3944C7.52812 17.7069 8.60469 17.2577 9.72188 17.2187C11.1031 17.1796 11.9359 17.8632 12.3219 18.2343C12.5656 18.4882 13.2359 18.664 13.5203 18.039C13.8047 18.664 14.4547 18.4687 14.7188 18.2343C15.1047 17.8437 15.9375 17.1601 17.3188 17.2187C18.4359 17.2577 19.5125 17.7069 21.0766 17.3944C21.4422 17.3163 21.9094 16.9843 22.7016 17.5116C23.4734 18.039 25.9312 20.4218 25.9312 20.4218V11.8476C25.85 11.8476 24.4078 9.7382 24.1844 9.34757ZM16.9328 14.2694C15.2266 14.9726 13.4594 15.7929 13.4594 17.2968C13.4594 15.7929 11.6922 14.9726 9.98594 14.2694C8.27969 13.5663 7.91406 12.1991 7.975 11.496C8.11719 9.0546 10.5344 9.28898 10.6969 9.28898C10.9609 9.30851 11.3063 9.46476 11.5094 9.75773C11.6922 10.0507 12.2609 10.6562 12.5453 10.7538C13.2562 11.0468 13.4797 10.6171 13.4797 10.6171C13.4797 10.6171 13.7031 11.0468 14.4141 10.7538C14.6984 10.6366 15.2469 10.0507 15.45 9.75773C15.6328 9.46476 15.9984 9.30851 16.2625 9.28898C16.425 9.26945 18.8422 9.0546 18.9844 11.496C19.0047 12.1991 18.6391 13.5859 16.9328 14.2694Z" fill="white"/>
</mask>
<g mask="url(#mask1_291_3131)">
<path d="M4.70475 16.8086C4.64381 16.75 4.72506 16.6523 4.80631 16.7109C5.09069 16.8867 5.90318 17.1211 6.87818 17.1015C8.42193 17.0625 9.23444 16.7304 9.96568 16.789C10.6969 16.8476 11.5297 17.1015 12.2407 17.8633C12.7079 18.3906 13.2157 18.1953 13.3172 17.8633C13.3376 17.7656 13.4594 17.7851 13.4594 17.7851V18.2539C13.4594 18.2539 13.2766 18.6445 12.911 18.664C12.0579 18.6836 11.6313 18.3125 11.3266 17.9023C11.0016 17.4922 7.48756 18.039 5.53756 17.3359C5.23287 17.1992 4.92819 17.0234 4.70475 16.8086ZM13.0735 16.0078C12.9922 16.0859 12.911 16.164 12.7282 16.0078C11.9563 15.2851 11.1032 15.1094 9.80318 14.5625C8.56412 14.0351 7.44694 13.0195 7.44694 11.4961C7.44694 10.4023 8.09694 8.72263 10.311 8.7617C11.0219 8.78123 11.4688 9.11326 11.6922 9.46482C11.9157 9.79685 12.3016 10.2265 12.4235 10.3437C12.6469 10.539 13.1954 10.6953 13.2969 10.2461C13.3376 10.0117 13.1954 8.64451 13.1751 8.41013C13.1547 8.17576 12.9516 7.68748 12.5251 7.47263C12.0782 7.23826 10.8594 6.63279 10.6157 6.5156C10.3719 6.39842 9.78287 6.33982 9.27506 6.5156C8.62506 6.74998 6.22818 7.96092 5.78131 8.17576C5.70006 8.21482 5.65944 8.1367 5.72037 8.0781C5.78131 8.01951 6.20787 7.57029 6.69537 7.29685C7.18287 7.02342 8.97037 6.06638 9.23444 5.92967C9.47819 5.79295 10.1688 5.73435 10.5547 5.92967C10.9813 6.14451 12.3016 6.74998 12.8501 7.04295C12.9922 7.12107 13.1751 7.23826 13.2157 7.31639C13.2563 7.39451 13.3172 7.33592 13.3172 7.31639C13.3172 7.29685 13.3376 6.53513 13.4797 6.53513V15.0312L13.0735 16.0078ZM22.2344 16.8086C22.2954 16.75 22.2141 16.6523 22.1329 16.7109C21.8485 16.8867 21.036 17.1211 20.061 17.1015C18.5172 17.0625 17.7047 16.7304 16.9735 16.789C16.2422 16.8476 15.4094 17.1015 14.6985 17.8633C14.2313 18.3906 13.7235 18.1953 13.6219 17.8633C13.6016 17.7656 13.4797 17.7851 13.4797 17.7851V18.2539C13.4797 18.2539 13.6626 18.6445 14.0282 18.664C14.8813 18.6836 15.3079 18.3125 15.6126 17.9023C15.9376 17.4922 19.4516 18.039 21.4016 17.3359C21.686 17.1992 22.011 17.0234 22.2344 16.8086Z" fill="#B55E19"/>
<path d="M13.8656 16.0078C13.9469 16.0859 14.0281 16.164 14.211 16.0078C14.9828 15.2851 15.836 15.1094 17.136 14.5625C18.375 14.0351 19.4922 13.0195 19.4922 11.4961C19.4922 10.4023 18.8422 8.72263 16.6281 8.7617C15.9172 8.78123 15.4703 9.11326 15.2469 9.46482C15.0235 9.79685 14.6375 10.2265 14.5156 10.3437C14.2922 10.539 13.7438 10.6953 13.6422 10.2461C13.6016 10.0117 13.7438 8.64451 13.7641 8.41013C13.7844 8.17576 13.9875 7.68748 14.4141 7.47263C14.861 7.23826 16.0797 6.63279 16.3235 6.5156C16.5672 6.39842 17.1563 6.33982 17.6641 6.5156C18.3141 6.74998 20.711 7.96092 21.1578 8.17576C21.2391 8.21482 21.2797 8.1367 21.2188 8.0781C21.1578 8.01951 20.7313 7.57029 20.2438 7.29685C19.7563 7.02342 17.9688 6.06638 17.7047 5.92967C17.4406 5.79295 16.7703 5.73435 16.3844 5.92967C15.9578 6.14451 14.6375 6.74998 14.0891 7.04295C13.9469 7.12107 13.7641 7.23826 13.7235 7.31638C13.6828 7.39451 13.6219 7.33592 13.6219 7.31638C13.6219 7.29685 13.6016 6.53513 13.4594 6.53513C13.4391 6.71092 13.4391 6.86717 13.4391 6.86717L13.4594 15.0312L13.8656 16.0078Z" fill="#B55E19"/>
</g>
</svg>
