<svg width="25" height="26" viewBox="0 0 25 26" fill="none" xmlns="http://www.w3.org/2000/svg">
<g clip-path="url(#clip0_291_3223)">
<path d="M7.30662 8.69335C5.41013 11.1309 5.44334 15.4609 7.86717 17.6074C10.6191 20.043 14.4922 20.0176 16.9277 17.7773C19.8476 15.0898 19.6797 10.6172 17.0976 8.08398C14.5019 5.5371 9.86326 5.40429 7.30662 8.69335Z" fill="#FCC11A"/>
<path d="M10.3519 7.8575C9.60189 7.52546 8.78158 8.42976 8.42416 9.04695C8.06674 9.66609 7.73471 10.879 8.49643 11.1895C9.25814 11.4981 9.80502 10.9747 10.3538 10.0704C10.8988 9.16609 11.2093 8.23836 10.3519 7.8575Z" fill="#FEE269"/>
<path d="M12.3047 4.45904C12.123 4.79888 12.1836 5.0606 12.5449 5.14654C12.9062 5.23247 15.1543 5.59771 15.3437 5.60943C15.6191 5.62701 15.7207 5.41997 15.6875 5.17974C15.6523 4.93951 15.1035 1.57427 15.0527 1.26568C15.0019 0.957084 14.6758 0.64849 14.3652 1.0606C14.0547 1.47271 12.4414 4.20318 12.3047 4.45904ZM18.125 6.79497C17.7715 6.90435 17.7812 7.12115 17.9707 7.39654C18.1601 7.67193 19.4648 9.66216 19.584 9.80083C19.7051 9.93755 19.9101 9.97271 20.082 9.76568C20.2539 9.5606 22.3984 6.55279 22.5547 6.36529C22.8125 6.05669 22.6582 5.73052 22.2636 5.83208C21.9629 5.91216 18.3476 6.72661 18.125 6.79497ZM20.8203 12.5821C20.5664 12.4376 20.2363 12.4786 20.1504 12.8047C20.0644 13.1309 19.6875 15.5001 19.6523 15.7071C19.6172 15.9141 19.7734 16.1192 20.0293 16.0684C20.2851 16.0176 23.8281 15.4922 24.0644 15.4336C24.4765 15.3301 24.6133 14.918 24.1855 14.6094C23.9082 14.4083 21.0605 12.7188 20.8203 12.5821ZM17.9863 18.1954C18.2597 18.0489 18.5019 18.1602 18.5703 18.4708C18.6386 18.7794 19.3945 21.9395 19.5156 22.5235C19.5761 22.8165 19.2402 23.0567 18.9668 22.8848C18.6914 22.7129 15.707 20.6329 15.5156 20.4629C15.2402 20.2227 15.4316 19.9727 15.5664 19.8458C15.8398 19.586 17.7285 18.334 17.9863 18.1954ZM9.67576 19.9297C9.33006 19.8965 9.22849 20.2051 9.28123 20.4786C9.33201 20.754 9.84763 24.2364 9.88279 24.4961C9.93357 24.8731 10.3301 25.0293 10.5859 24.6504C10.8418 24.2715 12.6074 21.4473 12.75 21.1817C13.0078 20.7012 12.8183 20.5977 12.5605 20.4786C12.3047 20.3594 10.0371 19.9649 9.67576 19.9297ZM4.7324 15.9297C4.97263 15.5352 5.28123 15.6387 5.50584 16.0157C5.65818 16.2735 6.94724 18.0079 7.06834 18.1954C7.18943 18.3848 7.24021 18.7442 6.86326 18.8301C6.4824 18.918 3.41013 19.7247 2.92966 19.8106C2.4492 19.8965 2.17381 19.5196 2.4824 19.1075C2.66209 18.8653 4.59568 16.1543 4.7324 15.9297ZM4.08006 12.9415C4.51951 13.1368 4.72654 13.0665 4.81834 12.752C4.93943 12.3399 5.29881 10.4512 5.31638 10.0215C5.3281 9.74224 5.21287 9.47271 4.78318 9.54107C4.35349 9.60943 1.26365 10.0411 0.869118 10.1778C0.410133 10.3379 0.443336 10.8418 0.748024 11.002C1.10935 11.1915 3.76951 12.8047 4.08006 12.9415ZM9.4199 5.73052C9.66795 5.53326 9.59177 5.25005 9.36912 5.09576C9.14646 4.94146 6.38865 2.94732 6.03904 2.67388C5.73045 2.43365 5.35154 2.51958 5.45506 3.06841C5.52927 3.46294 6.40818 6.91607 6.46873 7.15435C6.53709 7.42974 6.74412 7.56646 6.98435 7.39458C7.22068 7.22466 9.16209 5.93755 9.4199 5.73052Z" fill="#FFA722"/>
</g>
<defs>
<clipPath id="clip0_291_3223">
<rect width="25" height="25" fill="white" transform="translate(0 0.5)"/>
</clipPath>
</defs>
</svg>
