<svg width="162" height="53" viewBox="0 0 162 53" fill="none" xmlns="http://www.w3.org/2000/svg">
<rect width="162" height="53" rx="10" fill="white" fill-opacity="0.15"/>
<path d="M136.602 22.3552C135.995 20.4907 135.067 18.8497 133.807 17.4322C132.631 16.0202 131.099 14.8889 129.211 14.0521C127.559 13.2343 125.594 12.8281 123.316 12.8281H117.617C117.095 12.8281 116.638 13.0244 116.24 13.4169C115.848 13.8095 115.652 14.2865 115.652 14.8344V19.8746H119.582V16.7616H123.316C126.41 16.7616 128.936 17.8547 130.901 20.03C132.814 22.1807 133.584 24.7758 133.216 27.8234C132.955 30.2876 131.878 32.362 129.992 34.0412C128.106 35.6958 125.918 36.5191 123.433 36.5191H119.582V33.1199H115.652V38.4872C115.652 39.0106 115.848 39.474 116.24 39.8665C116.638 40.259 117.095 40.4553 117.617 40.4553H123.433C126.919 40.4553 129.981 39.2859 132.629 36.9498C135.247 34.6409 136.754 31.746 137.146 28.2541C137.38 26.5204 137.198 24.5523 136.599 22.3498L136.602 22.3552Z" fill="white"/>
<path d="M51.3292 21.4719C50.6189 19.7518 49.6066 18.228 48.2949 16.9223C47.903 16.5298 47.4267 16.3335 46.8661 16.3335C46.2865 16.3853 45.8293 16.5816 45.4891 16.9223L37.8583 24.5658C37.4664 24.9583 37.2704 25.4217 37.2704 25.9451C37.2704 26.5067 37.4664 26.9837 37.8583 27.3762C38.2501 27.7688 38.6992 27.9378 39.2625 27.9378C39.8041 27.9568 40.2749 27.7688 40.6667 27.3762L46.7573 21.2756C48.0309 23.151 48.5452 25.2582 48.2976 27.597C48.0744 29.9631 47.1301 31.9776 45.4646 33.6458C43.5596 35.554 41.2491 36.5026 38.5332 36.4835C35.8254 36.5026 33.5149 35.554 31.6017 33.6458C29.675 31.7159 28.7089 29.4016 28.7089 26.7029C28.7143 24.0424 29.6559 21.7281 31.5473 19.76C33.7925 17.5111 36.5601 16.5162 39.8503 16.7779C41.2001 16.8951 42.0247 16.4044 42.3241 15.3195C42.4874 14.777 42.4221 14.2591 42.1281 13.7712C41.8478 13.2669 41.4369 12.967 40.8872 12.8743C36.024 12.201 31.9773 13.5531 28.7388 16.9469C27.4461 18.2417 26.4474 19.7518 25.7371 21.4719C25.0785 23.1401 24.752 24.8793 24.752 26.6757C24.752 28.472 25.084 30.2057 25.7371 31.874C26.4283 33.5804 27.4461 35.1042 28.7905 36.4563C30.1022 37.7647 31.6181 38.776 33.3407 39.4902C35.0062 40.1444 36.7343 40.4715 38.5304 40.4715C40.3266 40.477 42.0547 40.1444 43.7256 39.4902C45.4428 38.7787 46.9559 37.7647 48.2676 36.4563C49.612 35.1042 50.638 33.5804 51.3292 31.874C51.9824 30.2057 52.3089 28.4748 52.3089 26.6757C52.3089 24.8766 51.9824 23.1374 51.3292 21.4719Z" fill="white"/>
<path d="M68.7765 36.5736C63.2276 36.5736 58.7128 32.0486 58.7128 26.4932C58.7128 20.9378 63.2303 16.4046 68.7765 16.4046C71.8055 16.4046 74.5214 17.7512 76.3665 19.8774H81.0528C78.6961 15.5023 74.0751 12.5283 68.7738 12.5283C61.0858 12.5283 54.832 18.7925 54.832 26.4932C54.832 34.1939 61.0858 40.4581 68.7738 40.4581C74.0669 40.4581 78.6824 37.4895 81.0446 33.1226H76.3448C74.5051 35.2352 71.7891 36.5736 68.7738 36.5736H68.7765Z" fill="white"/>
<path d="M99.1872 16.4046C102.216 16.4046 104.938 17.7512 106.785 19.8774H111.466C109.109 15.5023 104.488 12.5283 99.1872 12.5283C93.8859 12.5283 89.2649 15.5023 86.9082 19.8774H91.5945C93.4423 17.7539 96.1583 16.4046 99.1845 16.4046H99.1872ZM99.1872 36.5736C96.1719 36.5736 93.4559 35.2325 91.6162 33.1226H86.9164C89.2785 37.4895 93.8941 40.4581 99.1872 40.4581C104.48 40.4581 109.096 37.4895 111.458 33.1226H106.766C104.927 35.2352 102.211 36.5736 99.1872 36.5736Z" fill="white"/>
<path d="M77.7969 30.9934V21.9951H79.6257V25.6942H81.2122V21.9951H83.041V30.9934H81.2122V27.0054H79.6257V30.9934H77.7969Z" fill="white"/>
<path d="M90.2616 31.1135C89.6031 31.1135 89.0833 30.9963 88.6968 30.7592C88.3131 30.522 88.0355 30.184 87.8695 29.7424C87.7035 29.3008 87.6191 28.7747 87.6191 28.1586V24.803C87.6191 24.187 87.7035 23.6636 87.8695 23.2247C88.0355 22.7886 88.3131 22.4533 88.6968 22.2243C89.0805 21.9953 89.6031 21.8809 90.2616 21.8809C90.9202 21.8809 91.4536 21.9981 91.8428 22.2298C92.2319 22.4642 92.5095 22.7968 92.6755 23.2302C92.8415 23.6636 92.9259 24.187 92.9259 24.803V28.1586C92.9259 28.7747 92.8415 29.3008 92.6755 29.7424C92.5095 30.184 92.2319 30.522 91.8428 30.7592C91.4536 30.9963 90.9284 31.1135 90.2616 31.1135ZM90.2616 29.7915C90.4984 29.7915 90.6726 29.737 90.7841 29.6306C90.8957 29.5243 90.9692 29.3799 91.0046 29.1972C91.0427 29.0146 91.059 28.821 91.059 28.6139V24.3587C91.059 24.1515 91.04 23.958 91.0046 23.7808C90.9665 23.6036 90.893 23.4619 90.7841 23.3529C90.6753 23.2438 90.4984 23.192 90.2616 23.192C90.0412 23.192 89.8725 23.2465 89.7636 23.3529C89.652 23.4592 89.5786 23.6036 89.5405 23.7808C89.5024 23.958 89.486 24.1515 89.486 24.3587V28.6139C89.486 28.821 89.5024 29.0146 89.535 29.1972C89.5677 29.3799 89.6412 29.5243 89.75 29.6306C89.8589 29.737 90.0303 29.7915 90.2589 29.7915H90.2616Z" fill="white"/>
<path d="M99.9977 31.1136C99.3174 31.1136 98.7894 30.9964 98.4112 30.7647C98.0329 30.5302 97.7689 30.195 97.6192 29.7534C97.4668 29.3118 97.3906 28.7775 97.3906 28.1478V21.9927H99.1976V28.4013C99.1976 28.6248 99.214 28.8429 99.2466 29.0555C99.2793 29.2709 99.3528 29.4453 99.4671 29.5789C99.5814 29.7125 99.7583 29.7779 99.995 29.7779C100.232 29.7779 100.417 29.7125 100.534 29.5789C100.651 29.4453 100.722 29.2709 100.749 29.0555C100.779 28.8402 100.792 28.6221 100.792 28.4013V21.9927H102.599V28.1478C102.599 28.7775 102.523 29.3118 102.371 29.7534C102.218 30.195 101.954 30.5302 101.579 30.7647C101.201 30.9991 100.673 31.1136 99.9923 31.1136H99.9977Z" fill="white"/>
<path d="M109.534 31.1135C108.979 31.1135 108.519 31.0127 108.149 30.8082C107.779 30.6038 107.501 30.2985 107.311 29.8869C107.123 29.4753 107.012 28.9519 106.984 28.314L108.56 28.0469C108.574 28.4176 108.614 28.7256 108.677 28.9737C108.74 29.2218 108.835 29.4071 108.966 29.5298C109.096 29.6524 109.257 29.7124 109.447 29.7124C109.684 29.7124 109.845 29.6388 109.929 29.4916C110.013 29.3444 110.057 29.1727 110.057 28.9791C110.057 28.6002 109.967 28.284 109.785 28.0305C109.602 27.7743 109.366 27.5181 109.069 27.2591L108.138 26.4468C107.806 26.166 107.534 25.8471 107.322 25.49C107.112 25.1356 107.006 24.6967 107.006 24.1788C107.006 23.4374 107.221 22.8704 107.654 22.4751C108.087 22.0799 108.68 21.8809 109.434 21.8809C109.885 21.8809 110.256 21.9545 110.544 22.1044C110.832 22.2516 111.056 22.4506 111.213 22.6986C111.371 22.9467 111.483 23.2166 111.545 23.5082C111.608 23.7999 111.646 24.0916 111.662 24.3805L110.098 24.615C110.084 24.3396 110.06 24.0998 110.027 23.8926C109.994 23.6854 109.926 23.5219 109.828 23.4046C109.728 23.2874 109.578 23.2275 109.379 23.2275C109.164 23.2275 109.006 23.3065 108.903 23.4673C108.8 23.6254 108.748 23.8026 108.748 23.9962C108.748 24.3151 108.819 24.5768 108.963 24.7785C109.107 24.9802 109.306 25.1956 109.556 25.4164L110.465 26.2151C110.843 26.5422 111.164 26.9129 111.437 27.3327C111.706 27.7525 111.842 28.2677 111.842 28.8837C111.842 29.3063 111.744 29.6879 111.554 30.0286C111.36 30.3694 111.094 30.6365 110.748 30.8273C110.405 31.0181 110 31.1163 109.534 31.1163V31.1135Z" fill="white"/>
<path d="M116.133 30.9934V21.9951H120.047V23.2627H117.962V25.6506H119.57V26.929H117.962V29.7503H120.068V30.9934H116.131H116.133Z" fill="white"/>
</svg>
