<svg width="108" height="26" viewBox="0 0 108 26" fill="none" xmlns="http://www.w3.org/2000/svg">
<g clip-path="url(#clip0_291_3356)">
<path d="M107.373 9.15003C106.795 7.41396 105.902 5.88853 104.696 4.56892C103.564 3.25173 102.094 2.20088 100.284 1.4188C98.6991 0.663348 96.8122 0.283203 94.6263 0.283203H89.1578C88.6543 0.283203 88.2156 0.467223 87.8392 0.83284C87.4604 1.19846 87.2734 1.63914 87.2734 2.15245V7.10161H91.0446V3.94664H94.6263C97.5924 3.94664 100.018 4.96117 101.904 6.9878C103.739 8.99023 104.482 11.4091 104.13 14.242C103.878 16.5374 102.847 18.4672 101.037 20.029C99.2275 21.5689 97.1263 22.3365 94.7385 22.3365H91.0446V18.8885H87.2734V24.1694C87.2734 24.6585 87.4604 25.0847 87.8392 25.4503C88.2156 25.8183 88.6543 25.9999 89.1578 25.9999H94.7385C98.0834 25.9999 101.025 24.9152 103.564 22.7408C106.077 20.5907 107.523 17.8934 107.901 14.644C108.128 13.0314 107.951 11.2009 107.373 9.15003Z" fill="white"/>
<path d="M26.3898 11.5521C26.158 9.83051 25.5972 8.22276 24.7099 6.72639C24.4432 6.27845 24.0493 5.98547 23.5284 5.84988C22.9776 5.76271 22.504 5.82809 22.1077 6.05085L13.1347 11.0823C12.6736 11.3414 12.377 11.707 12.2474 12.1768C12.1078 12.6828 12.1726 13.1598 12.4393 13.6077C12.6935 14.0363 13.0799 14.3172 13.6008 14.4528C14.0993 14.6005 14.5778 14.5448 15.039 14.2857L22.1974 10.2712C22.9128 12.2639 22.8654 14.2833 22.0603 16.3293C21.2652 18.3995 19.8919 19.9806 17.9328 21.0799C15.692 22.3366 13.3141 22.6295 10.8042 21.9588C8.28429 21.322 6.37752 19.9128 5.08392 17.7337C3.77536 15.5351 3.45632 13.2203 4.12431 10.7942C4.78482 8.40194 6.23545 6.54964 8.47372 5.23729C11.1133 3.75787 13.9273 3.53269 16.9133 4.56174C18.1346 4.98789 19.017 4.74818 19.5653 3.84504C19.8545 3.39709 19.9218 2.91768 19.7672 2.40678C19.6326 1.88378 19.3236 1.51574 18.845 1.30024C14.5031 -0.47942 10.4129 -0.234867 6.56945 2.0339C5.05401 2.88378 3.75043 3.99758 2.6637 5.37772C1.64427 6.71913 0.911474 8.19855 0.465316 9.81356C0.0191588 11.4334 -0.107959 13.0702 0.0864563 14.7264C0.303304 16.4286 0.871594 18.046 1.78385 19.5835C2.67367 21.0799 3.8277 22.3559 5.24593 23.4092C6.62677 24.4019 8.14969 25.1138 9.81468 25.5472C11.4797 25.9806 13.1646 26.1041 14.872 25.9153C16.6441 25.6901 18.2991 25.1477 19.837 24.2833C21.4223 23.3947 22.7458 22.2688 23.8101 20.9031C24.8295 19.5617 25.5648 18.0823 26.0109 16.4649C26.4571 14.8475 26.5817 13.2107 26.3898 11.5521Z" fill="white"/>
<path d="M49.8 18.8886C48.0278 21.0218 45.316 22.3874 42.2826 22.3874C36.9562 22.3874 32.6192 18.1768 32.6192 13C32.6192 7.82324 36.9562 3.61501 42.2826 3.61501C45.311 3.61501 48.0179 4.97579 49.79 7.1017H54.2018C51.9884 2.89104 47.4745 0 42.2826 0C34.9023 0 28.9004 5.83293 28.9004 13C28.9004 20.1671 34.9023 26 42.2826 26C47.4795 26 51.9984 23.1065 54.2092 18.8886H49.8Z" fill="white"/>
<path d="M71.4696 0C66.2752 0 61.7638 2.89104 59.5504 7.1017H63.9597C65.7318 4.97579 68.4387 3.61501 71.4696 3.61501C74.5005 3.61501 77.2048 4.97579 78.977 7.1017H83.3887C81.1754 2.89104 76.6615 0 71.4696 0ZM78.987 18.8886C77.2148 21.0218 74.5029 22.3874 71.4696 22.3874C68.4362 22.3874 65.7219 21.0218 63.9497 18.8886H59.543C61.7538 23.1065 66.2702 26 71.4696 26C76.6689 26 81.1853 23.1065 83.3962 18.8886H78.987Z" fill="white"/>
<path d="M50.7578 17.184V8.80872H52.515V12.2518H54.0379V8.80872H55.7952V17.184H54.0379V13.4722H52.515V17.184H50.7578Z" fill="white"/>
<path d="M62.4327 17.2978C61.8021 17.2978 61.3011 17.1865 60.9322 16.9661C60.5633 16.7458 60.2991 16.431 60.1396 16.0194C59.9801 15.6102 59.9003 15.1187 59.9003 14.5472V11.4237C59.9003 10.8523 59.9801 10.3632 60.1396 9.95643C60.2991 9.54965 60.5633 9.23972 60.9322 9.02664C61.3011 8.81357 61.8021 8.70703 62.4327 8.70703C63.0633 8.70703 63.5767 8.81599 63.9481 9.03391C64.3195 9.25183 64.5862 9.56175 64.7457 9.96369C64.9052 10.3656 64.985 10.8547 64.985 11.4262V14.5496C64.985 15.1211 64.9052 15.6126 64.7457 16.0218C64.5862 16.431 64.3195 16.7482 63.9481 16.9685C63.5767 17.1889 63.0708 17.3003 62.4327 17.3003V17.2978ZM62.4327 16.0678C62.6595 16.0678 62.8265 16.017 62.9337 15.9177C63.0408 15.8184 63.1106 15.6828 63.1455 15.5133C63.1804 15.3438 63.1979 15.1647 63.1979 14.971V11.0097C63.1979 10.816 63.1804 10.6368 63.1455 10.4722C63.1106 10.3075 63.0384 10.1743 62.9337 10.0751C62.829 9.9758 62.6595 9.92495 62.4327 9.92495C62.2208 9.92495 62.0613 9.9758 61.9541 10.0751C61.8469 10.1743 61.7771 10.3075 61.7398 10.4722C61.7049 10.6368 61.6874 10.816 61.6874 11.0097V14.971C61.6874 15.1647 61.7024 15.3438 61.7348 15.5133C61.7672 15.6828 61.837 15.816 61.9417 15.9177C62.0463 16.0194 62.2108 16.0678 62.4302 16.0678H62.4327Z" fill="white"/>
<path d="M71.5982 17.2977C70.9451 17.2977 70.4392 17.1887 70.0753 16.9708C69.7138 16.7529 69.4596 16.4406 69.315 16.0314C69.1705 15.6222 69.0957 15.1234 69.0957 14.5374V8.80859H70.8305V14.7747C70.8305 14.9805 70.8454 15.1839 70.8778 15.3849C70.9102 15.5858 70.98 15.7456 71.0897 15.8715C71.1994 15.9975 71.3689 16.058 71.5957 16.058C71.8225 16.058 72.002 15.995 72.1116 15.8715C72.2213 15.7481 72.2911 15.5858 72.3185 15.3849C72.3459 15.1863 72.3609 14.9829 72.3609 14.7747V8.80859H74.0957V14.5374C74.0957 15.1234 74.0234 15.6222 73.8763 16.0314C73.7293 16.4406 73.4775 16.7553 73.1161 16.9708C72.7547 17.1887 72.2462 17.2977 71.5932 17.2977H71.5982Z" fill="white"/>
<path d="M80.8676 17.2978C80.3342 17.2978 79.893 17.2034 79.5366 17.0145C79.1801 16.8257 78.9134 16.54 78.734 16.1574C78.552 15.7748 78.4199 15.2615 78.4199 14.4455H79.9304C79.9428 14.7894 79.9827 15.0775 80.0425 15.3099C80.1024 15.54 80.1946 15.7119 80.3192 15.8257C80.4438 15.9395 80.5984 15.9952 80.7828 15.9952C81.0096 15.9952 81.1642 15.9274 81.2464 15.7894C81.3287 15.6513 81.3686 15.494 81.3686 15.3124C81.3686 14.9613 81.2813 14.6659 81.1093 14.4286C80.9349 14.1913 80.7055 13.9516 80.4239 13.7095L79.5291 12.954C79.21 12.6925 78.9483 12.3947 78.7464 12.0654C78.5445 11.7337 78.4424 11.3269 78.4424 10.845C78.4424 10.155 78.6492 9.62713 79.0655 9.25909C79.4817 8.89105 80.05 8.70703 80.7728 8.70703C81.204 8.70703 81.5605 8.77483 81.8371 8.91284C82.1138 9.05086 82.3282 9.23488 82.4802 9.4649C82.6322 9.69493 82.7394 9.94674 82.7992 10.2203C82.8591 10.494 82.8965 10.9806 82.9114 11.2494H81.4109C81.396 10.9952 81.3735 10.77 81.3411 10.5763C81.3087 10.3826 81.2464 10.2325 81.1492 10.1211C81.0545 10.0097 80.9099 9.95643 80.718 9.95643C80.5136 9.95643 80.3591 10.0315 80.2594 10.1792C80.1597 10.3269 80.1098 10.4915 80.1098 10.6707C80.1098 10.9661 80.1796 11.2107 80.3167 11.3995C80.4563 11.5884 80.6457 11.7869 80.885 11.9927L81.7574 12.7361C82.1188 13.0388 82.4304 13.385 82.6896 13.7748C82.9488 14.1647 83.0784 14.6441 83.0784 15.2179C83.0784 15.6102 82.9862 15.9661 82.8017 16.2833C82.6173 16.6005 82.3606 16.8475 82.0291 17.0266C81.7001 17.2058 81.3112 17.2954 80.8651 17.2954L80.8676 17.2978Z" fill="white"/>
<path d="M87.4029 17.1839V8.80859H91.1591V9.98777H89.1576V12.2105H90.7005V13.3994H89.1576V16.0265H91.179V17.1839H87.4004H87.4029Z" fill="white"/>
</g>
<defs>
<clipPath id="clip0_291_3356">
<rect width="108" height="26" fill="white"/>
</clipPath>
</defs>
</svg>
