<svg width="110" height="37" viewBox="0 0 110 37" fill="none" xmlns="http://www.w3.org/2000/svg">
<path d="M92.754 15.6065C92.3419 14.3048 91.7118 13.1592 90.8562 12.1697C90.0579 11.1839 89.0176 10.3942 87.7351 9.80996C86.6135 9.23906 85.2793 8.95551 83.7327 8.95551H79.8632C79.5084 8.95551 79.198 9.09253 78.9282 9.36656C78.6621 9.64059 78.5291 9.97362 78.5291 10.3561V13.8748H81.1974V11.7015H83.7327C85.8337 11.7015 87.5485 12.4646 88.8827 13.9832C90.1817 15.4847 90.7047 17.2964 90.4552 19.4239C90.2778 21.1442 89.5461 22.5924 88.2655 23.7646C86.9849 24.9198 85.4992 25.4945 83.8121 25.4945H81.1974V23.1214H78.5291V26.8684C78.5291 27.2338 78.6621 27.5573 78.9282 27.8314C79.198 28.1054 79.5084 28.2424 79.8632 28.2424H83.8121C86.1792 28.2424 88.2581 27.426 90.0561 25.7951C91.8337 24.1833 92.8574 22.1623 93.1235 19.7246C93.2824 18.5143 93.1586 17.1403 92.7521 15.6027L92.754 15.6065Z" fill="#1D1D1B"/>
<path d="M34.8527 14.9899C34.3704 13.7891 33.683 12.7254 32.7923 11.8138C32.5262 11.5398 32.2029 11.4028 31.8222 11.4028C31.4286 11.4389 31.1181 11.5759 30.8872 11.8138L25.7057 17.1498C25.4396 17.4239 25.3066 17.7474 25.3066 18.1127C25.3066 18.5048 25.4396 18.8378 25.7057 19.1118C25.9718 19.3858 26.2767 19.5038 26.6592 19.5038C27.027 19.5172 27.3466 19.3858 27.6127 19.1118L31.7483 14.8529C32.6131 16.1622 32.9623 17.6332 32.7942 19.266C32.6426 20.9178 32.0014 22.3241 30.8705 23.4887C29.577 24.8208 28.0082 25.4831 26.164 25.4697C24.3254 25.4831 22.7565 24.8208 21.4575 23.4887C20.1492 22.1414 19.4932 20.5257 19.4932 18.6418C19.4969 16.7844 20.1363 15.1688 21.4205 13.7948C22.945 12.2249 24.8243 11.5303 27.0584 11.713C27.9749 11.7948 28.5348 11.4522 28.7381 10.6949C28.849 10.3162 28.8046 9.95458 28.605 9.61395C28.4147 9.26189 28.1357 9.05256 27.7624 8.98786C24.4603 8.51782 21.7125 9.46171 19.5135 11.8309C18.6358 12.7349 17.9576 13.7891 17.4753 14.9899C17.0281 16.1546 16.8064 17.3687 16.8064 18.6227C16.8064 19.8768 17.0318 21.0871 17.4753 22.2518C17.9447 23.443 18.6358 24.5068 19.5486 25.4507C20.4393 26.3641 21.4686 27.0702 22.6383 27.5687C23.7692 28.0255 24.9426 28.2538 26.1622 28.2538C27.3818 28.2576 28.5552 28.0255 29.6897 27.5687C30.8558 27.0721 31.8832 26.3641 32.7738 25.4507C33.6867 24.5068 34.3833 23.443 34.8527 22.2518C35.2962 21.0871 35.5179 19.8787 35.5179 18.6227C35.5179 17.3668 35.2962 16.1527 34.8527 14.9899Z" fill="#1D1D1B"/>
<path d="M46.6994 25.5325C42.9316 25.5325 39.866 22.3736 39.866 18.4952C39.866 14.6169 42.9335 11.4522 46.6994 11.4522C48.7561 11.4522 50.6003 12.3923 51.8531 13.8767H55.0352C53.4349 10.8224 50.2972 8.74618 46.6976 8.74618C41.4774 8.74618 37.231 13.1193 37.231 18.4952C37.231 23.8712 41.4774 28.2443 46.6976 28.2443C50.2917 28.2443 53.4257 26.1719 55.0296 23.1233H51.8384C50.5892 24.5982 48.745 25.5325 46.6976 25.5325H46.6994Z" fill="#1D1D1B"/>
<path d="M67.3493 11.4522C69.406 11.4522 71.2539 12.3923 72.5086 13.8767H75.6869C74.0866 10.8224 70.949 8.74618 67.3493 8.74618C63.7497 8.74618 60.612 10.8224 59.0117 13.8767H62.1938C63.4485 12.3942 65.2926 11.4522 67.3475 11.4522H67.3493ZM67.3493 25.5325C65.3019 25.5325 63.4577 24.5963 62.2085 23.1233H59.0173C60.6212 26.1719 63.7552 28.2443 67.3493 28.2443C70.9434 28.2443 74.0774 26.1719 75.6814 23.1233H72.4956C71.2465 24.5982 69.4023 25.5325 67.3493 25.5325Z" fill="#1D1D1B"/>
<path d="M52.825 21.6371V15.3553H54.0667V17.9377H55.144V15.3553H56.3858V21.6371H55.144V18.853H54.0667V21.6371H52.825Z" fill="#116CF0"/>
<path d="M61.2882 21.7208C60.841 21.7208 60.4881 21.639 60.2257 21.4734C59.9651 21.3079 59.7766 21.0719 59.6639 20.7636C59.5512 20.4553 59.4939 20.0881 59.4939 19.658V17.3154C59.4939 16.8853 59.5512 16.5199 59.6639 16.2135C59.7766 15.9091 59.9651 15.675 60.2257 15.5151C60.4862 15.3553 60.841 15.2754 61.2882 15.2754C61.7354 15.2754 62.0975 15.3572 62.3618 15.519C62.626 15.6826 62.8145 15.9148 62.9272 16.2174C63.04 16.5199 63.0972 16.8853 63.0972 17.3154V19.658C63.0972 20.0881 63.04 20.4553 62.9272 20.7636C62.8145 21.0719 62.626 21.3079 62.3618 21.4734C62.0975 21.639 61.7409 21.7208 61.2882 21.7208ZM61.2882 20.7979C61.4489 20.7979 61.5672 20.7598 61.643 20.6856C61.7187 20.6114 61.7686 20.5105 61.7926 20.383C61.8185 20.2555 61.8296 20.1204 61.8296 19.9758V17.0052C61.8296 16.8606 61.8167 16.7255 61.7926 16.6018C61.7668 16.4781 61.7169 16.3791 61.643 16.303C61.5691 16.2269 61.4489 16.1907 61.2882 16.1907C61.1385 16.1907 61.0239 16.2288 60.95 16.303C60.8743 16.3772 60.8244 16.4781 60.7985 16.6018C60.7726 16.7255 60.7615 16.8606 60.7615 17.0052V19.9758C60.7615 20.1204 60.7726 20.2555 60.7948 20.383C60.817 20.5105 60.8669 20.6114 60.9408 20.6856C61.0147 20.7598 61.1311 20.7979 61.2863 20.7979H61.2882Z" fill="#116CF0"/>
<path d="M67.8999 21.7208C67.4379 21.7208 67.0794 21.639 66.8226 21.4772C66.5657 21.3136 66.3865 21.0795 66.2849 20.7712C66.1814 20.4629 66.1296 20.09 66.1296 19.6504V15.3534H67.3566V19.8273C67.3566 19.9834 67.3677 20.1356 67.3899 20.2841C67.4121 20.4344 67.462 20.5562 67.5396 20.6494C67.6172 20.7427 67.7373 20.7884 67.8981 20.7884C68.0588 20.7884 68.1845 20.7427 68.2639 20.6494C68.3434 20.5562 68.3914 20.4344 68.4099 20.2841C68.4302 20.1337 68.4395 19.9815 68.4395 19.8273V15.3534H69.6665V19.6504C69.6665 20.09 69.6147 20.4629 69.5112 20.7712C69.4078 21.0795 69.2285 21.3136 68.9735 21.4772C68.7167 21.6409 68.3582 21.7208 67.8962 21.7208H67.8999Z" fill="#116CF0"/>
<path d="M74.3748 21.7208C73.9978 21.7208 73.6855 21.6504 73.4342 21.5077C73.1829 21.365 72.9944 21.1518 72.8651 20.8645C72.7376 20.5771 72.6618 20.2117 72.6433 19.7664L73.7132 19.58C73.7225 19.8388 73.7502 20.0538 73.7927 20.227C73.8352 20.4001 73.8999 20.5295 73.9886 20.6152C74.0773 20.7008 74.1863 20.7427 74.3156 20.7427C74.4764 20.7427 74.5854 20.6913 74.6427 20.5885C74.7 20.4858 74.7296 20.3659 74.7296 20.2308C74.7296 19.9663 74.6686 19.7455 74.5448 19.5685C74.421 19.3897 74.2602 19.2108 74.0588 19.03L73.4268 18.4629C73.2014 18.2669 73.0166 18.0442 72.8724 17.7949C72.7302 17.5475 72.6581 17.2412 72.6581 16.8796C72.6581 16.362 72.8041 15.9662 73.0979 15.6902C73.3917 15.4143 73.7945 15.2754 74.3064 15.2754C74.6131 15.2754 74.8645 15.3267 75.0603 15.4314C75.2562 15.5342 75.4077 15.6731 75.5149 15.8463C75.6221 16.0194 75.6978 16.2078 75.7403 16.4115C75.7828 16.6151 75.8087 16.8187 75.8198 17.0204L74.7573 17.1841C74.748 16.9919 74.7314 16.8244 74.7092 16.6798C74.6871 16.5352 74.6409 16.421 74.5743 16.3391C74.506 16.2573 74.4043 16.2154 74.2694 16.2154C74.1235 16.2154 74.0163 16.2706 73.9461 16.3829C73.8758 16.4933 73.8407 16.617 73.8407 16.7521C73.8407 16.9747 73.8888 17.1574 73.9867 17.2983C74.0847 17.4391 74.2195 17.5894 74.3895 17.7436L75.0067 18.3011C75.2636 18.5295 75.4816 18.7883 75.6664 19.0814C75.8494 19.3744 75.9418 19.7341 75.9418 20.1642C75.9418 20.4591 75.8752 20.7256 75.7459 20.9634C75.6147 21.2013 75.4336 21.3878 75.1989 21.521C74.9661 21.6542 74.6907 21.7227 74.3748 21.7227V21.7208Z" fill="#116CF0"/>
<path d="M78.8558 21.6371V15.3553H81.5131V16.2402H80.0976V17.9072H81.1897V18.7997H80.0976V20.7693H81.5279V21.6371H78.854H78.8558Z" fill="#116CF0"/>
</svg>
