<svg width="108" height="26" viewBox="0 0 108 26" fill="none" xmlns="http://www.w3.org/2000/svg">
<g clip-path="url(#clip0_413_763)">
<path d="M107.373 9.15003C106.795 7.41396 105.902 5.88853 104.696 4.56892C103.564 3.25173 102.094 2.20088 100.284 1.4188C98.6991 0.663348 96.8122 0.283203 94.6263 0.283203H89.1578C88.6543 0.283203 88.2156 0.467223 87.8392 0.83284C87.4604 1.19846 87.2734 1.63914 87.2734 2.15245V7.10161H91.0446V3.94664H94.6263C97.5924 3.94664 100.018 4.96117 101.904 6.9878C103.739 8.99023 104.482 11.4091 104.13 14.242C103.878 16.5374 102.847 18.4672 101.037 20.029C99.2275 21.5689 97.1263 22.3365 94.7385 22.3365H91.0446V18.8885H87.2734V24.1694C87.2734 24.6585 87.4604 25.0847 87.8392 25.4503C88.2156 25.8183 88.6543 25.9999 89.1578 25.9999H94.7385C98.0834 25.9999 101.025 24.9152 103.564 22.7408C106.077 20.5907 107.523 17.8934 107.901 14.644C108.128 13.0314 107.951 11.2009 107.373 9.15003Z" fill="black"/>
<path d="M26.3896 11.5521C26.1578 9.83051 25.597 8.22276 24.7097 6.7264C24.443 6.27845 24.0492 5.98548 23.5282 5.84988C22.9774 5.76272 22.5038 5.82809 22.1075 6.05085L13.1345 11.0823C12.6734 11.3414 12.3768 11.707 12.2472 12.1768C12.1076 12.6828 12.1724 13.1598 12.4391 13.6078C12.6933 14.0363 13.0797 14.3172 13.6006 14.4528C14.0991 14.6005 14.5777 14.5448 15.0388 14.2857L22.1972 10.2712C22.9126 12.2639 22.8652 14.2833 22.0602 16.3293C21.265 18.3995 19.8917 19.9806 17.9326 21.0799C15.6918 22.3366 13.314 22.6295 10.804 21.9588C8.28411 21.322 6.37735 19.9128 5.08374 17.7337C3.77518 15.5351 3.45614 13.2203 4.12413 10.7942C4.78464 8.40194 6.23528 6.54964 8.47354 5.23729C11.1131 3.75787 13.9271 3.53269 16.9131 4.56175C18.1345 4.9879 19.0168 4.74819 19.5652 3.84504C19.8543 3.3971 19.9216 2.91768 19.7671 2.40678C19.6325 1.88378 19.3234 1.51574 18.8448 1.30025C14.5029 -0.479416 10.4127 -0.234864 6.56927 2.0339C5.05383 2.88378 3.75025 3.99758 2.66353 5.37773C1.64409 6.71913 0.911298 8.19855 0.465141 9.81356C0.0189833 11.4334 -0.108134 13.0702 0.0862808 14.7264C0.303128 16.4286 0.871418 18.046 1.78367 19.5835C2.6735 21.0799 3.82752 22.3559 5.24575 23.4092C6.6266 24.4019 8.14952 25.1138 9.81451 25.5472C11.4795 25.9806 13.1644 26.1041 14.8718 25.9153C16.644 25.6901 18.299 25.1477 19.8368 24.2833C21.4221 23.3947 22.7456 22.2688 23.8099 20.9032C24.8293 19.5617 25.5646 18.0823 26.0108 16.4649C26.4569 14.8475 26.5815 13.2107 26.3896 11.5521Z" fill="black"/>
<path d="M49.8 18.8886C48.0278 21.0218 45.316 22.3874 42.2826 22.3874C36.9562 22.3874 32.6192 18.1768 32.6192 13C32.6192 7.82324 36.9562 3.61501 42.2826 3.61501C45.311 3.61501 48.0179 4.97579 49.79 7.1017H54.2018C51.9884 2.89104 47.4745 0 42.2826 0C34.9023 0 28.9004 5.83293 28.9004 13C28.9004 20.1671 34.9023 26 42.2826 26C47.4795 26 51.9984 23.1065 54.2092 18.8886H49.8Z" fill="black"/>
<path d="M71.4696 0C66.2752 0 61.7638 2.89104 59.5504 7.1017H63.9597C65.7318 4.97579 68.4387 3.61501 71.4696 3.61501C74.5005 3.61501 77.2048 4.97579 78.977 7.1017H83.3887C81.1754 2.89104 76.6615 0 71.4696 0ZM78.987 18.8886C77.2148 21.0218 74.5029 22.3874 71.4696 22.3874C68.4362 22.3874 65.7219 21.0218 63.9497 18.8886H59.543C61.7538 23.1065 66.2702 26 71.4696 26C76.6689 26 81.1853 23.1065 83.3962 18.8886H78.987Z" fill="black"/>
<path d="M50.7578 17.184V8.80873H52.515V12.2518H54.0379V8.80873H55.7952V17.184H54.0379V13.4722H52.515V17.184H50.7578Z" fill="#116CF0"/>
<path d="M62.4328 17.2978C61.8022 17.2978 61.3012 17.1865 60.9323 16.9661C60.5634 16.7458 60.2992 16.431 60.1397 16.0194C59.9801 15.6102 59.9004 15.1187 59.9004 14.5472V11.4237C59.9004 10.8523 59.9801 10.3632 60.1397 9.95643C60.2992 9.54965 60.5634 9.23972 60.9323 9.02664C61.3012 8.81357 61.8022 8.70703 62.4328 8.70703C63.0634 8.70703 63.5768 8.81599 63.9482 9.03391C64.3196 9.25183 64.5863 9.56175 64.7458 9.96369C64.9053 10.3656 64.9851 10.8547 64.9851 11.4262V14.5496C64.9851 15.1211 64.9053 15.6126 64.7458 16.0218C64.5863 16.431 64.3196 16.7482 63.9482 16.9685C63.5768 17.1889 63.0708 17.3003 62.4328 17.3003V17.2978ZM62.4328 16.0678C62.6596 16.0678 62.8266 16.017 62.9338 15.9177C63.0409 15.8184 63.1107 15.6828 63.1456 15.5133C63.1805 15.3438 63.198 15.1647 63.198 14.971V11.0097C63.198 10.816 63.1805 10.6368 63.1456 10.4722C63.1107 10.3075 63.0384 10.1743 62.9338 10.0751C62.8291 9.9758 62.6596 9.92495 62.4328 9.92495C62.2209 9.92495 62.0614 9.9758 61.9542 10.0751C61.847 10.1743 61.7772 10.3075 61.7399 10.4722C61.705 10.6368 61.6875 10.816 61.6875 11.0097V14.971C61.6875 15.1647 61.7025 15.3438 61.7349 15.5133C61.7673 15.6828 61.8371 15.816 61.9417 15.9177C62.0464 16.0194 62.2109 16.0678 62.4303 16.0678H62.4328Z" fill="#116CF0"/>
<path d="M71.5982 17.2977C70.9451 17.2977 70.4392 17.1887 70.0753 16.9708C69.7138 16.7529 69.4596 16.4406 69.315 16.0314C69.1705 15.6222 69.0957 15.1234 69.0957 14.5374V8.80859H70.8305V14.7747C70.8305 14.9805 70.8454 15.1839 70.8778 15.3849C70.9102 15.5858 70.98 15.7456 71.0897 15.8715C71.1994 15.9975 71.3689 16.058 71.5957 16.058C71.8225 16.058 72.002 15.995 72.1116 15.8715C72.2213 15.7481 72.2911 15.5858 72.3185 15.3849C72.3459 15.1863 72.3609 14.9829 72.3609 14.7747V8.80859H74.0957V14.5374C74.0957 15.1234 74.0234 15.6222 73.8763 16.0314C73.7293 16.4406 73.4775 16.7553 73.1161 16.9708C72.7547 17.1887 72.2462 17.2977 71.5932 17.2977H71.5982Z" fill="#116CF0"/>
<path d="M80.8676 17.2978C80.3342 17.2978 79.893 17.2034 79.5366 17.0145C79.1801 16.8257 78.9134 16.54 78.734 16.1574C78.552 15.7748 78.4199 15.2615 78.4199 14.4455H79.9304C79.9428 14.7894 79.9827 15.0775 80.0425 15.3099C80.1024 15.54 80.1946 15.7119 80.3192 15.8257C80.4438 15.9395 80.5984 15.9952 80.7828 15.9952C81.0096 15.9952 81.1642 15.9274 81.2464 15.7894C81.3287 15.6513 81.3686 15.494 81.3686 15.3124C81.3686 14.9613 81.2813 14.6659 81.1093 14.4286C80.9349 14.1913 80.7055 13.9516 80.4239 13.7095L79.5291 12.954C79.21 12.6925 78.9483 12.3947 78.7464 12.0654C78.5445 11.7337 78.4424 11.3269 78.4424 10.845C78.4424 10.155 78.6492 9.62713 79.0655 9.25909C79.4817 8.89105 80.05 8.70703 80.7728 8.70703C81.204 8.70703 81.5605 8.77483 81.8371 8.91284C82.1138 9.05086 82.3282 9.23488 82.4802 9.4649C82.6322 9.69493 82.7394 9.94674 82.7992 10.2203C82.8591 10.494 82.8965 10.9806 82.9114 11.2494H81.4109C81.396 10.9952 81.3735 10.77 81.3411 10.5763C81.3087 10.3826 81.2464 10.2325 81.1492 10.1211C81.0545 10.0097 80.9099 9.95643 80.718 9.95643C80.5136 9.95643 80.3591 10.0315 80.2594 10.1792C80.1597 10.3269 80.1098 10.4915 80.1098 10.6707C80.1098 10.9661 80.1796 11.2107 80.3167 11.3995C80.4563 11.5884 80.6457 11.7869 80.885 11.9927L81.7574 12.7361C82.1188 13.0388 82.4304 13.385 82.6896 13.7748C82.9488 14.1647 83.0784 14.6441 83.0784 15.2179C83.0784 15.6102 82.9862 15.9661 82.8017 16.2833C82.6173 16.6005 82.3606 16.8475 82.0291 17.0266C81.7001 17.2058 81.3112 17.2954 80.8651 17.2954L80.8676 17.2978Z" fill="#116CF0"/>
<path d="M87.4029 17.1839V8.80859H91.1591V9.98777H89.1576V12.2105H90.7005V13.3994H89.1576V16.0265H91.179V17.1839H87.4004H87.4029Z" fill="#116CF0"/>
</g>
<defs>
<clipPath id="clip0_413_763">
<rect width="108" height="26" fill="white"/>
</clipPath>
</defs>
</svg>
