<svg width="158" height="38" viewBox="0 0 158 38" fill="none" xmlns="http://www.w3.org/2000/svg">
<g clip-path="url(#clip0_416_1757)">
<path d="M157.082 13.3733C156.236 10.8359 154.931 8.60646 153.166 6.6778C151.511 4.75267 149.359 3.21682 146.712 2.07378C144.393 0.96966 141.632 0.414062 138.435 0.414062H130.434C129.698 0.414062 129.056 0.683014 128.505 1.21738C127.951 1.75174 127.678 2.39581 127.678 3.14604V10.3794H133.195V5.76832H138.435C142.774 5.76832 146.322 7.25109 149.082 10.2131C151.766 13.1397 152.853 16.675 152.338 20.8154C151.97 24.1703 150.46 26.9907 147.813 29.2733C145.166 31.524 142.092 32.6458 138.599 32.6458H133.195V27.6065H127.678V35.3247C127.678 36.0395 127.951 36.6623 128.505 37.1967C129.056 37.7346 129.698 38 130.434 38H138.599C143.492 38 147.795 36.4146 151.511 33.2368C155.186 30.0943 157.301 26.152 157.855 21.4029C158.187 19.046 157.928 16.3707 157.082 13.3733Z" fill="black"/>
<path d="M38.6073 16.8836C38.2682 14.3675 37.4477 12.0177 36.1496 9.83069C35.7594 9.176 35.1833 8.74781 34.4212 8.54963C33.6153 8.42223 32.9225 8.51778 32.3427 8.84335L19.2156 16.1971C18.541 16.5757 18.107 17.1101 17.9174 17.7966C17.7132 18.5362 17.808 19.2334 18.1982 19.8881C18.5701 20.5144 19.1353 20.9249 19.8974 21.1231C20.6267 21.339 21.3268 21.2576 22.0014 20.8789L32.474 15.0115C33.5205 17.924 33.4512 20.8754 32.2734 23.8657C31.1102 26.8914 29.101 29.2023 26.2349 30.8089C22.9568 32.6456 19.4781 33.0738 15.8061 32.0935C12.1196 31.1628 9.33008 29.1032 7.43758 25.9182C5.5232 22.705 5.05646 19.3218 6.0337 15.7759C7.00001 12.2796 9.12223 9.57235 12.3967 7.6543C16.2583 5.49208 20.3751 5.16297 24.7436 6.66697C26.5303 7.28981 27.8211 6.93946 28.6234 5.61948C29.0463 4.96479 29.1448 4.2641 28.9187 3.51741C28.7218 2.75302 28.2697 2.21512 27.5695 1.90016C21.2175 -0.700883 15.2337 -0.343461 9.61085 2.97243C7.39382 4.21456 5.48674 5.84242 3.89689 7.85956C2.4055 9.82007 1.33345 11.9823 0.680735 14.3427C0.0280238 16.7102 -0.157944 19.1024 0.126478 21.523C0.443717 24.0108 1.2751 26.3747 2.6097 28.6219C3.91148 30.8089 5.59977 32.6739 7.6746 34.2133C9.69472 35.6642 11.9227 36.7046 14.3585 37.3381C16.7943 37.9715 19.2593 38.152 21.7571 37.8759C24.3497 37.5468 26.771 36.7541 29.0208 35.4908C31.34 34.192 33.2762 32.5465 34.8332 30.5506C36.3246 28.5901 37.4003 26.4278 38.053 24.0639C38.7058 21.6999 38.8881 19.3077 38.6073 16.8836Z" fill="black"/>
<path d="M72.8556 27.6064C70.2629 30.7242 66.2956 32.7201 61.8579 32.7201C54.0655 32.7201 47.7207 26.566 47.7207 19C47.7207 11.434 54.0655 5.28348 61.8579 5.28348C66.2883 5.28348 70.2484 7.2723 72.841 10.3794H79.2952C76.0571 4.22537 69.4534 0 61.8579 0C51.0608 0 42.2802 8.52505 42.2802 19C42.2802 29.4749 51.0608 38 61.8579 38C69.4607 38 76.0717 33.7711 79.3061 27.6064H72.8556Z" fill="black"/>
<path d="M104.557 0C96.9582 0 90.3581 4.22537 87.1201 10.3794H93.5706C96.1633 7.2723 100.123 5.28348 104.557 5.28348C108.991 5.28348 112.948 7.2723 115.54 10.3794H121.995C118.757 4.22537 112.153 0 104.557 0ZM115.555 27.6064C112.962 30.7242 108.995 32.7201 104.557 32.7201C100.12 32.7201 96.1487 30.7242 93.5561 27.6064H87.1092C90.3435 33.7711 96.9509 38 104.557 38C112.164 38 118.771 33.7711 122.006 27.6064H115.555Z" fill="black"/>
<path d="M74.2568 25.1149V12.874H76.8275V17.9062H79.0555V12.874H81.6263V25.1149H79.0555V19.6898H76.8275V25.1149H74.2568Z" fill="#116CF0"/>
<path d="M91.3367 25.2814C90.4142 25.2814 89.6812 25.1186 89.1416 24.7966C88.6019 24.4745 88.2154 24.0145 87.982 23.4129C87.7486 22.8148 87.6319 22.0964 87.6319 21.2613V16.6962C87.6319 15.861 87.7486 15.1461 87.982 14.5516C88.2154 13.9571 88.6019 13.5041 89.1416 13.1927C89.6812 12.8813 90.4142 12.7256 91.3367 12.7256C92.2592 12.7256 93.0104 12.8848 93.5537 13.2033C94.0971 13.5218 94.4872 13.9748 94.7206 14.5622C94.954 15.1497 95.0707 15.8645 95.0707 16.6997V21.2648C95.0707 22.1 94.954 22.8183 94.7206 23.4164C94.4872 24.0145 94.0971 24.4781 93.5537 24.8001C93.0104 25.1221 92.2702 25.2849 91.3367 25.2849V25.2814ZM91.3367 23.4836C91.6685 23.4836 91.9128 23.4093 92.0696 23.2642C92.2264 23.1191 92.3285 22.921 92.3796 22.6733C92.4306 22.4255 92.4562 22.1637 92.4562 21.8806V16.091C92.4562 15.8079 92.4306 15.546 92.3796 15.3054C92.3285 15.0648 92.2228 14.8701 92.0696 14.725C91.9165 14.5799 91.6685 14.5056 91.3367 14.5056C91.0268 14.5056 90.7934 14.5799 90.6366 14.725C90.4798 14.8701 90.3777 15.0648 90.323 15.3054C90.2719 15.546 90.2464 15.8079 90.2464 16.091V21.8806C90.2464 22.1637 90.2683 22.4255 90.3157 22.6733C90.3631 22.921 90.4652 23.1156 90.6184 23.2642C90.7715 23.4129 91.0122 23.4836 91.3331 23.4836H91.3367Z" fill="#116CF0"/>
<path d="M104.745 25.2812C103.79 25.2812 103.05 25.1219 102.518 24.8034C101.989 24.4849 101.617 24.0284 101.405 23.4304C101.194 22.8323 101.084 22.1033 101.084 21.2469V12.874H103.622V21.5937C103.622 21.8945 103.644 22.1918 103.692 22.4855C103.739 22.7792 103.841 23.0128 104.002 23.1968C104.162 23.3808 104.41 23.4693 104.742 23.4693C105.074 23.4693 105.336 23.3773 105.497 23.1968C105.657 23.0163 105.759 22.7792 105.799 22.4855C105.839 22.1953 105.861 21.898 105.861 21.5937V12.874H108.399V21.2469C108.399 22.1033 108.293 22.8323 108.078 23.4304C107.863 24.0284 107.495 24.4885 106.966 24.8034C106.437 25.1219 105.694 25.2812 104.738 25.2812H104.745Z" fill="#116CF0"/>
<path d="M118.306 25.2814C117.526 25.2814 116.88 25.1434 116.359 24.8673C115.838 24.5913 115.447 24.1737 115.185 23.6146C114.919 23.0554 114.725 22.3052 114.725 21.1126H116.935C116.953 21.6151 117.012 22.0363 117.099 22.376C117.187 22.7122 117.322 22.9634 117.504 23.1298C117.686 23.2961 117.912 23.3775 118.182 23.3775C118.514 23.3775 118.74 23.2784 118.861 23.0767C118.981 22.875 119.039 22.6449 119.039 22.3795C119.039 21.8664 118.912 21.4347 118.66 21.0879C118.405 20.741 118.069 20.3907 117.657 20.0368L116.348 18.9327C115.881 18.5505 115.498 18.1152 115.203 17.6339C114.908 17.1491 114.758 16.5546 114.758 15.8504C114.758 14.8418 115.061 14.0703 115.67 13.5324C116.279 12.9945 117.11 12.7256 118.168 12.7256C118.799 12.7256 119.32 12.8247 119.725 13.0264C120.129 13.2281 120.443 13.4971 120.665 13.8332C120.888 14.1694 121.045 14.5375 121.132 14.9374C121.22 15.3372 121.274 16.0486 121.296 16.4414H119.101C119.079 16.0698 119.046 15.7407 118.999 15.4576C118.952 15.1745 118.861 14.9551 118.718 14.7923C118.58 14.6295 118.368 14.5516 118.087 14.5516C117.788 14.5516 117.562 14.6613 117.417 14.8772C117.271 15.0931 117.198 15.3337 117.198 15.5956C117.198 16.0273 117.3 16.3847 117.5 16.6608C117.705 16.9368 117.982 17.227 118.332 17.5278L119.608 18.6142C120.137 19.0566 120.593 19.5626 120.972 20.1324C121.351 20.7021 121.541 21.4028 121.541 22.2415C121.541 22.8148 121.406 23.335 121.136 23.7986C120.866 24.2622 120.49 24.6231 120.005 24.885C119.524 25.1469 118.955 25.2778 118.303 25.2778L118.306 25.2814Z" fill="#116CF0"/>
<path d="M127.867 25.1149V12.874H133.362V14.5974H130.434V17.8461H132.691V19.5837H130.434V23.4233H133.392V25.1149H127.864H127.867Z" fill="#116CF0"/>
</g>
<defs>
<clipPath id="clip0_416_1757">
<rect width="158" height="38" fill="white"/>
</clipPath>
</defs>
</svg>
