<svg width="166" height="107" viewBox="0 0 166 107" fill="none" xmlns="http://www.w3.org/2000/svg">
<path d="M2.82804 98.3559C3.22589 97.5653 4.01577 97.0817 4.89947 97.0322C6.5236 96.9406 9.70276 96.8198 15.1403 96.8198C20.5778 96.8198 23.757 96.9406 25.3811 97.0322C26.2648 97.0817 27.0547 97.5653 27.4525 98.3559C28.1964 99.8389 28.7869 101.394 29.2148 102.997C29.5349 104.201 28.6512 105.317 27.406 105.368C25.3214 105.453 21.5582 105.548 15.1403 105.548C8.72232 105.548 4.95911 105.453 2.87459 105.368C1.6294 105.317 0.746419 104.201 1.06572 102.997C1.49361 101.394 2.08412 99.8389 2.82804 98.3559Z" fill="white"/>
<path d="M26.0487 85.9609C26.0487 93.6924 18.2313 99.2419 15.8311 100.764C15.6243 100.896 15.3841 100.966 15.1387 100.966C14.8934 100.966 14.6531 100.896 14.4463 100.764C12.0461 99.2426 4.22876 93.6924 4.22876 85.9609C4.22876 79.9073 9.11351 75 15.1387 75C21.1639 75 26.0487 79.9073 26.0487 85.9609Z" fill="#8FBFFA"/>
<path d="M19.5033 85.9099C19.5033 87.0673 19.0436 88.1773 18.2252 88.9957C17.4068 89.8141 16.2968 90.2739 15.1394 90.2739C13.982 90.2739 12.872 89.8141 12.0536 88.9957C11.2352 88.1773 10.7754 87.0673 10.7754 85.9099C10.7754 84.7525 11.2352 83.6425 12.0536 82.8241C12.872 82.0057 13.982 81.5459 15.1394 81.5459C16.2968 81.5459 17.4068 82.0057 18.2252 82.8241C19.0436 83.6425 19.5033 84.7525 19.5033 85.9099Z" fill="white"/>
<path d="M24.9592 97.0088L25.3811 97.0321C26.2648 97.0815 27.0547 97.5652 27.4525 98.3558C28.1964 99.8386 28.7869 101.393 29.2148 102.996C29.5349 104.201 28.6512 105.316 27.406 105.367C25.3214 105.453 21.5582 105.548 15.1403 105.548C8.72232 105.548 4.95911 105.453 2.87459 105.368C1.6294 105.317 0.746419 104.201 1.06572 102.997C1.49361 101.394 2.08412 99.8388 2.82804 98.3558C3.22589 97.5652 4.01577 97.0815 4.89947 97.0321L5.32132 97.0095" stroke="#116CF0" stroke-width="1.5" stroke-linecap="round" stroke-linejoin="round"/>
<path d="M26.0487 85.9609C26.0487 93.6924 18.2313 99.2419 15.8311 100.764C15.6243 100.896 15.3841 100.966 15.1387 100.966C14.8934 100.966 14.6531 100.896 14.4463 100.764C12.0461 99.2426 4.22876 93.6924 4.22876 85.9609C4.22876 79.9073 9.11351 75 15.1387 75C21.1639 75 26.0487 79.9073 26.0487 85.9609Z" stroke="#116CF0" stroke-width="1.5" stroke-linecap="round" stroke-linejoin="round"/>
<path d="M19.5033 85.9099C19.5033 87.0673 19.0436 88.1773 18.2252 88.9957C17.4068 89.8141 16.2968 90.2739 15.1394 90.2739C13.982 90.2739 12.872 89.8141 12.0536 88.9957C11.2352 88.1773 10.7754 87.0673 10.7754 85.9099C10.7754 84.7525 11.2352 83.6425 12.0536 82.8241C12.872 82.0057 13.982 81.5459 15.1394 81.5459C16.2968 81.5459 17.4068 82.0057 18.2252 82.8241C19.0436 83.6425 19.5033 84.7525 19.5033 85.9099Z" stroke="#116CF0" stroke-width="1.5" stroke-linecap="round" stroke-linejoin="round"/>
<path d="M137.828 24.3559C138.226 23.5653 139.016 23.0817 139.899 23.0322C141.524 22.9406 144.703 22.8198 150.14 22.8198C155.578 22.8198 158.757 22.9406 160.381 23.0322C161.265 23.0817 162.055 23.5653 162.453 24.3559C163.196 25.8389 163.787 27.394 164.215 28.997C164.535 30.2015 163.651 31.3172 162.406 31.3681C160.321 31.4532 156.558 31.5478 150.14 31.5478C143.722 31.5478 139.959 31.4532 137.875 31.3681C136.629 31.3172 135.746 30.2015 136.066 28.997C136.494 27.394 137.084 25.8389 137.828 24.3559Z" fill="white"/>
<path d="M161.05 11.9609C161.05 19.6924 153.233 25.2419 150.833 26.7642C150.626 26.8962 150.386 26.9663 150.14 26.9663C149.895 26.9663 149.655 26.8962 149.448 26.7642C147.048 25.2426 139.23 19.6924 139.23 11.9609C139.23 5.9073 144.115 1 150.14 1C156.166 1 161.05 5.9073 161.05 11.9609Z" fill="#8FBFFA"/>
<path d="M154.505 11.9099C154.505 13.0673 154.046 14.1773 153.227 14.9957C152.409 15.8141 151.299 16.2739 150.141 16.2739C148.984 16.2739 147.874 15.8141 147.056 14.9957C146.237 14.1773 145.777 13.0673 145.777 11.9099C145.777 10.7525 146.237 9.64248 147.056 8.82408C147.874 8.00567 148.984 7.5459 150.141 7.5459C151.299 7.5459 152.409 8.00567 153.227 8.82408C154.046 9.64248 154.505 10.7525 154.505 11.9099Z" fill="white"/>
<path d="M159.959 23.0088L160.381 23.0321C161.265 23.0815 162.055 23.5652 162.453 24.3558C163.196 25.8386 163.787 27.3934 164.215 28.9962C164.535 30.2014 163.651 31.3164 162.406 31.3673C160.321 31.4531 156.558 31.5476 150.14 31.5476C143.722 31.5476 139.959 31.4531 137.875 31.368C136.629 31.3171 135.746 30.2006 136.066 28.9969C136.494 27.3939 137.084 25.8388 137.828 24.3558C138.226 23.5652 139.016 23.0815 139.899 23.0321L140.321 23.0095" stroke="#116CF0" stroke-width="1.5" stroke-linecap="round" stroke-linejoin="round"/>
<path d="M161.05 11.9609C161.05 19.6924 153.233 25.2419 150.833 26.7642C150.626 26.8962 150.386 26.9663 150.14 26.9663C149.895 26.9663 149.655 26.8962 149.448 26.7642C147.048 25.2426 139.23 19.6924 139.23 11.9609C139.23 5.9073 144.115 1 150.14 1C156.166 1 161.05 5.9073 161.05 11.9609Z" stroke="#116CF0" stroke-width="1.5" stroke-linecap="round" stroke-linejoin="round"/>
<path d="M154.505 11.9099C154.505 13.0673 154.046 14.1773 153.227 14.9957C152.409 15.8141 151.299 16.2739 150.141 16.2739C148.984 16.2739 147.874 15.8141 147.056 14.9957C146.237 14.1773 145.777 13.0673 145.777 11.9099C145.777 10.7525 146.237 9.64248 147.056 8.82408C147.874 8.00567 148.984 7.5459 150.141 7.5459C151.299 7.5459 152.409 8.00567 153.227 8.82408C154.046 9.64248 154.505 10.7525 154.505 11.9099Z" stroke="#116CF0" stroke-width="1.5" stroke-linecap="round" stroke-linejoin="round"/>
<path d="M38 89.5C38 89.5 70.4062 90.0713 95.5 74C115.736 61.0397 130 40 130 40" stroke="#116CF0" stroke-width="1.5" stroke-dasharray="4 4"/>
</svg>
