<svg width="28" height="30" viewBox="0 0 28 30" fill="none" xmlns="http://www.w3.org/2000/svg">
<path d="M24.9029 0H10.7631C9.18921 0 7.91563 1.3485 7.91563 3.015V11.4705L1.25446 18.4335C1.05488 18.6425 0.918433 18.9096 0.862446 19.2008C0.80646 19.4921 0.833457 19.7944 0.94001 20.0694C1.04656 20.3444 1.22787 20.5796 1.46092 20.7453C1.69397 20.911 1.96825 20.9996 2.24896 21V28.5C2.24896 28.8978 2.39822 29.2794 2.6639 29.5607C2.92957 29.842 3.28991 30 3.66563 30H26.3323C26.708 30 27.0684 29.842 27.334 29.5607C27.5997 29.2794 27.749 28.8978 27.749 28.5V3.0135C27.749 1.3485 26.4768 0 24.9029 0ZM13.4718 19.6665V27H5.0823V18.648L9.31388 14.2245L13.4718 18.729V19.6665ZM16.4156 10.5H13.5823V7.5H16.4156V10.5ZM22.0823 22.5H19.249V19.5H22.0823V22.5ZM22.0823 16.5H19.249V13.5H22.0823V16.5ZM22.0823 10.5H19.249V7.5H22.0823V10.5Z" fill="#116CF0"/>
</svg>
