<svg width="30" height="30" viewBox="0 0 30 30" fill="none" xmlns="http://www.w3.org/2000/svg">
<path d="M1.49961 18H4.49961V28.5C4.49961 28.8979 4.65764 29.2794 4.93895 29.5607C5.22025 29.842 5.60178 30 5.99961 30H23.9996C24.3974 30 24.779 29.842 25.0603 29.5607C25.3416 29.2794 25.4996 28.8979 25.4996 28.5V18H28.4996C28.7895 18.0003 29.0732 17.9164 29.3163 17.7585C29.5594 17.6006 29.7515 17.3755 29.8691 17.1105C29.9876 16.8457 30.0265 16.5522 29.9812 16.2657C29.936 15.9791 29.8084 15.7119 29.6141 15.4965L16.1141 0.49654C15.5456 -0.13646 14.4536 -0.13646 13.8851 0.49654L0.385107 15.4965C0.191144 15.712 0.063789 15.9791 0.0184529 16.2655C-0.0268833 16.5518 0.0117424 16.8452 0.129656 17.1101C0.24757 17.375 0.439718 17.6 0.68285 17.7579C0.925982 17.9159 1.20968 18 1.49961 18ZM9.97911 14.4615C10.6035 13.8451 11.4455 13.4995 12.3229 13.4995C13.2002 13.4995 14.0423 13.8451 14.6666 14.4615L15.0026 14.7915L15.3371 14.4615C15.9617 13.845 16.804 13.4994 17.6816 13.4994C18.5592 13.4994 19.4015 13.845 20.0261 14.4615C20.336 14.7596 20.5825 15.1172 20.7509 15.5129C20.9192 15.9085 21.006 16.3341 21.006 16.764C21.006 17.194 20.9192 17.6196 20.7509 18.0152C20.5825 18.4109 20.336 18.7684 20.0261 19.0665L15.0026 24L9.97911 19.0665C9.66924 18.7684 9.42273 18.4109 9.25435 18.0152C9.08596 17.6196 8.99917 17.194 8.99917 16.764C8.99917 16.3341 9.08596 15.9085 9.25435 15.5129C9.42273 15.1172 9.66924 14.7596 9.97911 14.4615Z" fill="#116CF0"/>
</svg>
